<svg xmlns="http://www.w3.org/2000/svg" xmlns:xlink="http://www.w3.org/1999/xlink" width="300" height="238" viewBox="0 0 300 238">
    <defs>
        <path id="a" d="M0 237.186h299.62V0H0z"/>
    </defs>
    <g fill="none" fill-rule="evenodd">
        <path fill="#626262" d="M136.061 41.826v-3.68h-11.35v8.791c3.174-3.286 6.894-4.974 11.35-5.11zm5.164 10.93c-1.368-2.22-2.657-4.199-3.81-6.253-.345-.615-.638-.845-1.325-.845-5.053 0-9.604 3.383-10.973 8.262-.28.997-.375 2.047-.569 3.148 3.09 0 5.951.154 8.786-.04 3.32-.226 6.007-1.83 7.891-4.272zm-16.41-18.522c3.965 0 7.843.014 11.72-.029.27-.004.658-.382.783-.675 1.897-4.442 5.043-7.62 9.52-9.445.667-.273.798-.625.536-1.274-3.216 0-6.384-.03-9.552.008-3.753.047-6.943 1.468-9.525 4.175-1.904 1.996-3.1 4.361-3.482 7.24zm-4.025-7.853c.077-5.124-3.88-10.142-9.092-10.882-3.187-.452-6.472-.205-9.712-.264-.056 0-.113.096-.168.15-.078 5.168 3.877 10.211 9.092 10.916 3.213.434 6.533.08 9.88.08zm3.893 53.585c2.64 0 5.206.021 7.773-.007 2.538-.028 4.832-.833 6.815-2.409 2.854-2.27 4.308-5.245 4.426-8.943-3.083 0-6.074-.263-9 .056-5.792.633-10.104 5.594-10.014 11.303zm-3.893-7.84c.078-5.194-3.932-10.202-9.21-10.923-3.153-.43-6.396-.19-9.597-.243-.056 0-.112.096-.167.15-.078 5.215 3.934 10.253 9.212 10.94 3.18.412 6.457.075 9.762.075zm-.076-22.532c.46-5.037-3.717-10.432-8.923-11.222-3.252-.494-6.607-.31-9.9-.43-.452 5.04 3.732 10.441 8.923 11.222 3.253.49 6.607.31 9.9.43zm46.684 64.602h32.613c-1.13-2.91-2.084-5.767-3.345-8.48-.875-1.884-2.649-2.85-4.75-2.868a956.454 956.454 0 0 0-16.423 0c-2.149.02-3.926 1.025-4.812 2.964-1.227 2.688-2.172 5.505-3.283 8.384zm-20.718.01c-1.153-2.942-2.122-5.835-3.42-8.572-.912-1.92-2.758-2.79-4.909-2.797-5.316-.016-10.633-.017-15.949-.002-2.518.007-4.504 1.36-5.435 3.704-.73 1.84-1.403 3.703-2.098 5.557-.256.681-.502 1.367-.774 2.11h32.585zm-11.202-15.188h2.244c4.863-.004 8.098 2.224 9.821 6.776.941 2.482 1.904 4.957 2.79 7.46.263.741.58 1.042 1.417 1.03 3.533-.057 7.066-.05 10.598-.003.772.01 1.101-.252 1.351-.955a377.024 377.024 0 0 1 2.862-7.685c1.652-4.334 4.964-6.615 9.576-6.623.805-.002 1.61 0 2.546 0-1.096-2.442-2.795-3.774-5.24-3.785-10.954-.05-21.909-.035-32.863-.01-2.325.006-4.265 1.48-5.102 3.795zm44.413-4.956v-1.717c0-12.024.008-24.048-.003-36.072-.005-6.502 2.696-11.535 8.112-15.122.912-.603 1.815-1.219 2.766-1.858l-2.209-4.387c-4.18 2.081-8.259 4.112-12.477 6.214 0-3.03.015-5.807-.018-8.582-.005-.379-.139-.94-.403-1.1-1.04-.62-2.157-1.11-3.455-1.757v22.215l-.354.198-14.82-14.835-2.92 2.75c.31.325.598.642.902.945 3.927 3.93 7.838 7.875 11.79 11.781 3.69 3.65 5.512 8.023 5.481 13.227-.048 8.015-.013 16.031-.013 24.048v1.38c2.861-.132 5.333.636 7.621 2.672zm-32.389-29.097v2.923c0 9.283-6.6 15.888-15.877 15.89h-6.914v15.24c1.493 0 2.931-.139 4.33.036 1.62.202 2.364-.465 3.007-1.877 1.792-3.933 4.957-5.799 9.284-5.788 8.571.025 17.141.008 25.711.01h1.415c0-4.545.018-8.907-.032-13.268-.004-.375-.379-.83-.704-1.103-1.837-1.53-3.232-3.367-4.086-5.607-.15-.395-.323-.78-.474-1.143-.65.058-1.199.135-1.749.152-7.663.25-13.8-5.644-13.93-13.33-.008-.397-.193-.965-.485-1.149-.76-.477-1.628-.782-2.282-1.078-1.46 1.251-2.744 2.57-4.236 3.582-2.515 1.708-5.367 2.49-8.43 2.464-2.444-.02-4.888-.004-7.41-.004v8.891c3.405-3.043 5.79-4.627 8.741-4.778 4.655-.238 9.33-.063 14.121-.063zm20.958 7.252c0-2.379-.019-4.43.004-6.48.045-3.98-1.368-7.332-4.195-10.136-4.932-4.889-9.827-9.815-14.736-14.727-.298-.297-.58-.608-.757-.792l8.424-8.425c3.636 3.646 7.345 7.363 11.257 11.283V23.741c.21 0 .3-.026.361.004 3.514 1.744 7.032 3.478 10.522 5.268.284.145.514.664.527 1.018.056 1.575.024 3.154.024 4.93l10.38-5.174c1.836 3.673 3.613 7.231 5.405 10.82-1.993 1.332-3.876 2.58-5.747 3.844-4.16 2.813-6.238 6.732-6.229 11.762.01 4.881.002 9.761.002 14.643v1.316c1.797-2.164 1.784-4.57 2.177-6.975 4.072 1.914 7.973 2.17 11.51-.782 3.51-2.93 4.083-6.777 2.89-11.045 7.026-1.489 11.581-5.46 11.9-12.69.351-7.999-4.305-12.437-11.919-14.187 1.256-4.323.58-8.139-2.946-11.054-3.537-2.925-7.442-2.59-11.472-.73-.094-.779-.187-1.362-.234-1.948-.406-5.145-4.443-8.987-9.47-9-5.109-.017-9.168 3.801-9.586 9.003-.049.61-.167 1.212-.274 1.972-4.1-1.967-7.997-2.173-11.526.781-3.505 2.935-4.05 6.79-2.872 11.034-6.899 1.444-11.43 5.312-11.878 12.36-.516 8.155 4.146 12.72 11.893 14.514-1.235 4.347-.564 8.162 2.976 11.07 3.54 2.906 7.442 2.565 11.463.708.264 2.494.411 4.813 2.126 7.014zm-47.655-10.03v-8.893c-.517 0-1.015.018-1.51-.004-3.24-.144-6.562.105-9.706-.529-6.767-1.368-11.564-7.65-11.62-14.557-.01-1.266-.002-2.53-.002-3.907.438-.02.82-.054 1.198-.054 3.216-.004 6.431.03 9.646-.01 4.48-.055 8.296 1.472 11.47 4.627.107.108.232.197.46.386V30.43c-2.505 0-4.993.008-7.482 0-7.249-.028-13.516-5.019-14.93-12.108-.439-2.192-.346-4.49-.488-6.603.223-.202.282-.3.34-.299 4.558.052 9.151-.217 13.667.25 6.346.652 11.594 6.14 12.562 12.426.053.346.13.69.174.923 1.702-1.285 3.31-2.69 5.1-3.802 2.505-1.554 5.322-2.219 8.281-2.218 3.057 0 6.114-.017 9.17.012.633.005.956-.144 1.213-.793 2.45-6.179 7.902-9.37 14.56-8.58.072.007.151-.026.251-.044 2.327-6.222 6.701-9.819 13.474-9.583 6.228.216 10.228 3.761 12.261 9.34 2.004.197 3.968.162 5.814.612 5.835 1.422 9.908 6.711 9.931 12.703.003.835.244 1.205 1.024 1.562 6.701 3.072 10.357 8.34 10.371 15.7.013 7.36-3.636 12.627-10.31 15.751-.642.3-1.087.496-1.095 1.393-.072 8.302-7.007 14.268-15.278 13.21-.112-.015-.23.014-.423.027-.888 2.82-2.486 5.173-4.84 7.013-.227.178-.369.602-.37.912-.02 6.55-.016 13.098-.016 19.647v1.064c.372.027.71.07 1.048.07 2.381.007 4.765-.063 7.144.02 3.866.136 6.793 1.953 8.41 5.453 1.308 2.835 2.313 5.815 3.368 8.76.297.83.71 1.083 1.54 1.028 1.024-.066 2.056-.015 3.171-.015v3.74H105.645v-3.74c1.132 0 2.268-.043 3.397.013.706.036 1.05-.194 1.29-.874.856-2.428 1.78-4.833 2.681-7.245 1.537-4.11 3.487-5.9 7.736-7.062V76.157c-2.436 0-4.88-.018-7.326.005-2.552.024-4.985-.504-7.209-1.732-5.21-2.875-7.99-7.313-8.239-13.282-.055-1.3-.008-2.604-.008-3.977.431-.027.775-.066 1.12-.066 3.453-.004 6.906-.022 10.358.003 4.03.031 7.494 1.498 10.442 4.221.252.232.5.467.918.857z"/>
        <mask id="b" fill="#fff">
            <use xlink:href="#a"/>
        </mask>
        <path fill="#626262" d="M212.342 118h3.665v-3.687h-3.665zM98.048 117.979h3.668v-3.664h-3.668zM155.216 110.389h3.663v-3.666h-3.663zM160.897 102.774h3.674v-3.665h-3.674zM151.386 102.745h3.685v-3.663h-3.685zM136.117 110.395h3.698v-3.677h-3.698zM122.797 110.377h3.705v-3.643h-3.705zM181.881 110.356h3.662v-3.665h-3.662zM174.236 110.38h3.705v-3.648h-3.705zM229.835 230.634h24.046c9.229 0 18.456.037 27.684-.015 5.824-.032 8.867-4.539 6.75-9.933-.538-1.365-1.258-2.665-1.988-3.944-16.69-29.292-33.4-58.572-50.085-87.868-1.451-2.548-3.468-4.062-6.46-4.056-2.925.005-4.938 1.484-6.353 3.969-16.876 29.612-33.767 59.216-50.643 88.827-.52.914-1.008 1.855-1.4 2.828-2.06 5.096-.059 8.885 5.31 10.051.71.155 1.466.135 2.202.136 16.978.007 33.959.005 50.938.005m.016 6.544c-20.112 0-40.222.002-60.333-.009-.79 0-1.602-.026-2.37-.2-6.012-1.362-8.315-5.6-6.14-11.359.493-1.303 1.167-2.549 1.858-3.763 19.917-34.954 39.847-69.9 59.772-104.849 1.621-2.844 4.04-4.364 7.325-4.329 3.226.037 5.587 1.583 7.173 4.367 19.926 34.949 39.865 69.888 59.748 104.86 1.094 1.922 1.938 4.053 2.5 6.192.805 3.059-.503 5.775-3.21 7.427-1.786 1.091-3.723 1.673-5.849 1.671-20.158-.015-40.316-.009-60.474-.008" mask="url(#b)"/>
        <path fill="#626262" d="M236.63 156.956c-.597 6.398-1.109 11.838-1.606 17.277-.822 8.976-1.624 17.952-2.465 26.926-.059.626-.255 1.298-.582 1.828-.647 1.053-1.686 1.457-2.903 1.235-1.164-.212-1.778-1.037-1.905-2.142-.304-2.643-.54-5.293-.786-7.94-1.092-11.765-2.18-23.529-3.265-35.292-.21-2.284.068-4.487 1.252-6.49 2.57-4.344 8.453-4.377 10.85.057.875 1.622 1.125 3.583 1.41 4.541M229.827 217.694a4.547 4.547 0 0 1-4.583-4.513c-.021-2.582 2.06-4.675 4.612-4.64 2.484.035 4.558 2.133 4.547 4.6-.012 2.487-2.073 4.537-4.576 4.553M225.681 112.675a18.686 18.686 0 0 1-.71-.304c-1.143-.915-2.543-1.396-4.07-1.396-1.21 0-2.318.309-3.305.694a5.876 5.876 0 0 0-1.985-1.612 5.956 5.956 0 0 0 1.247-1.998 5.806 5.806 0 0 0-.393-4.969c-2.05-3.585-4.907-4.353-6.442-4.767-.454-.122-.698-.19-.856-.281-.992-.578-2.119-.872-3.349-.872l-.117.001c-.794-.979-2.013-2.142-3.884-2.733a5.453 5.453 0 0 0-3.566-.46 6.31 6.31 0 0 0-1.333-.144c-.392 0-.784.037-1.169.112a5.798 5.798 0 0 0-1.038-.584 6.288 6.288 0 0 0-2.33-.53 5.919 5.919 0 0 0-1.984-.605c2.568-1.438 3.314-4.06 2.88-6.146-.932-4.454-5.569-4.913-9.294-5.282-.33-.032-.664-.062-.996-.092.548 1.84.892 3.716 1.035 5.603 2.513.271 4.765.678 3.56 1.206-.503.22-1.582.264-2.918.264l-.568-.003a24.098 24.098 0 0 1-.783 6.523c.412.23.713.948.797 2.723v.399c1.813 0-1.08 4.248.182 5.353a.557.557 0 0 0 .37.148c1.195 0 2.812-3.991 3.34-3.991.013 0 .026.003.037.008.6.261-.58 3.101.183 3.435a.713.713 0 0 0 .278.069c1.107 0-.209-4.213.91-4.703a.804.804 0 0 1 .311-.078c.523 0 .332.931.694 1.037.124.037.24.051.345.051.578 0 .94-.445 1.418-.445.107 0 .22.021.34.074.307.135.298.886.55.959.067.021.166.026.28.026.182 0 .402-.015.604-.015.311 0 .577.037.577.228 0 .568-1.234 2.038-.824 2.398.04.033.08.048.122.048.36 0 .862-1.091 1.32-1.091.068 0 .137.025.204.084.241.21-.155 1.086 0 1.358.08.139.153.2.223.2.495 0 .754-3.122 1.148-3.236a.735.735 0 0 1 .196-.027c.542 0 1.073.586 1.625.586.271 0 .545-.14.83-.559l.456.239c1.878.329 2.125 2.567 3.565 3.197.148.064.325.088.52.088.583 0 1.323-.215 1.904-.215.228 0 .432.033.592.127 2.193 1.277 3.86.514 5.301 3.035.62 1.085-4.576 1.779-4.843 2.717-.577 2.013 2.83 3.591 4.204 4.793.3.263.052 1.084.456 1.438.114.099.3.122.515.122.178 0 .376-.017.565-.017.43 0 .814.083.84.614l.182.399c0 1.206.122 1.538.325 1.538.248 0 .618-.496 1.033-.496.123 0 .25.043.38.156.215.189-.256.887.09 1.039.12.052.255.075.406.075 1.298 0 3.656-1.737 5.037-1.737.27 0 .501.067.681.224.448.392 1.081.676 1.746.953a99.377 99.377 0 0 1 5.088-3.581c-.976-.646-1.963-1.054-2.735-1.372M33.748 95.847c.189.212.384.42.583.627.117.73.344 1.669.893 2.629a7.426 7.426 0 0 0 1.218 1.578 7.535 7.535 0 0 0 .58 2.84c-.253.156-.5.323-.736.499a8.067 8.067 0 0 0-.8-.041h-.112a5.657 5.657 0 0 0-1.845-3.251 5.282 5.282 0 0 0-2.227-1.184 5.866 5.866 0 0 0-.198-.651c.06-.15.114-.297.16-.442a16.24 16.24 0 0 0 1.529-1.762c.306-.218.636-.494.955-.842m153.94 84.809a48.099 48.099 0 0 0-1.476-.026c-1.332 0-2.53.077-2.742.356-.495.649-.897 1.469-1.737 1.837a.694.694 0 0 1-.274.043c-.367 0-.907-.131-1.283-.131-.157 0-.286.022-.362.088-.243.212-.298 5.076-.822 5.992-.111.193-1.057.363-1.28.558a.387.387 0 0 1-.267.099c-1.086 0-3.4-3.634-3.663-4.093-.205-.358-1.402-.667-1.736-.96-.082-.07-8.821-.83-10.838-.83-.23 0-.371.01-.404.032-.145.095-.785.888-1.053.888a.102.102 0 0 1-.044-.01c-.616-.268-.905-2.787-1.646-3.434-.233-.204-.656-.273-1.17-.273-1.028 0-2.421.273-3.406.273a2.72 2.72 0 0 1-.724-.08c-1.642-.478-3.26-1.79-4.936-2.157a1.921 1.921 0 0 0-.406-.043c-.494 0-.931.188-1.33.363-2.673 1.168.866 3.586 2.102 4.953l.275.399c0 2.596 1.82 1.86 3.838 3.036 1.159.675 1.92 1.519 2.834 2.317.723.633-.42 1.325-.732 1.598-.614.537 1.01.866.822 1.358-.388 1.02-.485 2.722-.09 3.755.184.485.644.6 1.096.799.23.1-.258 1.37.09 1.677.617.538 2.378 1.594 2.378 3.196 0 1.089-.69 1.286-1.188 2.157-.843 1.475 3.417 2.886 4.204 3.115.123.036.242.052.359.052.977 0 1.787-1.121 3.383-1.121.517 0 1.118.118 1.833.43.642.28 3.094 1.69 1.828 2.796-1.005.879-7.98 2.329-9.962 3.196-1.125.492-1.594 5.707-2.925 6.87a.443.443 0 0 1-.302.097c-.703 0-2.045-.96-3.001-.96-.455 0-.824.219-.993.863l.092.4c-2.136 0-3.178 2.108-4.753 2.796a.474.474 0 0 1-.188.04c-.52 0-.86-.95-1.293-.95a.386.386 0 0 0-.255.11c-.192.169-3.252 2.54-3.474 2.637a.492.492 0 0 1-.194.033c-.32 0-.806-.173-1.204-.173a.855.855 0 0 0-.338.06c-.938.41.26 2.323-.822 2.797-.581.254-2.345.132-2.742.479-.32.28-.792 1.548-1.324 1.548a.347.347 0 0 1-.138-.03c-.546-.238.247-1.154-.092-1.598-.255-.335-1.84-1.428-2.825-1.428a.923.923 0 0 0-.373.07c-1.115.486-2.61.74-3.84 1.278-1.56.682-3.592 2.909-6.032 2.909-.53 0-1.078-.105-1.645-.352-.118-.052.075-.59 0-.72-.723-1.263-3.021-1.055-4.021-2.076l-.64-.401c-4.436-3.876-5.343-10.727-7.586-16.056l-.274-.72c-.748-3.266-4.748-6.865-7.677-9.427-.813-.71-2.952-.207-3.382-.96-.29-.504 6.16-4.726 6.58-4.951l.366-.4c3.656-3.195-.714-4.018-1.188-6.63l-.365-.32c-.861-1.88-3.376-1.876-3.748-3.754l-.274-.321c-2.017-4.405-2.367-9.176-1.828-14.3v-.32c0-1.291-.386-4.775.73-5.751.486-.424 1.508-.358 2.012-.8.608-.531-.354-3.224 0-4.153.638-1.672 2.454-1.35 3.839-2.157.507-.296.25-1.186.183-1.518l-.183-.48c-1.204-2.63-3.487-4.132-6.197-4.132-1.108 0-2.285.25-3.492.777-.251.11-.544.15-.86.15-.861 0-1.895-.3-2.758-.3-.315 0-.607.04-.86.15-.265.117-.343.473-.64.56a3.377 3.377 0 0 1-.943.115c-1.077 0-2.348-.323-3.427-.323-.442-.001-.853.054-1.205.208-.441.192.088.88-.274 1.038a.618.618 0 0 1-.25.05c-.646 0-1.393-.888-1.67-1.008a1.13 1.13 0 0 0-.455-.08c-.458 0-1.007.159-1.464.159-.167 0-.322-.021-.456-.08-.581-.253-1.395-.781-2.197-.781a1.64 1.64 0 0 0-.454.062c-1.11.324-2.254.932-2.924 1.519a.638.638 0 0 1-.426.177c-.514 0-.994-.68-1.515-.68a.61.61 0 0 0-.162.023c-.322.094-.597.742-1.203.742a1.1 1.1 0 0 1-.441-.103c-.222-.097.304-1.43-.275-1.598-1.506-.438-4.24-3.257-5.027-4.633-1.004-1.756-3.308-1.994-3.747-4.075.038-.165-.243-.694-.411-.768-.068-.03-.527-.75-.72-.92-.03-.025-.088-.031-.154-.031-.05 0-.106.004-.155.004a.297.297 0 0 1-.102-.012c-.134-.047-.21-.152-.321-.21-.203-.107-.49-.112-.708-.19-.351-.123-.475-.495-.994-.508-.313 0-.77.027-1.258.027-.716 0-1.506-.06-2.032-.348l-.64-.24c-2.427-.848-3.948-1.256-5.325-1.256-1.706 0-3.193.626-5.917 1.817a1.689 1.689 0 0 1-.683.134c-1.407 0-3.198-1.404-5.352-1.404-.267 0-.541.023-.82.07-.984.173-5.265.996-6.54.996-.15 0-.257-.011-.314-.037-1.181-.515-3.664-2.056-2.924-3.994.066-.175.687-.156.457-.56-1.088-1.901-3.801-.924-5.301-2.236-.327-.286.429-.272.548-.48.235-.41.017-.975-.275-1.357-.173-.228-1.097-.082-1.37-.32-1.096-.957 3.473-5.894 3.473-7.59 0-.997-1.222-3.292-2.376-3.994l-.457-.08c-.27-.586-.36-1.394-1.006-1.678-.175-.076-1.28-.32-1.371-.478-.135-.237.21-1.016 0-1.2-.221-.193-.721-.3-.914-.638-.443-.774-.347-3.61-.822-4.234-.183-.24-.823-.192-.823-.48 0-.635.833-.053.457-1.038-.602-1.58-4.296.397-4.296-3.595 0-.116-.07-.166-.19-.166-.734 0-3.386 1.825-4.262 1.825-.09 0-.16-.02-.21-.061-.885-.774 2.84-3.581 3.29-4.074 2.226-2.431 2.57-6.345 3.383-9.188.248-.865-.113-1.78.183-2.556.29-.761.529-1.405 1.006-2.237.116-.204 1.027-.29 1.187-.64.346-.753.627-1.62.823-2.316l.502-.64c.997-1.524.935-3.763 3.017-4.672.17-.075.52-.088.898-.088.225 0 .458.005.666.005.332 0 .602-.013.675-.077.398-.347 1.173-.333 1.69-.56.623-.271.926-.73 1.372-1.118 1.64-1.435 1.683-4.068 2.787-5.032.128-.113.849-1.207 1.029-1.207.009 0 .017.002.023.007.426.374-.223 1.943-.367 2.318-.256.673.395 1.112.549 1.517.188.492-.187 1.147 0 1.638.134.353.886.634.937 1.358.02.297.71.402.89.559.685.598.642 2.72.96 3.556.2.525.686.669.686 1.397 0 .262.18.762.138.839-.251.438-.417 1.006-.64 1.519l-.138.199c.03.068.085.354.138.399.28.246 2.297.378 1.736 1.359-.153.267-.637.215-.868.519-.186.243.05.777-.274.918-.27.118-1.711.356-1.83.56-.17.299-.098.71-.318.999-.19.249-.734.365-.868.598-.415.726-1.202 1.65-1.874 2.238-.172.15-.678.265-.777.439-.258.45.019 1.084-.23 1.518-.22.385-1.344.393-1.598.839-.293.51.686 1.737.686 2.276 0 .039-.026.389 0 .4.367.16.973.012.913.599v.239c0 2.72.735.968.849 2.876.074 1.243.215 2.699.678 2.699.193 0 .439-.248.758-.861.143-.272-.072-1.055.092-1.198.038-.033.168-.046.338-.046.448 0 1.173.089 1.216.126.289.252-.55.6-.55.958 0 1.035-.15 3.225.64 3.915.08.068.219.093.39.093.375 0 .905-.115 1.292-.115.184 0 .334.026.42.102.179.155.483.813.756.813a.155.155 0 0 0 .067-.014c.814-.356 1.378-.855 2.286-1.12a.961.961 0 0 1 .26-.028c.698 0 2.066.4 2.57.4.099 0 .165-.015.185-.051.424-.74 1.545-1.73 2.468-1.997 1.009-.294 2.49-3.735 2.285-4.634-.203-.888-1.511-1.814-.914-3.195l-.091-.72c-.306-.401-.124-.961-.366-1.278-.505-.662-1.272-.947-1.645-1.598-.461-.807-.126-2.266-.914-2.955-1.615-1.412-3.292-3.758-4.295-5.513-.197-.343.945-1.091.73-1.278-.113-.1-1.323-.84-1.188-.96 1.122-.978 2.034-2.574 3.2-3.594 1.397-1.221 4.896-.948 5.94-2.316.317-.415 2.663-.372 3.199-.56 1.486-.52 2.975-.98 4.387-1.597.099-.043.232-.061.392-.061.656 0 1.732.297 2.457.297.27 0 .493-.041.625-.156.506-.443 2.128-1.288 3.015-1.598.505-.177 1.337-1.034 1.63-1.034.068 0 .107.046.107.155 0 .479 2.74.719 3.656.719 1.553 0 4.025-1.08 5.026-1.518.608-.265 1.26-.374 1.928-.374 2.428 0 5.062 1.425 6.48 1.892l.367.16c.529 0 1.685-.114 2.679-.114.73 0 1.373.06 1.616.273.586.512 6.003 4.875 6.033 4.953.938 2.462-3.738 3.124-1.28 5.273.209.182.424.905.548.959a.89.89 0 0 0 .347.055c.24 0 .525-.044.783-.044.156 0 .303.016.424.069.57.249 1.355 1.35 2.833 1.997.455.198 1.326.278 2.384.278 2.95 0 7.352-.62 8.218-.997.514-.225 1.12-.304 1.776-.304 1.596 0 3.485.472 5.069.472.497 0 .962-.047 1.38-.168 2.487-.724 4.949-1.208 7.659-1.208.66 0 1.335.029 2.03.089l.548.08c.63 0 1.964-.16 2.834-.16 1.613 0 .179 1.912.639 2.717.594 1.038 2.152.5 3.016.879.247.107.27 1.354.639 1.677.11.095.258.125.424.125.26 0 .562-.072.814-.072.08 0 .157.007.225.028.27.078.217.733.549.877.204.09.43.126.67.126 1.056 0 2.388-.706 3.418-.706.277 0 .533.052.756.182.129.074-.135.739 0 .799 1.45.634 2.415 1.289 4.02 1.757.325.094.686.133 1.06.133.939 0 1.962-.241 2.688-.453.27-.08.562-.106.864-.106.66 0 1.372.13 2.03.13.299 0 .586-.026.854-.104 2.395-.697 6.293-2.784 8.134-4.393.288-.252.612-.34.953-.34.775 0 1.643.45 2.402.45.2 0 .393-.031.575-.11 1.822-.797 4.666-1.44 6.854-1.44.78 0-.806-.751-1.461-1.037-.17-.074-.377-.1-.603-.1-.545 0-1.203.152-1.74.152-.312 0-.581-.051-.765-.212-.154-.135 0-.99 0-1.198 0-.187-.191-.476 0-.56.548-.24 1.225-.306 1.949-.306.928 0 1.935.11 2.853.11.3 0 .59-.012.864-.043l.457.16c1.093 0 2.665.896 4.017.896.322 0 .632-.051.919-.177.33-.145.37-.277.377-.41l-.028-.026c-2.316-.926-2.694-2.931-2.54-5.31a11.258 11.258 0 0 0-1.575-.364 5.509 5.509 0 0 0-2.242-.211c-.003 0-.073.007-.25.007-.356 0-.731-.024-1.106-.046-.527-.03-1.124-.064-1.746-.064-1.026 0-2.573.08-4.142.766a5.695 5.695 0 0 0-3.143 3.596c-1.686.017-3.235.6-4.484 1.693-1.128.986-3.92 2.516-5.654 3.127l-.221-.023c-.422-.04-.946-.09-1.538-.09-.863 0-1.646.107-2.396.325a6.336 6.336 0 0 1-.992.22 8.01 8.01 0 0 1-.757-.317 5.757 5.757 0 0 0-1.73-1.614c-1.054-.614-2.236-.925-3.513-.925a9.25 9.25 0 0 0-2.18.28 1.376 1.376 0 0 0-.077-.037 5.431 5.431 0 0 0-2.2-1.801 5.944 5.944 0 0 0-1.007-1.82c-1.18-1.466-2.93-2.274-4.93-2.274-.68 0-1.41.056-2.052.106-.175.014-.343.028-.493.038l-.048-.007a7.941 7.941 0 0 0-.31-.036 28.945 28.945 0 0 0-2.51-.11c-2.877 0-5.747.437-9.014 1.376h-.024c-.42 0-1.115-.095-1.788-.186-.99-.135-2.111-.287-3.281-.287-1.377 0-2.586.212-3.686.646-.88.21-4.031.656-6.308.656-.186 0-.336-.003-.458-.008-.105-.085-.22-.186-.324-.28.53-1.54.484-3.136-.14-4.773-.541-1.416-.541-1.416-4.923-4.98-1.007-.82-2.385-1.941-2.63-2.152-1.641-1.435-3.648-1.62-5.213-1.62-.62 0-1.237.032-1.768.062l-.491-.2c-1.743-.717-4.375-1.8-7.267-1.8-1.472 0-2.858.28-4.121.832-1.883.823-2.647 1.015-2.921 1.058-.2-.005-.498-.028-.785-.057a5.509 5.509 0 0 0-2.89-.815c-1.997 0-3.344 1.025-4.073 1.585-.627.259-1.396.622-2.14 1.034a10.173 10.173 0 0 0-1.514-.128c-.928 0-1.798.174-2.585.519-.853.372-1.827.703-2.86 1.054l-.68.232-.277.022c-1.498.123-3.457.284-5.037 1.607-.23.055-.508.115-.721.16-1.225.264-2.811.606-4.281 1.5a6.441 6.441 0 0 0-1.187-1.405 6.298 6.298 0 0 0-.263-1.154c.555-2.655-.047-4.75-1.791-6.274a5.539 5.539 0 0 0-3.627-1.361c-2.851 0-4.324 1.952-5.123 3.028-1.205 1.268-1.74 2.735-2.142 3.838-.102.283-.25.69-.351.903-.02.016-.037.034-.056.05-.173.046-.36.1-.56.169-.953 0-1.985.069-3.078.546-3.536 1.546-4.663 4.639-5.205 6.125-.062.17-.142.389-.201.534l-.225.287a5.449 5.449 0 0 0-.966 1.899l-.01.03a5.587 5.587 0 0 0-1.484 1.694c-.671 1.172-1.025 2.102-1.337 2.922l-.032.082c-.552 1.45-.5 2.753-.461 3.478-.183.686-.338 1.377-.49 2.05-.356 1.579-.795 3.527-1.447 4.364l-.254.219C2.61 100.988.013 103.225 0 106.519a5.88 5.88 0 0 0 2.008 4.454 5.787 5.787 0 0 0 3.813 1.415c.783 0 1.503-.145 2.195-.377.419.287.892.548 1.424.77.152.254.326.502.526.739.135 1.267.33 2.563 1.037 3.798.122.213.252.41.387.592a5.6 5.6 0 0 0 .527 1.246c.665 1.163 1.57 1.84 2.443 2.27.349.577.799 1.08 1.323 1.488l-.208.324c-.65 1.003-1.321 2.039-1.82 3.07-1.77 3.662-.53 6.139.473 7.368a5.712 5.712 0 0 0 1.77 2.86c1.062.927 2.2 1.43 3.217 1.726.818 2.448 2.906 4.624 5.965 5.96.76.333 1.58.495 2.507.495 1.319 0 3.517-.353 6.868-.965l.525-.095c.223.04.795.267 1.18.42 1.097.436 2.46.979 4.139.979 1.008 0 1.975-.2 2.877-.594 1.933-.844 3.148-1.358 3.723-1.358.699 0 2.206.493 3.46.93l.344.129c1.528.698 3.103.785 4.193.785l.043.018c.994 2.153 2.695 3.339 3.605 3.974.114.08.257.179.363.257.85 1.34 2.633 3.456 4.688 5.023.758 2.095 2.52 2.984 2.979 3.185.85.372 1.737.56 2.635.56.562 0 1.106-.071 1.63-.213a6.125 6.125 0 0 0 5.129-1.275 6.596 6.596 0 0 0 2.826.503c.85.494 1.973.933 3.34.933.848 0 1.67-.17 2.444-.508a5.68 5.68 0 0 0 1.016-.58c.519.064 1.095.115 1.697.115.894 0 1.703-.11 2.476-.334.31-.092.612-.206.9-.345.53.079 1.146.154 1.825.154a8.14 8.14 0 0 0 1.627-.16l-.035.09c-.362.95-.458 1.873-.44 2.73l-.058.05c-2.895 2.532-2.732 6.57-2.624 9.243.01.249.02.466.02.634v.04c-.645 6.513.116 12.03 2.326 16.859.107.235.23.462.37.678.998 2.289 2.885 3.416 3.882 4.01l.16.097c.057.088.117.173.178.258.148.322.309.622.479.9-.502.34-.99.675-1.381.949-3.177 2.222-4.74 3.5-5.347 5.617a5.531 5.531 0 0 0 .513 4.308c1.478 2.582 4.104 3.06 5.477 3.2 3.81 3.424 4.834 4.982 4.998 5.688.056.24.132.498.22.729l.276.72c.02.058.045.115.069.173.556 1.322 1.045 2.842 1.563 4.45 1.486 4.618 3.17 9.85 7.466 13.606.22.194.456.368.704.523l.273.17c.935.75 1.93 1.177 2.753 1.455a5.588 5.588 0 0 0 2.34 1.942 9.532 9.532 0 0 0 3.84.812c3.354 0 5.833-1.715 7.472-2.851.273-.188.64-.443.806-.538.103-.042.229-.087.369-.133a5.83 5.83 0 0 0 2.322 1.832 5.772 5.772 0 0 0 2.332.489c2.069 0 3.489-.988 4.41-1.974a7.146 7.146 0 0 0 1.849-.512c.803-.35 2.274-1.21 3.118-3.014a22.059 22.059 0 0 0 1.577-1.078 5.907 5.907 0 0 0 3.073-.461c1.406-.615 2.395-1.5 3.117-2.147.09-.08.193-.173.29-.257a5.472 5.472 0 0 0 1.446-.437c.488.12 1.023.2 1.609.2a5.93 5.93 0 0 0 3.907-1.45c1.896-1.657 2.566-4.043 3.214-6.351.015-.053.03-.111.048-.171.63-.177 1.314-.364 1.87-.514 4.317-1.174 6.287-1.747 7.755-3.03 1.68-1.47 2.487-3.628 2.156-5.774-.584-3.788-4.278-5.676-5.396-6.165-1.348-.59-2.704-.89-4.026-.89-.484 0-.941.042-1.367.11-.311-2.068-1.41-3.606-2.438-4.661a5.379 5.379 0 0 0-1.084-2.416c.12-.548.209-1.307.083-2.156a6.076 6.076 0 0 0 .182-1.956 5.822 5.822 0 0 0 1.905-.748c2.093.126 5.45.402 7.278.572 2.323 3.482 4.816 5.244 7.426 5.244.97 0 1.915-.238 2.757-.685.846-.281 2.508-.918 3.544-2.73.644-1.124.91-2.417 1.096-4.167a8.005 8.005 0 0 0 1.57-1.258c.484.003.986.016 1.462.033a59.627 59.627 0 0 1-.186-5.486" mask="url(#b)"/>
        <path fill="#626262" d="M61.117 59.366h-.001c-1.507.001-4.521.798-6.006 2.096a6.34 6.34 0 0 0-.17.153c-2.733.988-3.615 3.111-3.898 4.44l-.108.228c-1.332 2.88-1.347 5.261-.052 7.1.235.811.724 2.012 1.897 3.038 1.229 1.073 3.116 1.767 4.809 1.767.956 0 1.885-.218 2.71-.634.288-.093.9-.25 1.283-.347 1.748-.446 3.257-.83 4.53-1.945 2.356-2.058 2.443-5.155 1.632-7.773.167-1.325.249-3.899-1.846-5.852l-.006-.005c-.383-.403-1.182-1.242-2.424-1.785a5.84 5.84 0 0 0-2.35-.48m0 5.477c.066 0 .12.007.156.023.329.144.66.576.868.76.56.49-.197 2.124.092 2.755.21.46.805 2.293.275 2.756-.563.492-3.723.971-4.662 1.518a.525.525 0 0 1-.258.055c-.407 0-1.022-.255-1.204-.414-.418-.366-.21-1.343-.914-1.957-.457-.4.914-2.384.914-3.077.029-.818 1.398-.458 1.828-.959.192-.223.24-.49.503-.718.217-.19 1.819-.742 2.402-.742" mask="url(#b)"/>
    </g>
</svg>
