<svg xmlns="http://www.w3.org/2000/svg" xmlns:xlink="http://www.w3.org/1999/xlink" width="235" height="236" viewBox="0 0 235 236">
    <defs>
        <path id="a" d="M.556.073h118.98v117.83H.555z"/>
        <path id="c" d="M0 236h235V0H0z"/>
    </defs>
    <g fill="none" fill-rule="evenodd">
        <g transform="translate(97)">
            <mask id="b" fill="#fff">
                <use xlink:href="#a"/>
            </mask>
            <path fill="#626262" d="M39.03 41.839v-3.675H27.605v8.778c3.195-3.28 6.94-4.965 11.425-5.103zm5.199 10.915c-1.377-2.218-2.676-4.193-3.836-6.246-.348-.613-.643-.842-1.334-.842-5.087-.002-9.667 3.378-11.047 8.249-.281.997-.376 2.044-.57 3.144 3.11 0 5.988.153 8.843-.04 3.342-.226 6.047-1.827 7.944-4.265zM27.709 34.26c3.992 0 7.895.013 11.798-.03.27-.003.663-.382.788-.675 1.91-4.436 5.077-7.607 9.583-9.431.672-.271.805-.624.54-1.271-3.237 0-6.426-.03-9.615.008-3.778.045-6.988 1.464-9.588 4.169-1.917 1.992-3.121 4.354-3.506 7.23zm-4.053-7.843c.078-5.117-3.906-10.128-9.151-10.866-3.207-.452-6.515-.204-9.777-.263-.056-.001-.113.096-.17.148-.078 5.16 3.904 10.197 9.154 10.9 3.234.434 6.576.081 9.944.081zm3.92 53.507c2.657 0 5.24.023 7.825-.005 2.555-.028 4.864-.832 6.86-2.407 2.874-2.266 4.336-5.238 4.455-8.93-3.104 0-6.113-.262-9.06.057-5.83.63-10.17 5.585-10.08 11.285zm-3.918-7.829c.077-5.186-3.959-10.186-9.272-10.905-3.174-.43-6.437-.191-9.66-.245-.057 0-.114.098-.169.15-.079 5.21 3.96 10.24 9.272 10.925 3.203.41 6.5.075 9.829.075zm-.076-22.499c.462-5.028-3.744-10.416-8.984-11.206-3.273-.492-6.65-.31-9.965-.43-.455 5.034 3.756 10.427 8.982 11.206 3.275.49 6.651.31 9.967.43zm46.993 64.509h32.832c-1.138-2.906-2.1-5.759-3.369-8.47-.88-1.878-2.666-2.843-4.78-2.862a965.385 965.385 0 0 0-16.535.002c-2.162.019-3.95 1.022-4.842 2.96-1.237 2.682-2.186 5.497-3.306 8.37zm-20.855.01c-1.162-2.935-2.137-5.826-3.443-8.559-.919-1.92-2.776-2.788-4.942-2.794-5.352-.015-10.703-.016-16.055-.002-2.535.006-4.534 1.358-5.472 3.7-.735 1.837-1.41 3.698-2.112 5.549-.256.68-.504 1.365-.778 2.105H49.72zM38.443 98.947c.824 0 1.542.001 2.259 0 4.896-.004 8.152 2.22 9.887 6.767.946 2.478 1.916 4.95 2.808 7.448.265.741.584 1.042 1.428 1.028 3.554-.054 7.111-.047 10.667 0 .777.009 1.108-.253 1.36-.955.924-2.57 1.901-5.124 2.882-7.674 1.663-4.328 4.997-6.606 9.64-6.614h2.561c-1.102-2.438-2.814-3.768-5.274-3.779-11.028-.05-22.056-.036-33.083-.01-2.338.006-4.291 1.477-5.135 3.79zM83.152 94v-1.714c0-12.006.008-24.014-.003-36.02-.006-6.492 2.714-11.519 8.165-15.1.918-.603 1.828-1.217 2.785-1.856l-2.223-4.38-12.562 6.204c0-3.027.017-5.798-.018-8.568-.004-.38-.139-.942-.405-1.099-1.046-.618-2.17-1.11-3.477-1.754v22.183l-.356.196-14.919-14.813-2.942 2.745c.313.326.604.643.91.945 3.952 3.923 7.891 7.864 11.868 11.764 3.715 3.644 5.549 8.011 5.519 13.208-.05 8.004-.013 16.008-.013 24.012v1.378c2.88-.13 5.367.636 7.67 2.67zM50.549 64.945v2.919c-.002 9.27-6.647 15.864-15.984 15.865h-6.96v15.22c1.502 0 2.95-.14 4.359.036 1.63.201 2.38-.465 3.026-1.876 1.804-3.927 4.99-5.79 9.346-5.778 8.628.023 17.254.008 25.882.008h1.425c0-4.537.018-8.893-.032-13.248-.004-.374-.382-.83-.71-1.101-1.847-1.529-3.253-3.362-4.112-5.6-.15-.392-.324-.778-.479-1.14-.652.059-1.205.134-1.76.153-7.713.248-13.89-5.637-14.023-13.313-.007-.397-.193-.964-.489-1.146-.764-.477-1.638-.782-2.296-1.079-1.469 1.252-2.763 2.567-4.262 3.58-2.533 1.704-5.404 2.486-8.488 2.46-2.46-.02-4.92-.004-7.46-.004v8.878c3.428-3.04 5.83-4.62 8.8-4.771 4.684-.238 9.392-.063 14.217-.063zm21.096 7.242c0-2.378-.019-4.425.003-6.472.047-3.974-1.376-7.32-4.222-10.12-4.965-4.883-9.894-9.8-14.836-14.706-.3-.297-.585-.607-.761-.79l8.481-8.414c3.66 3.64 7.393 7.353 11.331 11.266v-19.17c.211 0 .302-.028.364.004 3.537 1.74 7.079 3.473 10.592 5.26.286.144.517.663.531 1.016.057 1.573.024 3.15.024 4.921l10.45-5.165c1.846 3.669 3.636 7.222 5.44 10.803-2.006 1.332-3.901 2.577-5.786 3.84-4.189 2.81-6.28 6.722-6.27 11.745.008 4.875.003 9.748.003 14.622v1.312c1.808-2.159 1.794-4.561 2.19-6.963 4.1 1.912 8.028 2.168 11.586-.78 3.534-2.926 4.11-6.768 2.91-11.029 7.074-1.487 11.659-5.453 11.979-12.674.354-7.986-4.334-12.418-11.998-14.165 1.265-4.318.584-8.127-2.965-11.039-3.561-2.92-7.493-2.585-11.548-.729-.095-.776-.19-1.358-.237-1.944-.408-5.138-4.472-8.974-9.532-8.99-5.144-.014-9.228 3.799-9.65 8.994-.048.606-.167 1.21-.276 1.968-4.127-1.964-8.05-2.17-11.601.78-3.53 2.93-4.079 6.78-2.891 11.02-6.946 1.44-11.51 5.302-11.959 12.339-.52 8.144 4.174 12.703 11.974 14.494-1.246 4.342-.57 8.15 2.994 11.053 3.563 2.904 7.491 2.563 11.541.71.265 2.49.412 4.804 2.14 7.003zM23.672 62.17v-8.88c-.52 0-1.021.02-1.519-.002-3.263-.144-6.606.105-9.77-.53C5.57 51.393.741 45.118.684 38.221c-.011-1.263-.001-2.527-.001-3.9.441-.021.823-.054 1.207-.054 3.235-.004 6.473.029 9.708-.01 4.51-.056 8.352 1.47 11.545 4.62.11.108.236.196.464.385v-8.801c-2.522 0-5.025.006-7.531-.002-7.297-.027-13.606-5.01-15.03-12.09-.44-2.19-.348-4.486-.49-6.594.225-.201.284-.299.342-.299 4.589.052 9.21-.217 13.758.248 6.388.654 11.67 6.132 12.646 12.41.054.345.131.688.175.922 1.713-1.282 3.331-2.687 5.134-3.797 2.521-1.551 5.357-2.215 8.336-2.215 3.076 0 6.155-.016 9.23.012.638.007.962-.143 1.223-.79 2.466-6.171 7.954-9.358 14.655-8.57.073.009.152-.026.252-.042 2.344-6.213 6.747-9.805 13.565-9.57C86.142.3 90.168 3.84 92.215 9.411c2.017.194 3.993.16 5.852.61 5.875 1.419 9.974 6.702 9.998 12.685.002.833.247 1.202 1.03 1.56 6.746 3.066 10.425 8.328 10.44 15.675.014 7.35-3.66 12.61-10.38 15.728-.645.301-1.092.498-1.1 1.393-.073 8.29-7.054 14.247-15.38 13.19-.112-.013-.232.014-.425.028-.894 2.815-2.503 5.165-4.874 7.003-.229.176-.37.6-.372.91-.02 6.54-.015 13.08-.015 19.618v1.065c.374.025.713.068 1.054.068 2.397.007 4.798-.063 7.191.02 3.891.136 6.839 1.952 8.467 5.445 1.317 2.832 2.328 5.807 3.39 8.748.3.827.714 1.081 1.55 1.027 1.032-.066 2.07-.017 3.192-.017v3.735H8.413v-3.735c1.139 0 2.28-.042 3.419.015.71.036 1.055-.195 1.298-.874.862-2.423 1.791-4.826 2.699-7.234 1.547-4.105 3.51-5.891 7.787-7.052V76.121c-2.452 0-4.913-.018-7.373.005-2.571.023-5.02-.505-7.258-1.73C3.739 71.525.942 67.094.69 61.134c-.055-1.298-.008-2.6-.008-3.972.434-.026.78-.065 1.127-.065 3.475-.004 6.951-.022 10.427.004 4.057.03 7.544 1.495 10.512 4.214.254.231.503.466.923.855z" mask="url(#b)"/>
        </g>
        <mask id="d" fill="#fff">
            <use xlink:href="#c"/>
        </mask>
        <path fill="#626262" d="M211 118h4v-4h-4zM97 118h4v-4h-4zM154 112h4v-4h-4zM160 103h4v-4h-4zM151 103h4v-4h-4zM135 112h4v-4h-4zM122 112h4v-4h-4zM183 112h4v-4h-4zM174 112h4v-4h-4z" mask="url(#d)"/>
        <path fill="#626262" d="M34.034 95.01c.192.212.387.422.588.63.12.733.347 1.676.9 2.64.38.66.82 1.18 1.23 1.586a7.534 7.534 0 0 0 .587 2.853c-.257.157-.506.325-.745.501a8.176 8.176 0 0 0-.806-.041l-.115.001a5.683 5.683 0 0 0-1.858-3.268 5.347 5.347 0 0 0-2.247-1.189 5.837 5.837 0 0 0-.2-.653c.06-.15.114-.299.162-.445.55-.546 1.08-1.155 1.542-1.77a6.13 6.13 0 0 0 .962-.845m200.691 22.777a5.754 5.754 0 0 0-3.193-3.571 6.363 6.363 0 0 0-.197-.178c-1.272-1.108-2.698-1.693-3.74-2.122-.223-.091-.542-.223-.716-.306-1.152-.919-2.565-1.403-4.104-1.403-1.221 0-2.338.311-3.334.699a5.886 5.886 0 0 0-2.002-1.62 5.94 5.94 0 0 0 1.26-2.008 5.818 5.818 0 0 0-.399-4.992c-2.067-3.601-4.949-4.375-6.497-4.787-.457-.124-.703-.193-.861-.284-1-.58-2.137-.876-3.38-.876l-.117.001c-.8-.985-2.03-2.152-3.918-2.747a5.518 5.518 0 0 0-3.594-.46 6.263 6.263 0 0 0-2.523-.033 6.334 6.334 0 0 0-3.397-1.118 6.026 6.026 0 0 0-2.002-.61c2.59-1.442 3.343-4.077 2.904-6.175-.94-4.475-5.614-4.935-9.371-5.305-.554-.054-1.119-.104-1.664-.149.403 2.013-.46 3.453-1.991 4.596.099.26.183.527.267.795 3.022.205 8.813.724 7.018 1.505-.507.222-1.597.267-2.943.267-.944 0-2.014-.022-3.102-.022-.185 0-.37.003-.554.004.366 2.062.34 4.37-.162 6.96.051.007.101.026.154.026.649 0 1.357-.516 1.934-.516.6 0 1.06.557 1.17 2.832v.4c1.83 0-1.09 4.27.184 5.38a.561.561 0 0 0 .372.148c1.206 0 2.837-4.008 3.368-4.008.014 0 .027 0 .04.006.604.263-.586 3.116.184 3.452a.705.705 0 0 0 .28.067c1.116 0-.21-4.231.919-4.722a.788.788 0 0 1 .312-.079c.527 0 .334.936.7 1.042.126.035.24.052.348.052.583 0 .947-.449 1.43-.449.107 0 .22.023.342.076.31.135.3.889.555.963.067.02.168.026.283.026.182 0 .406-.015.607-.015.317 0 .583.037.583.23 0 .57-1.243 2.047-.83 2.409.04.033.08.048.122.048.364 0 .87-1.097 1.331-1.097.07 0 .14.025.207.084.242.212-.157 1.091 0 1.365.08.139.155.2.225.2.499 0 .76-3.134 1.157-3.25a.71.71 0 0 1 .2-.029c.545 0 1.08.59 1.637.59.272 0 .55-.141.837-.56l.46.24c1.894.33 2.143 2.578 3.596 3.21.149.064.328.09.524.09.587 0 1.333-.217 1.918-.217.231 0 .438.033.6.128 2.21 1.283 3.89.517 5.345 3.048.626 1.091-4.615 1.789-4.885 2.73-.582 2.023 2.854 3.61 4.239 4.816.305.264.054 1.09.461 1.444.115.1.304.123.52.123.18 0 .378-.016.568-.016.434 0 .822.082.847.615l.185.402c0 1.212.123 1.545.327 1.545.252 0 .624-.498 1.041-.498.125 0 .253.044.384.157.217.19-.26.89.091 1.044.12.05.259.074.41.074 1.308 0 3.686-1.744 5.08-1.744.27 0 .505.067.686.224 1.048.912 3.092 1.248 4.24 2.248.238.208.658.963.922.963 3.082 0-3.412 3.134-3.78 4.094-.27.702-1.886 1.261-2.488 1.524-.455.197-.724.733-1.199 1.044-.663.432-1.84.186-2.58.4-1.967.573-.846 1.152-1.66 2.569-.08.139-.299.155-.53.155h-.205c-.387 0-.707.043-.37.648l.092.482c-.366.238-.922.641-1.198.882-.405.353 3.112 7.124 3.687 7.625.047.04.135.056.243.056.321 0 .821-.137.955-.137.042 0 .536-1.512 1.108-1.512.12 0 .243.067.366.228.516.673.489.458-.368 1.204-.622.542-.856 1.377-1.752 1.766a.812.812 0 0 1-.312.05c-.322 0-.735-.094-1.07-.094-.188 0-.354.03-.462.124-.508.443-.07 1.436-.828 1.767a1.575 1.575 0 0 1-.626.134c-1.13 0-2.002-1.295-3.068-1.295a1.37 1.37 0 0 0-.547.116c-.468.205-.507.763-.922.884-.89.258-3.023-.03-3.502.803-.187.327-.329 1.41-.553 1.604-1.1.959-1.925.25-.185 1.766.345.3-.846.467-.645.643.257.221.58.27.906.27.249 0 .497-.03.716-.03.508 0 .842.157.59 1.203l.093.402c-.632 2.755-4.736 3.27-4.332 6.42v.402c.566.82.619 1.33 1.845 1.685.294.086.348 1.849.921 2.248.96.668 3.481 1.65 4.055 2.65.618 1.076 1.87 2.187 2.857 3.048.8.696 2.133.22 3.134 1.525.989 1.29-2.38 4.368-3.41 4.817-1.774.77-2.587 3.132-3.873 3.69a1.322 1.322 0 0 1-.541.117c-.947 0-1.705-1.03-2.63-1.03-.165 0-.338.034-.513.11-.823.36-.848 1.493-1.476 1.768-.247.107-.579.124-.93.124-.168 0-.34-.005-.51-.005-.484 0-.948.034-1.232.281-.517.45.116 1.47-.461 1.846-2.178 1.423-6.383 1.772-9.125 2.247l-.553-.16c-.468 0-2.317-.115-3.964-.115-1.344 0-2.551.077-2.765.356-.5.652-.903 1.477-1.751 1.846a.735.735 0 0 1-.278.043c-.371 0-.914-.132-1.294-.132-.16 0-.288.023-.364.09-.246.212-.303 5.099-.83 6.019-.112.194-1.065.365-1.29.561a.394.394 0 0 1-.27.098c-1.096 0-3.428-3.65-3.693-4.11-.207-.361-1.415-.672-1.752-.964-.082-.071-8.895-.835-10.929-.835-.23 0-.374.01-.407.033-.145.094-.792.89-1.062.89a.11.11 0 0 1-.044-.008c-.623-.27-.915-2.802-1.66-3.451-.236-.205-.662-.274-1.181-.274-1.036 0-2.443.272-3.434.272-.285 0-.532-.02-.73-.078-1.657-.482-3.287-1.8-4.978-2.167a1.873 1.873 0 0 0-.41-.045c-.5 0-.939.19-1.34.366-2.696 1.175.872 3.603 2.12 4.976l.275.401c0 2.607 1.836 1.87 3.871 3.05 1.17.678 1.937 1.526 2.857 2.326.73.636-.422 1.333-.737 1.606-.619.54 1.019.87.83 1.366-.393 1.025-.49 2.733-.093 3.772.187.487.65.604 1.106.802.232.1-.26 1.378.094 1.685.62.54 2.396 1.601 2.396 3.211 0 1.094-.696 1.293-1.199 2.168-.85 1.48 3.446 2.899 4.24 3.13.124.034.244.05.362.05.986 0 1.802-1.125 3.412-1.125.522 0 1.128.119 1.847.432.648.28 3.121 1.698 1.844 2.81-1.012.883-8.048 2.34-10.046 3.209-1.134.494-1.606 5.734-2.95 6.903a.452.452 0 0 1-.305.098c-.707 0-2.062-.963-3.026-.963-.46 0-.83.218-1 .865l.092.402c-2.154 0-3.204 2.117-4.793 2.809a.497.497 0 0 1-.19.041c-.523 0-.865-.956-1.305-.956a.387.387 0 0 0-.255.111c-.195.17-3.28 2.552-3.505 2.649a.49.49 0 0 1-.196.034c-.323 0-.812-.175-1.214-.175a.864.864 0 0 0-.34.06c-.947.413.262 2.334-.83 2.81-.585.254-2.365.133-2.765.481-.322.282-.798 1.555-1.334 1.555a.374.374 0 0 1-.141-.029c-.55-.24.25-1.16-.091-1.605-.258-.336-1.855-1.434-2.85-1.434a.937.937 0 0 0-.376.069c-1.124.488-2.633.744-3.872 1.283-1.574.685-3.622 2.922-6.083 2.922a4.104 4.104 0 0 1-1.659-.353c-.118-.053.075-.59 0-.722-.729-1.27-3.047-1.06-4.055-2.087l-.647-.402c-4.472-3.895-5.386-10.777-7.65-16.131l-.276-.722c-.754-3.283-4.788-6.898-7.741-9.47-.82-.715-2.978-.21-3.411-.963-.292-.51 6.212-4.752 6.635-4.978l.37-.401c3.687-3.211-.72-4.035-1.198-6.661l-.37-.322c-.866-1.888-3.405-1.885-3.779-3.772l-.275-.32c-2.034-4.426-2.389-9.22-1.844-14.367v-.32c0-1.3-.388-4.799.737-5.78.49-.426 1.52-.36 2.029-.802.613-.535-.358-3.24 0-4.175.643-1.678 2.474-1.356 3.87-2.167.513-.297.253-1.191.184-1.524l-.184-.481c-1.214-2.644-3.516-4.152-6.248-4.152-1.118 0-2.307.25-3.522.78-.254.111-.55.151-.868.151-.869 0-1.912-.301-2.78-.301-.32 0-.615.04-.867.15-.268.117-.346.476-.647.563-.29.083-.61.115-.951.115-1.087 0-2.367-.325-3.455-.325-.448 0-.86.055-1.215.21-.446.193.088.884-.276 1.042a.629.629 0 0 1-.253.051c-.652 0-1.406-.891-1.684-1.014a1.177 1.177 0 0 0-.46-.08c-.462 0-1.014.16-1.476.16-.168 0-.325-.02-.46-.08-.586-.254-1.407-.784-2.216-.784-.153 0-.306.018-.458.062-1.117.325-2.272.936-2.948 1.526a.637.637 0 0 1-.43.177c-.518 0-1.003-.682-1.527-.682a.614.614 0 0 0-.165.022c-.324.096-.6.745-1.212.745-.131 0-.279-.03-.446-.103-.222-.096.308-1.435-.276-1.605-1.52-.44-4.277-3.273-5.07-4.655-1.012-1.764-3.336-2.002-3.78-4.093.04-.165-.242-.697-.413-.773-.068-.028-.53-.753-.725-.923-.032-.025-.09-.032-.156-.032-.052 0-.107.004-.156.004a.366.366 0 0 1-.104-.01c-.134-.048-.213-.153-.323-.211-.205-.108-.493-.114-.714-.191-.354-.124-.48-.498-1.003-.512-.316 0-.774.026-1.269.026-.722 0-1.517-.058-2.049-.348l-.645-.24c-2.448-.852-3.981-1.262-5.37-1.262-1.72 0-3.22.628-5.967 1.824a1.707 1.707 0 0 1-.69.136c-1.417 0-3.225-1.411-5.396-1.411-.27 0-.547.022-.827.071-.993.173-5.308.999-6.595.999a.933.933 0 0 1-.318-.036c-1.19-.519-3.694-2.068-2.948-4.013.068-.177.693-.157.461-.562-1.098-1.911-3.835-.93-5.347-2.247-.33-.287.434-.274.553-.481.237-.413.017-.981-.277-1.366-.174-.229-1.107-.08-1.382-.32-1.105-.961 3.502-5.922 3.502-7.625 0-1.003-1.233-3.307-2.396-4.013l-.46-.08c-.272-.588-.363-1.401-1.015-1.686-.176-.077-1.29-.32-1.383-.482-.136-.238.214-1.019 0-1.203-.223-.194-.727-.304-.921-.643-.446-.777-.35-3.626-.829-4.252-.185-.242-.83-.193-.83-.483 0-.638.841-.053.46-1.044-.606-1.585-4.332.399-4.332-3.611 0-.117-.069-.167-.19-.167-.742 0-3.416 1.834-4.3 1.834-.09 0-.162-.019-.21-.062-.893-.777 2.862-3.597 3.318-4.092 2.242-2.444 2.59-6.375 3.41-9.23.25-.87-.114-1.788.184-2.57.294-.763.535-1.41 1.014-2.246.119-.205 1.037-.29 1.2-.642.346-.758.631-1.63.828-2.328l.507-.641c1.007-1.534.943-3.782 3.041-4.695.171-.076.528-.09.907-.09.227 0 .463.006.673.006.334 0 .605-.014.68-.079.4-.348 1.183-.334 1.705-.56.627-.273.932-.733 1.383-1.123 1.655-1.442 1.696-4.087 2.81-5.057.129-.113.857-1.212 1.039-1.212a.03.03 0 0 1 .02.008c.433.374-.223 1.95-.367 2.326-.26.678.397 1.119.553 1.526.189.494-.19 1.153 0 1.645.135.354.893.637.946 1.365.019.298.715.403.897.561.69.601.646 2.732.968 3.571.202.529.69.673.69 1.406 0 .262.184.764.139.842-.253.44-.421 1.011-.645 1.524l-.138.203c.032.067.085.355.138.4.284.248 2.317.38 1.752 1.365-.156.268-.643.217-.875.521-.19.246.05.78-.278.923-.272.118-1.725.358-1.842.563-.174.301-.102.714-.324 1.003-.191.25-.74.366-.876.6-.418.73-1.211 1.658-1.89 2.249-.173.15-.683.266-.782.441-.261.454.02 1.09-.23 1.526-.223.386-1.358.395-1.614.842-.295.514.69 1.744.69 2.287 0 .039-.025.39 0 .402.371.161.983.013.923.601v.241c0 2.734.742.971.855 2.89.076 1.248.217 2.71.685 2.71.193 0 .442-.247.765-.863.142-.276-.074-1.061.091-1.204.039-.035.17-.048.341-.048.452 0 1.184.09 1.227.126.29.255-.553.605-.553.963 0 1.04-.153 3.24.644 3.935.08.068.22.092.393.092.379 0 .914-.114 1.302-.114.187 0 .337.026.426.1.178.157.486.819.76.819a.162.162 0 0 0 .068-.016c.822-.356 1.39-.858 2.305-1.124a.964.964 0 0 1 .264-.028c.703 0 2.08.401 2.59.401.101 0 .168-.013.188-.052.427-.743 1.558-1.735 2.489-2.006 1.016-.294 2.51-3.751 2.304-4.654-.205-.892-1.524-1.824-.922-3.21l-.091-.724c-.31-.403-.126-.964-.369-1.282-.51-.667-1.284-.954-1.66-1.606-.465-.811-.127-2.278-.92-2.971-1.63-1.418-3.32-3.773-4.334-5.537-.198-.345.954-1.097.737-1.285-.114-.099-1.335-.843-1.197-.963 1.13-.985 2.05-2.588 3.226-3.611 1.41-1.227 4.938-.952 5.99-2.328.32-.417 2.686-.374 3.227-.561 1.499-.521 3.001-.985 4.423-1.605.1-.044.235-.06.395-.06.662 0 1.749.298 2.478.298.273 0 .497-.043.63-.159.51-.444 2.147-1.293 3.042-1.605.51-.177 1.349-1.039 1.644-1.039.068 0 .108.047.108.157 0 .48 2.765.722 3.687.722 1.565 0 4.059-1.085 5.07-1.525.611-.267 1.27-.376 1.942-.376 2.449 0 5.104 1.43 6.536 1.901l.369.16c.534 0 1.7-.114 2.704-.114.736 0 1.383.062 1.63.275.587.513 6.05 4.897 6.082 4.977.946 2.472-3.771 3.138-1.291 5.296.211.183.43.908.554.963a.9.9 0 0 0 .35.054c.242 0 .528-.043.789-.043.157 0 .307.017.427.07.574.25 1.367 1.357 2.857 2.006.46.2 1.338.28 2.404.28 2.976 0 7.415-.622 8.288-1.002.52-.226 1.13-.307 1.791-.307 1.609 0 3.516.476 5.112.476.502 0 .971-.046 1.392-.169 2.508-.729 4.991-1.213 7.725-1.213.666 0 1.345.027 2.045.09l.553.079c.113 0 .272-.01.422-.018-.17-1.667-.138-3.51.086-5.518l-.217.018-.047-.007a4.71 4.71 0 0 0-.312-.037 29.526 29.526 0 0 0-2.53-.11c-2.904 0-5.798.439-9.093 1.383h-.024c-.424 0-1.125-.097-1.803-.187-.997-.137-2.13-.29-3.309-.29-1.388 0-2.608.212-3.719.65-.886.21-4.064.659-6.36.659-.186 0-.338-.004-.461-.008a9.663 9.663 0 0 1-.328-.281c.534-1.548.488-3.152-.14-4.796-.546-1.422-.546-1.422-4.966-5.003-1.014-.823-2.404-1.95-2.652-2.161-1.655-1.442-3.68-1.629-5.255-1.629-.626 0-1.249.032-1.784.063a77.377 77.377 0 0 1-.496-.2c-1.758-.721-4.412-1.81-7.327-1.81-1.485 0-2.884.283-4.157.837-1.899.827-2.67 1.02-2.947 1.062a11.41 11.41 0 0 1-.791-.058 5.576 5.576 0 0 0-2.914-.818c-2.013 0-3.373 1.03-4.108 1.593a22.15 22.15 0 0 0-2.157 1.038 10.379 10.379 0 0 0-1.529-.128 6.5 6.5 0 0 0-2.607.522c-.859.373-1.842.705-2.882 1.058-.229.078-.458.155-.686.234-.088.006-.182.013-.28.022-1.51.123-3.486.286-5.08 1.615-.23.055-.512.115-.727.16-1.235.265-2.835.609-4.317 1.508a6.5 6.5 0 0 0-1.197-1.413 6.46 6.46 0 0 0-.265-1.16c.56-2.665-.047-4.77-1.806-6.303A5.604 5.604 0 0 0 28.36 66c-2.875 0-4.364 1.962-5.167 3.043-1.214 1.274-1.754 2.746-2.16 3.856-.104.285-.253.692-.355.907-.02.016-.037.033-.057.05-.174.046-.364.1-.563.17-.961 0-2.002.068-3.106.549-3.564 1.551-4.702 4.659-5.249 6.152-.063.172-.142.392-.201.537l-.228.29a5.47 5.47 0 0 0-.974 1.906c-.002.01-.007.02-.01.032-.53.4-1.064.946-1.496 1.699-.678 1.179-1.035 2.113-1.35 2.937l-.031.084c-.558 1.454-.504 2.763-.466 3.492-.183.69-.34 1.384-.494 2.06-.358 1.586-.8 3.544-1.458 4.383-.073.064-.162.139-.257.22C2.633 100.174.012 102.422 0 105.73a5.904 5.904 0 0 0 2.026 4.475 5.848 5.848 0 0 0 3.846 1.42c.79 0 1.516-.145 2.213-.377.423.288.9.55 1.436.773.152.256.328.503.53.743.137 1.273.335 2.575 1.047 3.816.122.213.253.411.389.594.117.404.288.827.533 1.25.67 1.17 1.583 1.852 2.463 2.283.352.58.807 1.085 1.335 1.495l-.212.325c-.653 1.007-1.331 2.048-1.834 3.085-1.784 3.679-.534 6.167.476 7.401a5.731 5.731 0 0 0 1.789 2.874c1.067.932 2.215 1.436 3.24 1.734.825 2.46 2.932 4.645 6.016 5.988.768.334 1.595.497 2.53.497 1.33 0 3.546-.355 6.926-.97l.53-.095c.223.04.8.268 1.19.423 1.104.437 2.481.983 4.173.983 1.016 0 1.992-.201 2.901-.597 1.95-.85 3.176-1.364 3.755-1.364.704 0 2.226.494 3.49.934l.346.128c1.541.702 3.128.789 4.228.789l.044.019c1.002 2.162 2.717 3.355 3.635 3.99.116.082.26.182.366.26.858 1.347 2.655 3.472 4.728 5.047.765 2.104 2.542 2.999 3.005 3.2a6.607 6.607 0 0 0 2.657.562 6.27 6.27 0 0 0 1.645-.213c.385.08.805.128 1.259.128 1.417 0 2.8-.5 3.912-1.41.804.337 1.68.509 2.6.509.085 0 .169-.002.25-.003.858.497 1.99.937 3.37.937.855 0 1.685-.172 2.463-.512.343-.148.69-.342 1.024-.58.524.063 1.106.114 1.712.114.902 0 1.718-.11 2.497-.336.314-.09.616-.206.907-.345.536.08 1.157.154 1.84.154.57 0 1.118-.054 1.643-.16-.013.03-.025.06-.036.091-.365.953-.463 1.88-.444 2.743l-.058.05c-2.919 2.542-2.756 6.6-2.647 9.285.01.25.02.468.02.637v.04c-.65 6.543.117 12.086 2.346 16.938.107.236.233.463.374.682 1.005 2.299 2.91 3.43 3.913 4.027.052.03.108.063.163.097.058.088.118.175.18.259.148.324.31.624.482.906-.506.34-.997.677-1.394.952-3.202 2.233-4.779 3.517-5.39 5.643a5.537 5.537 0 0 0 .517 4.328c1.489 2.595 4.139 3.073 5.523 3.217 3.843 3.439 4.873 5.001 5.041 5.713.057.242.133.5.223.732l.276.723c.022.06.045.117.07.175.56 1.327 1.054 2.854 1.576 4.47 1.498 4.64 3.197 9.896 7.53 13.67.224.193.46.37.71.525l.274.17c.944.754 1.948 1.182 2.778 1.463a5.647 5.647 0 0 0 2.36 1.95 9.66 9.66 0 0 0 3.873.815c3.382 0 5.88-1.722 7.534-2.863.275-.188.646-.445.814-.54.103-.044.23-.088.371-.134a5.878 5.878 0 0 0 4.694 2.33c2.085 0 3.517-.99 4.446-1.982a7.305 7.305 0 0 0 1.866-.513c.81-.353 2.292-1.215 3.143-3.03a22.659 22.659 0 0 0 1.592-1.082 5.996 5.996 0 0 0 3.099-.464c1.417-.617 2.415-1.506 3.143-2.156l.291-.258c.507-.08.999-.228 1.461-.44.489.121 1.03.202 1.62.202a5.986 5.986 0 0 0 3.941-1.458c1.913-1.664 2.588-4.062 3.243-6.379.013-.055.03-.113.046-.172a197.57 197.57 0 0 1 1.887-.517c4.352-1.18 6.341-1.755 7.82-3.043 1.696-1.476 2.509-3.647 2.175-5.801-.59-3.807-4.314-5.702-5.44-6.195-1.361-.593-2.728-.891-4.062-.891-.489 0-.949.04-1.38.108-.313-2.077-1.42-3.623-2.458-4.684a5.386 5.386 0 0 0-1.092-2.425c.121-.552.21-1.314.084-2.167.11-.42.181-.876.193-1.369a6.11 6.11 0 0 0-.01-.595 5.928 5.928 0 0 0 1.92-.751c2.11.126 5.498.403 7.34.573 2.343 3.497 4.857 5.268 7.49 5.268.976 0 1.93-.24 2.78-.688.852-.282 2.528-.922 3.574-2.742.649-1.13.92-2.43 1.106-4.187a8.02 8.02 0 0 0 1.584-1.265 71.79 71.79 0 0 1 2.604.079l.286.01a5.54 5.54 0 0 0 2.37.107 65.91 65.91 0 0 1 1.651-.258c3.027-.45 6.797-1.008 9.556-2.81.478-.311 1.09-.81 1.616-1.548a6.271 6.271 0 0 0 1.68-.794 6.847 6.847 0 0 0 4.181-.43c1.897-.823 2.988-2.24 3.784-3.276.144-.185.343-.447.48-.603 1.92-1.014 5.396-3.947 6.281-7.347.524-2.015.13-4.077-1.081-5.66-1.542-2.012-3.448-2.683-4.614-2.972-.403-.37-.835-.788-.995-1.03-1.047-1.823-2.84-2.893-4.41-3.728a7.167 7.167 0 0 0-.389-.871c1.143-1.057 2.407-2.577 2.92-4.812.132-.578.17-1.17.114-1.758.011-.176.015-.35.014-.518a7.071 7.071 0 0 0 1.604.186c.975 0 1.93-.2 2.838-.596a6.263 6.263 0 0 0 2.281-1.692c.132-.046.263-.099.391-.154 1.906-.828 2.904-2.175 3.393-2.846l.014-.011c2.767-2.24 3.158-5.611.975-8.387l-.082-.105c-.955-1.248-2.295-2.06-3.77-2.311l.025-.047.065-.114a7 7 0 0 0 2.409-.986 7.537 7.537 0 0 0 1.14-.917c1.162-.496 2.744-1.294 3.847-2.776.267-.188.619-.423.881-.6 2.242-1.499 5.994-4.011 4.672-8.328" mask="url(#d)"/>
        <path fill="#626262" d="M181.987 85.789c-.061-.195-.122-.39-.193-.578a7.245 7.245 0 0 1-.781.518c.22.012.566.033.974.06M61.02 60c-1.484 0-4.452.805-5.914 2.115-.057.051-.113.102-.166.155-2.69.998-3.559 3.142-3.838 4.481l-.107.231c-1.31 2.907-1.326 5.311-.05 7.166.23.82.712 2.033 1.866 3.067C54.021 78.3 55.88 79 57.546 79a5.8 5.8 0 0 0 2.668-.64c.283-.094.888-.252 1.263-.351 1.72-.45 3.207-.838 4.46-1.963 2.32-2.078 2.406-5.203 1.608-7.846.163-1.338.244-3.937-1.819-5.908l-.005-.006c-.378-.406-1.164-1.252-2.386-1.8A5.609 5.609 0 0 0 61.02 60m0 5.53a.38.38 0 0 1 .154.023c.324.145.65.58.856.766.551.494-.196 2.145.089 2.782.207.463.792 2.314.27 2.783-.554.496-3.665.98-4.59 1.531a.498.498 0 0 1-.253.056c-.4 0-1.006-.257-1.185-.42-.413-.367-.208-1.354-.9-1.973-.45-.404.9-2.407.9-3.105.028-.828 1.376-.463 1.8-.969.19-.226.237-.495.494-.725.215-.194 1.79-.75 2.365-.75" mask="url(#d)"/>
    </g>
</svg>
