<?xml version="1.0" encoding="UTF-8" standalone="no"?>
<svg
   xmlns:dc="http://purl.org/dc/elements/1.1/"
   xmlns:cc="http://creativecommons.org/ns#"
   xmlns:rdf="http://www.w3.org/1999/02/22-rdf-syntax-ns#"
   xmlns:svg="http://www.w3.org/2000/svg"
   xmlns="http://www.w3.org/2000/svg"
   version="1.1"
   id="svg2"
   viewBox="0 0 428.10479 137.84208"
   height="137.84209"
   width="428.1048">
  <defs
     id="defs4" />
  <metadata
     id="metadata7">
    <rdf:RDF>
      <cc:Work
         rdf:about="">
        <dc:format>image/svg+xml</dc:format>
        <dc:type
           rdf:resource="http://purl.org/dc/dcmitype/StillImage" />
        <dc:title></dc:title>
      </cc:Work>
    </rdf:RDF>
  </metadata>
  <g
     transform="translate(-147.4672,-448.9449)"
     id="layer1">
    <path
       id="path4201"
       d="m 151.06748,584.64249 c -13.35609,-13.35909 13.94608,-25.95578 24.96533,-29.29244 17.81099,-1.39137 22.14994,-17.12032 22.884,-32.27803 2.99231,-17.48205 2.68178,-35.7255 7.79445,-52.72828 6.1356,5.48818 16.83868,-5.74426 17.5843,7.34463 -5.61861,19.36367 -3.78676,40.29089 -11.4582,59.26288 -5.0377,14.92559 25.23023,5.10874 27.84902,-3.86613 3.97746,-5.87028 1.69053,-31.09551 13.34258,-18.97515 -0.0624,13.62738 -5.0636,27.34025 -8.36111,40.66629 -2.05858,10.38342 -17.14449,0.59671 -8.18883,-7.90158 -11.79078,5.48531 -32.13567,-0.0113 -39.72425,12.84524 -6.63572,16.48356 -23.30112,29.73027 -41.72092,26.60839 l -1.80769,-0.40967 z m 21.93351,-6.1166 c 8.84121,-1.48292 26.73886,-28.43463 7.50894,-18.31969 -6.72894,3.80874 -34.5148,12.17248 -21.30834,20.34285 4.65133,0.15056 9.41941,-0.39898 13.7994,-2.02316 z m 323.06649,5.87021 c -17.49662,-8.1956 -25.30131,-33.6693 -11.61739,-48.5203 11.13601,-9.19819 28.9881,-6.65108 30.21541,-26.7815 2.11726,-12.20411 -0.47057,-24.06866 4.34054,-30.87962 15.79369,6.34873 12.96152,22.07964 8.1397,35.86812 -5.34696,21.65246 -6.72526,44.44347 -14.77316,65.31795 -2.99575,6.22144 -10.37556,9.5752 -16.3051,4.99535 z m 8.93506,-14.2894 c 0.21666,-10.03699 10.72563,-29.97834 1.81494,-34.46644 -12.56774,1.26901 -25.12455,17.5753 -15.77024,29.35619 3.16367,4.42283 11.75814,18.54971 13.9553,5.11025 z m -94.26763,8.50473 c -6.86086,-13.10314 -3.43879,-29.06294 -3.56376,-43.3873 1.0284,-15.95331 3.5623,-32.27989 12.70737,-45.72809 8.21424,-19.08515 24.20998,-36.34501 45.16484,-40.55114 15.93867,5.81001 -1.96589,28.06458 -6.76255,38.27589 -7.85302,12.64779 -15.86081,25.26204 -25.08336,36.96788 5.81688,4.72559 19.32141,13.89303 16.82843,20.49082 -9.75603,6.67942 -22.70088,-21.86286 -27.81815,-12.53454 -3.9151,15.46369 -6.88198,30.96331 -7.67213,46.99488 -0.13736,2.1615 -3.72092,1.35707 -3.80069,-0.5284 z m 37.19374,-99.99329 c 4.86575,-7.28271 17.24638,-28.6912 0.73432,-14.84723 -9.50867,8.37491 -21.21686,30.11636 -19.70022,37.83878 7.49183,-6.5323 13.70854,-14.58989 18.9659,-22.99155 z m -184.11117,69.65324 c -2.86118,-13.62012 3.65951,-27.93398 4.67223,-41.81912 1.05953,-16.73878 5.0739,-24.24435 13.11453,-37.24478 5.13207,-10.00837 18.45361,-4.47271 10.34846,5.93251 -0.64653,8.85798 -16.34061,32.74046 1.94823,26.61837 12.43601,3.64365 20.96401,25.26468 8.05136,31.97446 -11.36016,8.1762 -24.97932,13.08749 -38.13481,14.53856 z m 26.05385,-17.35052 c 12.65253,-2.1398 9.12838,-24.11887 -2.59997,-11.02733 -6.7134,5.72725 -14.16708,21.37166 2.59997,11.02733 z m 25.27232,7.69216 c -3.23845,-13.40187 4.96718,-27.87945 2.29626,-42.0147 0.92727,-20.60154 13.42147,9.60738 14.25602,8.13895 5.96708,-15.78162 19.35169,2.37853 13.4504,9.65202 -5.71998,5.82107 -9.9104,1.85703 -12.52607,1.45121 -5.42842,7.82325 -1.56243,30.20297 -17.47661,22.77252 z m 147.92383,-2.38856 c -20.64624,-2.27731 -10.90051,-28.19862 0.97989,-35.43801 10.8691,-10.57238 33.4201,-7.22282 29.82249,11.33346 1.76716,16.82204 -16.27875,25.93898 -30.80238,24.10455 z m 12.48191,-9.28157 c 13.95687,-2.4791 11.6191,-34.36751 -2.28841,-18.57927 -6.41493,5.24054 -14.54719,26.76739 2.28841,18.57927 z m 60.25947,8.73083 c -13.81357,-11.1026 1.79362,-29.07396 11.69794,-37.36236 10.07891,-13.51426 30.1524,1.03474 27.57205,14.898 -6.66183,14.22814 -22.68836,27.61429 -39.26999,22.46436 z m 16.94029,-25.95577 c -6.61386,4.56519 -16.19772,22.35334 -0.75994,13.42219 8.83614,-4.35176 18.95999,-24.99514 0.75994,-13.42219 z m -202.10494,23.62682 c -7.9932,-13.55973 1.50294,-38.98652 19.10214,-40.57521 19.76329,-2.94324 14.00996,22.84417 7.59618,32.93528 -6.20953,6.98574 -17.76213,13.89314 -26.69832,7.63993 z m 17.6494,-10.62355 c 8.92107,-6.45461 6.58944,-32.39637 -4.7238,-14.52953 -5.22585,6.92007 -12.38751,28.85375 4.7238,14.52953 z M 252.12418,494.71115 c -7.85221,-16.61759 18.8001,-2.37089 2.84165,2.11131 l -1.446,-0.56924 z m 272.61406,-23.07173 c -9.18616,-14.49243 14.45225,-10.2 5.86363,0.82671 -1.93929,0.45011 -4.24498,0.57338 -5.86363,-0.82671 z"
       style="fill:#be1421;fill-opacity:1;stroke:none;stroke-opacity:1" />
    <text
       transform="scale(0.99993561,1.0000644)"
       id="text4206"
       y="586.74921"
       x="516.66852"
       style="font-style:normal;font-weight:normal;font-size:30.29841995px;line-height:125%;font-family:sans-serif;letter-spacing:0px;word-spacing:0px;fill:#000000;fill-opacity:1;stroke:none;stroke-width:1px;stroke-linecap:butt;stroke-linejoin:miter;stroke-opacity:1"
       xml:space="preserve"><tspan
         style="font-style:normal;font-variant:normal;font-weight:bold;font-stretch:normal;font-size:30.29874992px;line-height:125%;font-family:Arial;-inkscape-font-specification:'Arial, Bold';text-align:start;writing-mode:lr-tb;text-anchor:start;fill:#be1421;fill-opacity:1"
         y="586.74921"
         x="516.66852"
         id="tspan4208">ETV</tspan></text>
    <text
       id="text4229"
       y="341.64792"
       x="280"
       style="font-style:normal;font-weight:normal;font-size:40px;line-height:125%;font-family:sans-serif;letter-spacing:0px;word-spacing:0px;fill:#000000;fill-opacity:1;stroke:none;stroke-width:1px;stroke-linecap:butt;stroke-linejoin:miter;stroke-opacity:1"
       xml:space="preserve"><tspan
         y="341.64792"
         x="280"
         id="tspan4231"></tspan></text>
  </g>
</svg>
