<svg xmlns="http://www.w3.org/2000/svg" width="32" height="32" viewBox="0 0 32 32">
    <g fill="none" fill-rule="evenodd">
        <path fill="#BE1421" d="M0 0h32v32H0z"/>
        <path fill="#FFF" d="M21.307 13.14l3.9 3.9a4.533 4.533 0 0 1 0 6.4L24 24.667A4.494 4.494 0 0 1 20.78 26a4.494 4.494 0 0 1-3.2-1.333l-3.9-3.9a4.527 4.527 0 0 1 0-6.4l1.227-1.227a4.533 4.533 0 0 1 6.4 0zm-4.242 2.458a.667.667 0 0 0-.865 1.015l.927.947c.26.258.68.258.94 0h.02a.667.667 0 0 0-.007-.947zM15.008 6.63l.019.097a.667.667 0 0 1-.587.746A7.153 7.153 0 0 0 8 13.84a.667.667 0 0 1-.567.573l-.1.007a.667.667 0 0 1-.666-.733 8.327 8.327 0 0 1 7.626-7.547.667.667 0 0 1 .715.49zm-.78 3.523a.667.667 0 0 1 .226.416l.006.098a.667.667 0 0 1-.54.666 2.833 2.833 0 0 0-2.047 2.134.667.667 0 0 1-.726.533H11.1a.667.667 0 0 1-.58-.76A4 4 0 0 1 13.687 10a.667.667 0 0 1 .542.153z"/>
    </g>
</svg>
