<svg xmlns="http://www.w3.org/2000/svg" width="42" height="48">
  <path id="Combined_Shape" data-name="Combined Shape" d="M27.481,42a1.735,1.735,0,0,0-.273-.07,26.882,26.882,0,0,1-10.623-3.336A31.49,31.49,0,0,1,4.758,27.167,32.289,32.289,0,0,1,.238,14.373C.152,13.712.079,13.049,0,12.387v-2.3a.457.457,0,0,0,.059-.151A4.323,4.323,0,0,1,1.406,7.079a13.926,13.926,0,0,1,3.2-2.668,2.913,2.913,0,0,1,2.828-.183A11.288,11.288,0,0,1,9.49,5.4a2.5,2.5,0,0,1,.689,1.04,24.512,24.512,0,0,1,1.382,5.044c.137.7.208,1.4.353,2.1a2.068,2.068,0,0,1-.488,1.832c-.491.583-1.03,1.13-1.572,1.668-.436.433-.9.845-1.373,1.233a.489.489,0,0,0-.155.66,23.609,23.609,0,0,0,2.9,5.261,29.653,29.653,0,0,0,8.939,8.258c.094.057.2.094.286.158.264.19.455.142.706-.08q1.193-1.062,2.446-2.057a3.68,3.68,0,0,1,1.12-.663,2.633,2.633,0,0,1,1.348-.126,43.433,43.433,0,0,1,6.228,2.128,4.489,4.489,0,0,1,2.625,3.174,3.321,3.321,0,0,1-.726,3.425,13.433,13.433,0,0,1-3.522,2.971A14.8,14.8,0,0,1,29.285,42Zm-3.9-20.563a2.571,2.571,0,0,0-3.015-3.017c0-.817-.009-1.633.016-2.449,0-.073.23-.2.353-.2A5.174,5.174,0,0,1,26.24,21a2.756,2.756,0,0,1-.012.286.766.766,0,0,1-.058.151Zm7.92-.1A10.48,10.48,0,0,0,20.663,10.5V7.946A12.916,12.916,0,0,1,34.054,21.335Zm7.891-.089A18.4,18.4,0,0,0,20.754,2.61V0h1.477c.607.078,1.214.146,1.819.238A20.567,20.567,0,0,1,37.483,7.985a20.44,20.44,0,0,1,4.442,11.388,3.579,3.579,0,0,0,.075.4v1.477Z" fill="#626262"/>
</svg>
