<svg xmlns="http://www.w3.org/2000/svg" height="72" viewBox="0 -1562.5 6518.599 71.8" width="163">
  <path fill="#fff" d="M0-2930.759h6518.599V-52.057H0z"/>
  <g data-mml-node="math" stroke-width="0" stroke="currentColor">
    <path d="M112.073-1303.612q-17 0-17-9 0-2 3-14 5-19 10-21 3-1 15-1h6q60 0 76-7 1 0 2-1 5-2 11-23t49-196q12-45 18-71 70-280 70-282-2-4-2-5-10-6-71-6h-20q-9-6-4-25 4-15 6-18t14-3h4q72 2 146 2 122 0 128-2h10q7 7 7 11t-3 17q-3 13-7 16-3 2-23 2-31 0-64 3-14 3-19 11-7 14-51 191-11 47-22 91-70 276-70 282 0 7 10 9t52 4h32q6 8 6 9t-3 18q-4 13-10 19h-16q-37-2-137-2h-114q-18 0-22 1z" data-c="49" stroke="none" data-mml-node="mi"/>
    <path d="M612.073-1470.612q0-57 19-104t49-78q30-31 67-52t70-31q33-10 63-9h3q45 0 78 22t33 65q0 90-111 118-49 13-134 14-37 0-38 2 0 2-6 35t-7 58q0 47 21 74t63 28q42 1 93-19t92-66q9-10 12-10 4 0 13 9t10 14q1 5-9 16t-30 27q-20 16-46 31t-63 25q-37 10-76 10-79 0-122-53t-44-126zm334-185q-6-52-68-52-33 0-61 14t-45 34q-17 20-29 41t-16 36q-4 15-5 19 0 1 20 1 113 0 158-24t46-69z" data-c="65" stroke="none" data-mml-node="mi"/>
    <path d="M1372.873-1649.612q0-13 14-20h637q15 8 15 20 0 11-14 19l-318 1h-318q-16-5-16-20zm0 194q0-15 16-20h636q14 10 14 20 0 13-15 20h-637q-14-7-14-20z" data-c="3D" stroke="none" data-mml-node="mo"/>
    <g data-mml-node="munderover">
      <path d="M2432.673-2250.612q3-2 605-2h602l58 135q59 138 63 146h-40l-7-14q-21-41-56-78-50-48-111-77t-141-43q-80-14-151-17t-183-4h-448l8 11q463 633 465 639 1 2 0 6-3 3-264 302l-264 300q0 1 211 1h141q89 0 128 1 136 0 220-5t167-21q83-16 141-49t103-87q21-26 41-72h40q0 1-7 21t-25 65q-18 45-31 84l-58 155-601 1q-602 0-605-2-6-2-6-9 0-2 2-6l533-610q0-1-33-45t-105-144q-72-100-130-178l-266-365-1-15q0-21 5-24z" data-c="2211" stroke="none" data-mml-node="mo"/>
      <g data-mml-node="TeXAtom">
        <path d="M2650.961-638.912q0-16.968 13.433-29.694 13.433-12.726 31.108-13.433 12.726 0 21.21 8.484t9.191 21.21q0 16.26-14.14 29.694-14.14 13.433-31.108 14.14-10.605 0-19.796-7.07-9.19-7.07-9.898-23.331zm-115.24 221.29q0-5.655 6.362-21.916 6.363-16.261 16.968-36.057 10.605-19.796 31.108-36.057 20.503-16.261 42.42-15.554 27.573 0 45.955 16.26 18.382 16.262 19.09 43.835 0 12.019-9.899 39.592-9.898 27.573-28.28 74.235t-29.694 79.89q-3.535 15.555-3.535 22.625 0 17.675 12.02 17.675 6.362 0 13.432-2.121t16.261-9.898q9.191-7.777 19.09-24.745 9.897-16.968 17.674-41.713 2.121-8.484 3.535-9.898 1.414-1.414 12.02-1.414 14.14 0 14.14 7.07 0 5.656-6.364 21.917-6.363 16.26-17.675 36.057-11.312 19.796-31.815 35.35-20.503 15.554-43.834 15.554-22.624 0-41.713-14.847-19.089-14.847-19.796-45.248 0-12.02 3.535-22.624 3.535-10.605 30.401-80.598 26.866-71.407 31.108-85.547 4.242-14.14 4.95-27.573 0-16.968-12.02-16.968h-1.414q-21.21 0-38.885 23.33-17.675 23.332-26.866 59.389-.707.707-1.414 2.12-.707 1.415-.707 2.122 0 .707-1.414 1.414t-2.12.707h-18.383q-4.242-4.242-4.242-6.363z" data-c="69" stroke="none" data-mml-node="mi"/>
        <path d="M2804.38-460.041q0-9.191 9.898-14.14h450.36q10.604 5.656 10.604 14.14 0 7.777-9.898 13.433l-224.826.707h-224.826q-11.312-3.535-11.312-14.14zm0 137.158q0-10.605 11.312-14.14h449.652q9.898 7.07 9.898 14.14 0 9.19-10.605 14.14h-450.359q-9.898-4.95-9.898-14.14z" data-c="3D" stroke="none" data-mml-node="mo"/>
        <path d="M3465.425-623.358l-9.19 3.535q-9.899 3.535-28.28 7.07-18.383 3.535-41.007 4.949h-13.433v-32.522h13.433q33.23-1.414 61.51-10.605t39.591-16.968q11.312-7.777 19.796-15.554 1.414-2.121 8.484-2.121 6.363 0 12.02 4.242v211.393l.706 212.1q4.95 4.949 8.484 6.363 3.535 1.414 16.968 2.828t43.834 1.414h18.382v32.522h-7.777q-14.847-2.121-112.413-2.121-96.152 0-110.999 2.12h-8.484v-32.521H3422.298q11.312 0 17.675-.707 6.363-.707 11.312-2.121 4.95-1.414 5.656-1.414.707 0 4.242-3.535t4.242-2.828z" data-c="31" stroke="none" data-mml-node="mn"/>
      </g>
      <path d="M2897.42-2655.521q.707-4.242 2.121-11.312 1.414-7.07 8.484-26.866t14.14-33.23q7.07-13.432 23.331-26.158t32.522-12.02q25.452 0 42.42 12.727 16.968 12.726 21.21 24.038 4.242 11.312 4.242 14.847 0 1.414.707 1.414l7.777-7.777q43.127-45.248 98.273-45.248 38.178 0 61.51 19.089 23.33 19.089 24.037 55.853.707 36.764-26.866 110.999-27.573 74.235-26.866 89.789 0 18.382 12.02 18.382 4.241 0 6.362-.707 20.503-3.535 36.764-26.866 16.261-23.331 24.745-56.56 1.414-5.656 14.14-5.656 14.14 0 14.14 5.656 0 .707-2.828 10.605-5.656 20.503-15.554 40.299t-32.522 39.592q-22.624 19.796-48.783 19.089-33.229 0-48.076-19.09-14.847-19.088-14.847-39.591 0-13.433 25.452-84.84 25.452-71.407 26.16-107.464 0-41.713-31.109-41.713h-3.535q-60.802 0-102.515 71.407l-4.949 8.484-23.33 94.738q-23.332 92.617-26.867 99.687-9.19 19.089-30.4 19.089-9.192 0-14.848-4.242-5.656-4.242-7.777-8.484-2.12-4.242-1.414-7.07 0-9.191 26.866-115.241t28.28-115.241q.707-3.535.707-16.261 0-27.573-16.968-27.573-26.866 0-44.54 70.7-4.243 14.14-4.243 14.847-1.414 4.242-13.433 4.242h-9.898q-4.242-4.242-4.242-6.363z" data-c="6E" stroke="none" data-mml-node="mi"/>
    </g>
    <g data-mml-node="mfrac">
      <g data-mml-node="mrow">
        <path d="M4253.273-2368.112q0-115 67-221t169-168q102-62 204-63 90 0 143 51 9 10 15 17t8 10l1 3q3 0 27-26 7-6 15-14l16-16q8-8 10-11l15-15h6q14 0 14 7 0 4-32 137-36 139-36 140-2 5-5 6t-18 2h-16q-6-6-6-9 0-1 1-7t2-20q1-14 1-32 0-71-32-124t-109-54q-18 0-39 3t-53 13q-32 10-61 28t-63 48q-34 30-58 71t-47 102q-23 61-31 134-2 18-2 39 0 48 14 85t36 57q22 20 50 34t52 17q24 3 45 4 54 0 99-23t62-59q3-8 15-55t12-53q0-8-13-10t-60-3h-37q-6-6-6-8t2-19q4-13 10-19h17q40 2 140 2h65q25 0 36-1t12 0q14 0 14 9 0 2-2 14-5 19-10 21-3 1-15 1-20 0-41 3-7 3-10 9t-14 51q-9 33-15 56-25 102-28 105-2 2-5 2-10 0-28-20t-23-31q0-1-2 0t-6 5q-74 69-200 69-121 0-196-77t-76-197z" data-c="47" stroke="none" data-mml-node="mi"/>
        <g data-mml-node="msub">
          <path d="M5173.273-2716.112q0-24 19-42t44-19q18 0 30 12t13 30q0 23-20 42t-44 20q-15 0-28-10t-14-33zm-163 313q0-8 9-31t24-51q15-28 44-51t60-22q39 0 65 23t27 62q0 17-14 56t-40 105q-26 66-42 113-5 22-5 32 0 25 17 25 9 0 19-3t23-14q13-11 27-35t25-59q3-12 5-14t17-2q20 0 20 10 0 8-9 31t-25 51q-16 28-45 50t-62 22q-32 0-59-21t-28-64q0-17 5-32t43-114q38-101 44-121t7-39q0-24-17-24h-2q-30 0-55 33t-38 84q-1 1-2 3t-1 3q0 1-2 2t-3 1h-26q-6-6-6-9z" data-c="69" stroke="none" data-mml-node="mi"/>
          <g data-mml-node="TeXAtom">
            <path d="M5400.731-2116.162q0-48.783 7.07-92.617t16.261-75.65q9.191-31.814 26.16-62.215 16.967-30.401 26.865-47.37 9.898-16.967 29.694-36.763t23.331-24.038q3.535-4.242 17.675-14.847h12.019q9.898 0 9.898 6.363 0 2.12-12.019 14.847-12.019 12.726-28.987 37.47-16.968 24.746-34.643 60.803t-29.694 97.566q-12.019 61.509-12.019 136.45 0 74.943 12.02 135.745 12.018 60.802 28.986 98.273 16.968 37.47 34.643 60.802 17.675 23.33 29.694 37.47 12.02 14.14 12.02 14.848 0 6.363-10.606 6.363H5547.787l-19.796-16.968q-66.458-60.095-96.859-149.884-30.4-89.79-30.4-186.648z" data-c="28" stroke="none" data-mml-node="mo"/>
            <path d="M5636.87-2058.188q0-40.3 13.432-73.528 13.433-33.23 34.643-55.146 21.21-21.917 47.37-36.764 26.158-14.847 49.49-21.917 23.33-7.07 44.54-6.363h2.121q31.815 0 55.146 15.554t23.331 45.955q0 63.63-78.477 83.426-34.643 9.19-94.738 9.898-26.159 0-26.866 1.414 0 1.414-4.242 24.745-4.242 23.33-4.949 41.006 0 33.229 14.847 52.318t44.541 19.796q29.694.707 65.751-13.433t65.044-46.662q6.363-7.07 8.484-7.07 2.828 0 9.191 6.363 6.363 6.363 7.07 9.898.707 3.535-6.363 11.312-7.07 7.777-21.21 19.089-14.14 11.312-32.522 21.917-18.382 10.605-44.54 17.675-26.16 7.07-53.733 7.07-55.853 0-86.254-37.471-30.4-37.471-31.108-89.082zm236.137-130.795q-4.242-36.764-48.076-36.764-23.33 0-43.127 9.898-19.796 9.898-31.815 24.038-12.019 14.14-20.503 28.987-8.484 14.847-11.312 25.452-2.828 10.605-3.535 13.433 0 .707 14.14.707 79.891 0 111.706-16.968 31.815-16.968 32.522-48.783z" data-c="65" stroke="none" data-mml-node="mi"/>
            <path d="M5981.178-2468.955l2.828-.707h15.554l19.796 16.968q66.458 60.095 96.86 149.884 30.4 89.789 30.4 186.648 0 48.076-7.07 92.617-7.07 44.54-16.26 75.649-9.192 31.108-26.16 62.216t-26.866 47.369q-9.898 16.26-28.987 36.057-19.089 19.796-22.624 23.33-3.535 3.536-16.26 13.434l-2.829 2.828H5983.3q-2.12 0-3.535-2.121-1.414-2.121-2.12-6.363.706-.707 7.776-9.191 109.585-113.827 109.585-335.825t-109.585-335.825q-7.07-8.484-7.777-9.191 0-5.656 3.535-7.777z" data-c="29" stroke="none" data-mml-node="mo"/>
          </g>
        </g>
      </g>
      <g data-mml-node="mrow">
        <path d="M4290.373-868.612q0-115 67-221t169-168q102-62 204-63 90 0 143 51 9 10 15 17t8 10l1 3q3 0 27-26 7-6 15-14l16-16q8-8 10-11l15-15h6q14 0 14 7 0 4-32 137-36 139-36 140-2 5-5 6t-18 2h-16q-6-6-6-9 0-1 1-7t2-20q1-14 1-32 0-71-32-124t-109-54q-18 0-39 3t-53 13q-32 10-61 28t-63 48q-34 30-58 71t-47 102q-23 61-31 134-2 18-2 39 0 48 14 85t36 57q22 20 50 34t52 17q24 3 45 4 54 0 99-23t62-59q3-8 15-55t12-53q0-8-13-10t-60-3h-37q-6-6-6-8t2-19q4-13 10-19h17q40 2 140 2h65q25 0 36-1t12 0q14 0 14 9 0 2-2 14-5 19-10 21-3 1-15 1-20 0-41 3-7 3-10 9t-14 51q-9 33-15 56-25 102-28 105-2 2-5 2-10 0-28-20t-23-31q0-1-2 0t-6 5q-74 69-200 69-121 0-196-77t-76-197z" data-c="47" stroke="none" data-mml-node="mi"/>
        <g data-mml-node="msub">
          <path d="M5210.373-1216.612q0-24 19-42t44-19q18 0 30 12t13 30q0 23-20 42t-44 20q-15 0-28-10t-14-33zm-163 313q0-8 9-31t24-51q15-28 44-51t60-22q39 0 65 23t27 62q0 17-14 56t-40 105q-26 66-42 113-5 22-5 32 0 25 17 25 9 0 19-3t23-14q13-11 27-35t25-59q3-12 5-14t17-2q20 0 20 10 0 8-9 31t-25 51q-16 28-45 50t-62 22q-32 0-59-21t-28-64q0-17 5-32t43-114q38-101 44-121t7-39q0-24-17-24h-2q-30 0-55 33t-38 84q-1 1-2 3t-1 3q0 1-2 2t-3 1h-26q-6-6-6-9z" data-c="69" stroke="none" data-mml-node="mi"/>
          <g data-mml-node="TeXAtom">
            <path d="M5437.831-616.662q0-48.783 7.07-92.617t16.261-75.65q9.191-31.814 26.16-62.215 16.967-30.401 26.865-47.37 9.898-16.967 29.694-36.763t23.331-24.038q3.535-4.242 17.675-14.847h12.019q9.898 0 9.898 6.363 0 2.12-12.019 14.847-12.019 12.726-28.987 37.47-16.968 24.746-34.643 60.803t-29.694 97.566q-12.019 61.509-12.019 136.45 0 74.943 12.02 135.745 12.018 60.802 28.986 98.273 16.968 37.47 34.643 60.802 17.675 23.33 29.694 37.47 12.02 14.14 12.02 14.848 0 6.363-10.606 6.363H5584.887l-19.796-16.968q-66.458-60.095-96.859-149.884-30.4-89.79-30.4-186.648z" data-c="28" stroke="none" data-mml-node="mo"/>
            <path d="M5664.778-712.107q-4.949-4.95-4.949-7.07 0-2.828 2.121-11.312t3.535-9.898q1.414-3.535 6.363-3.535 4.95 0 36.057-.707h37.471l13.433-56.56q2.121-7.777 4.95-20.503 2.827-12.726 4.948-18.382 2.121-5.656 4.242-14.14 2.121-8.484 5.656-12.02 3.535-3.534 7.07-8.483 3.535-4.95 9.898-6.363 6.363-1.414 12.726-1.414 12.726.707 17.675 7.777 4.95 7.07 4.95 13.433 0 4.949-6.364 33.229-6.363 28.28-14.14 55.853l-7.07 26.159q0 1.414 35.35 1.414h36.057q4.95 4.949 4.95 7.777 0 15.554-9.192 24.745h-75.649l-25.452 102.515q-27.573 113.12-27.573 121.604 0 29.694 19.09 29.694 24.744 0 48.075-24.038 23.331-24.038 37.471-59.388 1.414-4.242 3.535-4.95 2.121-.706 10.605-1.413h2.828q10.605 0 10.605 5.656 0 2.12-2.12 8.484-3.536 11.312-12.727 26.866-9.19 15.554-24.038 33.229-14.847 17.675-36.057 29.694-21.21 12.019-43.127 12.019-21.21 0-40.299-10.605t-27.573-36.764q-1.414-5.656-1.414-19.09v-12.725l24.745-98.98q24.745-99.687 25.452-100.394 0-1.414-36.057-1.414z" data-c="74" stroke="none" data-mml-node="mi"/>
            <path d="M5944.043-969.455l2.828-.707h15.554l19.796 16.968q66.458 60.095 96.86 149.884 30.4 89.789 30.4 186.648 0 48.076-7.07 92.617-7.07 44.54-16.26 75.649-9.192 31.108-26.16 62.216t-26.866 47.369q-9.898 16.26-28.987 36.057-19.089 19.796-22.624 23.33-3.535 3.536-16.26 13.434l-2.829 2.828h-16.261q-2.12 0-3.535-2.121-1.414-2.121-2.12-6.363.706-.707 7.776-9.191 109.585-113.827 109.585-335.825t-109.585-335.825q-7.07-8.484-7.777-9.191 0-5.656 3.535-7.777z" data-c="29" stroke="none" data-mml-node="mo"/>
          </g>
        </g>
      </g>
      <path stroke="none" d="M4103.273-1522.612h2260.6v-60h-2260.6z"/>
    </g>
  </g>
</svg>
