<svg xmlns="http://www.w3.org/2000/svg" xmlns:xlink="http://www.w3.org/1999/xlink" width="271" height="236" viewBox="0 0 271 236">
    <defs>
        <path id="a" d="M0 .563h227.897V165H0z"/>
    </defs>
    <g fill="none" fill-rule="evenodd">
        <path fill="#626262" d="M263.087 183.964a415.58 415.58 0 0 1-9.217 9.152c-.66.632-1.617.957-2.58 1.505-.95-.563-1.904-.905-2.555-1.55a8548.074 8548.074 0 0 1-30.433-30.306c-1.706-1.707-1.718-3.439-.05-5.147a460.217 460.217 0 0 1 9.055-9.017c1.74-1.69 3.474-1.723 5.17-.047a9111.566 9111.566 0 0 1 30.606 30.43c1.635 1.633 1.612 3.333.004 4.98m-106.492-45.339c.006 0 .011-.002.018-.004-2.429.207-5.084.708-7.268 1.21 2.184-.502 4.84-1.003 7.268-1.21 13.902-3.46 25.695-10.434 35.323-20.789l28.235 28.352-4.482 4.501c-.36-.307-.69-.554-.98-.842-6.789-6.753-13.579-13.506-20.354-20.273-1.852-1.85-3.809-2.099-5.3-.603-1.48 1.482-1.237 3.429.622 5.276 6.794 6.749 13.56 13.526 20.39 20.239.92.902 1.131 1.637.747 2.885-1.114 3.63-.322 6.994 2.335 9.666A3971.136 3971.136 0 0 0 244.36 198.1c3.926 3.86 9.853 3.847 13.86.076 3.409-3.21 6.732-6.516 9.957-9.91 3.78-3.978 3.774-9.91-.088-13.789-10.31-10.35-20.689-20.635-31.09-30.893-2.755-2.715-6.16-3.568-9.876-2.413-1.308.407-2.003.072-2.88-.806-8.84-8.856-17.722-17.67-26.587-26.5-.436-.434-.836-.907-1.213-1.318 16.434-24.146 18.394-49.254 5.592-75.578 3.731 0 7.295.01 10.858-.004 2.68-.009 4.194-1.204 4.225-3.3.032-2.099-1.508-3.38-4.135-3.389-4.485-.014-8.97-.05-13.453.027-1.317.023-2.145-.343-2.953-1.435-20.751-28.056-57.7-36.876-88.851-21.072-4.334 2.199-8.266 5.206-12.29 7.974-1.827 1.257-2.05 3.423-.825 4.935 1.237 1.529 3.207 1.651 5.042.305.45-.33.881-.689 1.324-1.03 23.624-18.176 56.989-17.511 79.793 1.677 2.954 2.485 5.577 5.363 8.354 8.056-.108.187-.214.374-.322.558h-1.998c-8.758 0-17.516-.012-26.273.007-2.638.006-3.907 1.236-3.937 3.796-.035 3.069-.036 6.139.002 9.205.028 2.28 1.394 3.738 3.375 3.726 1.982-.014 3.3-1.47 3.338-3.765.034-2.008.007-4.018.007-6.27 10.11 0 19.913-.03 29.716.067.652.007 1.52.844 1.911 1.515 7.272 12.479 10.123 25.925 8.187 40.21-5 36.884-39.915 61.509-76.394 54.024-29.035-5.957-50.479-31.64-50.855-60.903C75.687 56.69 80.28 43.1 89.64 31.098c.468-.601.972-1.223 1.24-1.92.6-1.562-.186-3.323-1.683-4.067-1.608-.797-3.216-.332-4.547 1.434-16.727 22.217-20.384 46.438-9.329 71.906 9.94 22.893 28.048 36.478 52.762 41.104 2.64.494 5.323.758 7.967 1.114h.683-.42c1.91.237 4.904-.2 6.826.145v-.187l5.686-.586 1.036-.107"/>
        <path fill="#626262" d="M135.475 120.483V100.6h-6.446v19.042l6.446.842m-6.691-55.506c.639-7.196-4.38-13.7-11.659-14.347-4.835-.43-9.74-.082-14.613-.082.162 9.456 10.834 19.486 20.799 19.445-1.597-.79-3.244-1.462-4.911-2.081-2.113-.783-3.079-2.472-2.448-4.372.577-1.738 2.412-2.678 4.425-1.963 2.798.996 5.517 2.218 8.407 3.4m13.664 28.8c3.364 0 6.294-.013 9.223.005 2.883.017 4.064 1.184 4.082 4.043.02 3.4.02 6.8.001 10.2-.013 2.441-1.29 3.975-3.288 4.019-2.073.045-3.405-1.532-3.423-4.096-.016-2.415-.004-4.833-.004-7.377h-6.593v19.843c11.81-.977 22.066-5.235 30.652-13.163 16.117-14.885 20.65-37.452 11.654-57.397-.114-.253-.237-.502-.347-.757-.989-2.283-.481-4.064 1.407-4.951 1.863-.875 3.837-.14 4.662 2.151 1.64 4.551 3.506 9.096 4.46 13.805 5.68 27.986-11.909 56.534-39.534 64.536-32.191 9.325-64.806-9.822-72.066-42.303-8.01-35.841 21.134-70.21 58.097-68.255 5.375.284 10.709 1.751 16.004 2.927 2.915.647 3.978 2.465 3.28 4.569-.678 2.04-2.698 2.673-5.424 1.662-12.388-4.593-24.846-4.73-37.002.399-17.904 7.555-28.455 21.11-30.954 40.294-3.027 23.23 11.07 45.488 33.072 52.982.517.176 1.05.31 1.779.523 0-6.313-.002-12.47.001-18.627.001-4.157.865-5.029 4.982-5.031 2.718-.003 5.437-.002 8.304-.002.588-5.804-.498-11.107-3.713-15.89-.34-.506-1.424-.741-2.155-.728-5.133.096-10.169-.24-15.046-2.088-11.013-4.174-19.038-15.348-19.221-26.943-.05-3.095 1.122-4.305 4.229-4.312 5.314-.012 10.629-.035 15.943.003 11.206.075 20.026 8.873 20.103 20.02.008 1.18.159 2.384-.027 3.533-.563 3.458.952 6.107 3.204 8.656.18-1.979.221-3.892.546-5.754 1.657-9.485 9.87-16.359 19.581-16.467 1.19-.013 2.381-.054 3.565.014 1.98.111 3.337 1.496 3.339 3.311.001 1.815-1.357 3.19-3.33 3.329-2.224.155-4.511.002-6.663.473-6.146 1.338-10.375 7.097-10.042 13.527 1.617-1.072 3.07-2.241 4.698-3.068a58.98 58.98 0 0 1 7.082-3.043c2.317-.817 4.14.072 4.758 1.999.604 1.885-.5 3.59-2.807 4.312-3.563 1.113-6.816 2.752-9.406 5.812 1.446-.213 2.918-.318 4.335-.655 10.447-2.493 17.698-11.351 18.09-22.028.096-2.566 1.438-4.08 3.528-3.977 2.025.1 3.2 1.608 3.188 4.094-.062 14-11.493 26.95-25.488 28.774-2.483.323-5.011.396-7.52.394-1.277-.003-1.923.428-2.25 1.59-.447 1.588-.952 3.16-1.546 5.112M264.271 40.095c0-1.118-.035-2.098.007-3.072.094-2.121 1.481-3.542 3.387-3.517 1.906.027 3.251 1.449 3.305 3.6.05 1.965.028 3.933.006 5.9-.029 2.747-1.236 3.977-3.976 3.983-9.012.016-18.025.005-27.036.005-3.983 0-7.965.016-11.947-.004-2.75-.015-3.992-1.228-4.001-3.96a2890.38 2890.38 0 0 1 0-18.967c.009-2.79 1.204-4.045 3.909-4.05 13.064-.018 26.13-.017 39.192 0 2.406.003 3.92 1.415 3.854 3.469-.061 1.973-1.523 3.26-3.85 3.262-11.318.017-22.636.008-33.954.008h-2.344v13.343h33.448zM238.504 53.007c3.552 0 7.104-.018 10.657.006 2.38.016 3.809 1.505 3.839 3.928.03 2.435-1.409 4.034-3.747 4.042-7.171.023-14.342.023-21.514 0-2.33-.008-3.774-1.623-3.738-4.05.034-2.42 1.465-3.902 3.848-3.92 3.552-.025 7.103-.006 10.655-.006M235.024 76.989c-2.708 0-5.417.03-8.125-.008-2.36-.032-3.853-1.56-3.898-3.891-.045-2.43 1.488-4.055 3.958-4.07 5.346-.028 10.692-.025 16.039-.001 2.495.013 4.021 1.585 4.002 4.017-.018 2.417-1.547 3.922-4.064 3.948-2.637.025-5.274.005-7.912.005"/>
        <g transform="translate(0 71)">
            <mask id="b" fill="#fff">
                <use xlink:href="#a"/>
            </mask>
            <path fill="#626262" d="M32.071 29.441c.3-.212.621-.479.935-.817.185.205.375.409.57.61.114.709.336 1.62.872 2.553a7.252 7.252 0 0 0 1.192 1.534 7.253 7.253 0 0 0 .57 2.759c-.25.153-.491.315-.723.485a7.908 7.908 0 0 0-.892-.038 5.48 5.48 0 0 0-1.804-3.16c-.498-.434-1.14-.873-2.177-1.152a6.046 6.046 0 0 0-.194-.633c.059-.144.11-.286.156-.428a15.628 15.628 0 0 0 1.495-1.713M27.501.563c-2.787 0-4.23 1.898-5.01 2.944-1.179 1.232-1.701 2.657-2.094 3.73-.101.275-.246.668-.345.876-.018.015-.035.032-.054.05a7.56 7.56 0 0 0-.547.163c-.933.002-1.942.067-3.01.531-3.459 1.501-4.562 4.507-5.091 5.951-.062.168-.14.38-.197.52l-.221.28a5.303 5.303 0 0 0-.944 1.843l-.01.032a5.44 5.44 0 0 0-1.451 1.644c-.656 1.138-1.003 2.043-1.309 2.84l-.03.08c-.54 1.409-.488 2.674-.452 3.378a52.11 52.11 0 0 0-.478 1.992c-.348 1.536-.776 3.43-1.415 4.242l-.248.212C2.553 33.619.012 35.792 0 38.994a5.697 5.697 0 0 0 1.965 4.328 5.68 5.68 0 0 0 3.73 1.375c.764 0 1.469-.141 2.145-.367.41.28.873.533 1.394.75.147.246.317.487.513.717.134 1.233.324 2.491 1.015 3.69.12.208.245.4.378.578.113.39.28.798.515 1.208.651 1.131 1.536 1.791 2.39 2.206.34.562.781 1.05 1.293 1.447l-.204.315c-.634.974-1.29 1.981-1.78 2.985-1.728 3.558-.516 5.964.464 7.158a5.548 5.548 0 0 0 1.733 2.781c1.036.9 2.15 1.388 3.144 1.676.8 2.379 2.842 4.492 5.834 5.792.743.323 1.545.48 2.452.48 1.29 0 3.44-.344 6.716-.938l.515-.091c.217.038.777.259 1.153.408 1.073.424 2.407.95 4.047.95a7.01 7.01 0 0 0 2.814-.576c1.892-.822 3.08-1.32 3.643-1.32.683 0 2.157.479 3.384.905l.334.125c1.495.677 3.035.761 4.102.761a.569.569 0 0 0 .042.019c.972 2.091 2.635 3.244 3.526 3.861.112.077.252.174.355.25.83 1.303 2.575 3.358 4.584 4.882.742 2.035 2.465 2.899 2.914 3.094.832.36 1.7.544 2.578.544.549 0 1.08-.069 1.595-.206a6.01 6.01 0 0 0 5.015-1.24 6.47 6.47 0 0 0 2.763.488c.831.482 1.93.908 3.267.908.83 0 1.634-.166 2.39-.494.332-.145.668-.331.993-.561.508.06 1.071.109 1.66.109.874 0 1.665-.107 2.42-.325.306-.09.6-.2.882-.334.518.076 1.122.15 1.785.15.55 0 1.082-.053 1.59-.155l-.033.086c-.354.924-.448 1.82-.43 2.655l-.057.048c-2.831 2.459-2.672 6.384-2.567 8.982.01.24.021.452.021.616v.038c-.632 6.329.113 11.69 2.273 16.382.106.229.226.448.363.66.976 2.223 2.821 3.32 3.795 3.896.05.03.104.061.158.095.055.085.114.167.174.25.145.312.303.604.467.877-.49.328-.966.653-1.35.92-3.106 2.16-4.634 3.402-5.229 5.459a5.354 5.354 0 0 0 .502 4.187c1.445 2.507 4.014 2.972 5.357 3.11 3.727 3.327 4.727 4.84 4.888 5.526.055.234.13.484.216.71l.269.697c.021.057.044.113.067.169.545 1.284 1.023 2.762 1.529 4.324 1.453 4.487 3.099 9.574 7.303 13.223.214.187.444.356.688.508l.266.165c.915.73 1.889 1.143 2.692 1.413a5.462 5.462 0 0 0 2.29 1.888 9.361 9.361 0 0 0 3.755.79c3.28 0 5.704-1.668 7.307-2.77.268-.184.627-.432.787-.525a6.23 6.23 0 0 1 .362-.128 5.714 5.714 0 0 0 4.552 2.254c2.023 0 3.412-.96 4.313-1.917a7.105 7.105 0 0 0 1.808-.497c.785-.342 2.224-1.175 3.05-2.931.445-.266.992-.645 1.542-1.047a5.795 5.795 0 0 0 3.005-.448c1.374-.597 2.343-1.456 3.048-2.086.087-.078.19-.167.284-.249.492-.077.967-.22 1.414-.425.477.117 1 .195 1.574.195 1.417 0 2.775-.5 3.82-1.41 1.857-1.61 2.51-3.93 3.144-6.172.016-.053.03-.108.048-.166.616-.172 1.285-.353 1.828-.5 4.222-1.14 6.15-1.697 7.584-2.942 1.644-1.43 2.433-3.528 2.109-5.612-.572-3.682-4.182-5.517-5.277-5.99-1.319-.575-2.643-.865-3.937-.865-.475 0-.921.04-1.338.105-.304-2.008-1.379-3.504-2.385-4.53a5.19 5.19 0 0 0-1.059-2.346 5.84 5.84 0 0 0 .082-2.097 5.803 5.803 0 0 0 .176-1.899 5.76 5.76 0 0 0 1.865-.726c2.046.121 5.33.39 7.117.556 2.272 3.383 4.71 5.094 7.264 5.094.947 0 1.872-.232 2.696-.664.826-.274 2.452-.893 3.466-2.653.628-1.094.89-2.35 1.071-4.051a7.774 7.774 0 0 0 1.536-1.223c.876.005 1.821.045 2.526.075l.277.012a5.388 5.388 0 0 0 2.298.1c.49-.083 1.033-.163 1.602-.247 2.936-.435 6.592-.976 9.267-2.718a5.868 5.868 0 0 0 1.567-1.497c.223-.068.45-.15.681-.252.35-.151.666-.327.948-.516a6.679 6.679 0 0 0 4.056-.415c1.84-.797 2.897-2.17 3.67-3.171.14-.178.332-.431.465-.583 1.861-.98 5.232-3.817 6.09-7.106.508-1.948.126-3.944-1.048-5.474-1.495-1.947-3.344-2.596-4.474-2.875-.391-.358-.81-.764-.966-.996-1.014-1.764-2.752-2.798-4.276-3.607a7.361 7.361 0 0 0-.376-.842c1.107-1.024 2.333-2.493 2.83-4.655a5.275 5.275 0 0 0 .11-1.702 7.01 7.01 0 0 0 .015-.499 6.859 6.859 0 0 0 4.309-.396 6.085 6.085 0 0 0 2.21-1.637c.13-.045.255-.095.38-.15 1.848-.801 2.816-2.103 3.29-2.75l.013-.013c2.683-2.167 3.063-5.428.946-8.113l-.08-.1c-.926-1.208-2.224-1.993-3.657-2.236l.027-.046.062-.11a6.815 6.815 0 0 0 2.337-.954 7.37 7.37 0 0 0 1.104-.886c1.127-.48 2.663-1.252 3.731-2.686.259-.18.6-.41.856-.58 2.174-1.451 5.81-3.88 4.53-8.057a5.563 5.563 0 0 0-3.098-3.453 6.025 6.025 0 0 0-.19-.171c-1.234-1.073-2.616-1.64-3.627-2.054-.216-.089-.525-.214-.694-.295-1.116-.889-2.488-1.356-3.981-1.356-1.184 0-2.266.3-3.233.673a5.728 5.728 0 0 0-1.94-1.566 5.741 5.741 0 0 0 1.22-1.941 5.616 5.616 0 0 0-.385-4.828c-2.006-3.485-4.8-4.231-6.3-4.633-.444-.12-.683-.184-.836-.274-.971-.562-2.073-.847-3.277-.847l-.115.002c-.776-.953-1.967-2.083-3.798-2.658a5.353 5.353 0 0 0-3.487-.445 6.166 6.166 0 0 0-2.447-.032c-.312-.221-.65-.41-1.015-.568a6.174 6.174 0 0 0-2.278-.514 5.824 5.824 0 0 0-1.942-.59c2.512-1.395 3.242-3.944 2.816-5.971-.91-4.329-5.445-4.775-9.087-5.133-2.168-.213-4.548-.347-4.973-.347-1.477 0-2.835.329-3.893.7-.079-.013-.16-.027-.229-.037-.653-.108-1.466-.243-2.363-.243-1.294 0-2.471.285-3.5.85-.52-.159-1.102-.316-1.742-.41a5.424 5.424 0 0 0-2.192-.207 2.184 2.184 0 0 1-.245.008c-.348 0-.715-.024-1.082-.044-.515-.029-1.098-.062-1.708-.062-1.003 0-2.516.076-4.05.742a5.543 5.543 0 0 0-3.074 3.496c-1.649.016-3.165.584-4.386 1.646-1.102.957-3.834 2.444-5.53 3.038a15.617 15.617 0 0 0-1.72-.11c-.843 0-1.609.103-2.343.316-.48.14-.798.193-.97.213a7.353 7.353 0 0 1-.74-.307 5.642 5.642 0 0 0-1.692-1.57c-1.032-.595-2.187-.899-3.435-.899-.79 0-1.51.124-2.132.273-.026-.01-.051-.024-.075-.036a5.322 5.322 0 0 0-2.152-1.75 5.749 5.749 0 0 0-.986-1.767c-1.153-1.426-2.866-2.211-4.822-2.211-.665 0-1.377.054-2.007.103-.171.012-.334.027-.482.038l-.047-.007a3.344 3.344 0 0 0-.302-.035 28.162 28.162 0 0 0-2.455-.107c-2.814 0-5.62.424-8.817 1.336h-.022c-.41 0-1.09-.092-1.748-.18-.969-.132-2.066-.28-3.21-.28-1.346 0-2.53.207-3.606.627-.86.205-3.94.639-6.168.639-.182 0-.33-.003-.448-.008a11.187 11.187 0 0 1-.318-.271c.518-1.497.474-3.049-.136-4.639-.53-1.377-.53-1.377-4.815-4.84-.984-.797-2.333-1.885-2.571-2.09-1.606-1.395-3.569-1.576-5.098-1.576-.607 0-1.21.031-1.73.062-.153-.062-.322-.13-.481-.196-1.704-.696-4.279-1.748-7.106-1.748-1.44 0-2.796.272-4.03.807-1.842.801-2.59.988-2.857 1.03a12.974 12.974 0 0 1-.768-.056 5.414 5.414 0 0 0-2.827-.793c-1.952 0-3.27.997-3.982 1.54-.615.254-1.366.605-2.094 1.006a9.904 9.904 0 0 0-1.482-.125c-.907 0-1.757.17-2.527.504-.833.363-1.787.684-2.796 1.026-.221.074-.444.149-.665.225l-.271.021c-1.465.12-3.38.276-4.927 1.561-.224.053-.496.112-.705.156-1.198.258-2.75.59-4.186 1.46a6.3 6.3 0 0 0-1.162-1.367 6.015 6.015 0 0 0-.258-1.123c.544-2.578-.045-4.615-1.751-6.096A5.44 5.44 0 0 0 27.502.563m0 5.323a.03.03 0 0 1 .021.008c.418.362-.218 1.887-.357 2.25-.252.655.385 1.082.535 1.476.184.477-.182 1.114 0 1.591.131.342.867.616.916 1.32.022.289.695.39.872.543.668.582.628 2.643.939 3.456.195.51.67.65.67 1.357 0 .254.178.74.135.816-.245.426-.409.978-.626 1.475l-.134.195c.03.065.083.343.134.388.275.238 2.246.366 1.698 1.319-.15.26-.624.21-.849.506-.182.235.05.753-.269.892-.262.114-1.673.344-1.788.543-.167.292-.096.69-.312.97-.186.243-.718.356-.849.583-.406.704-1.176 1.602-1.832 2.173-.168.147-.663.258-.76.427-.252.44.018 1.054-.224 1.475-.214.374-1.315.383-1.564.815-.287.498.67 1.688.67 2.213 0 .037-.025.377 0 .389.36.155.953.01.894.581v.233c0 2.644.72.94.83 2.796.071 1.207.21 2.621.664 2.621.188 0 .429-.24.741-.837.14-.265-.07-1.024.09-1.164.036-.032.164-.045.33-.045.438 0 1.148.087 1.188.123.284.245-.535.583-.535.93 0 1.006-.148 3.134.625 3.806.078.065.213.09.38.09.369 0 .887-.111 1.265-.111.18 0 .326.024.41.098.175.15.472.79.74.79a.162.162 0 0 0 .066-.014c.795-.346 1.347-.83 2.235-1.086a.921.921 0 0 1 .254-.029c.683 0 2.02.39 2.514.39.096 0 .16-.016.18-.05.414-.72 1.511-1.681 2.414-1.942.987-.286 2.436-3.629 2.235-4.503-.198-.862-1.477-1.763-.893-3.106l-.09-.697c-.3-.391-.122-.934-.358-1.243-.494-.644-1.244-.92-1.608-1.553-.453-.783-.123-2.202-.895-2.873-1.58-1.371-3.219-3.65-4.2-5.355-.193-.334.923-1.06.715-1.243-.112-.096-1.295-.816-1.163-.932 1.097-.951 1.989-2.503 3.128-3.493 1.368-1.188 4.79-.92 5.811-2.251.31-.403 2.605-.362 3.128-.544 1.454-.505 2.91-.952 4.291-1.553.097-.041.228-.059.382-.059.643 0 1.695.289 2.404.289.265 0 .482-.04.61-.152.495-.43 2.083-1.25 2.95-1.553.495-.171 1.308-1.004 1.594-1.004.067 0 .105.044.105.15 0 .466 2.68.7 3.575.7 1.519 0 3.938-1.05 4.916-1.476.594-.258 1.232-.363 1.886-.363 2.374 0 4.95 1.384 6.337 1.84l.359.153c.517 0 1.648-.11 2.62-.11.714 0 1.344.06 1.58.266.573.497 5.87 4.737 5.9 4.813.919 2.393-3.656 3.037-1.25 5.124.203.177.414.879.535.932.092.04.21.053.34.053.236 0 .513-.042.765-.042.152 0 .297.016.415.066.557.242 1.324 1.313 2.77 1.941.445.193 1.297.27 2.332.27 2.886 0 7.19-.6 8.037-.97.503-.218 1.096-.295 1.736-.295 1.562 0 3.41.46 4.96.46.484 0 .94-.046 1.35-.164 2.43-.703 4.84-1.173 7.488-1.173.647 0 1.307.027 1.986.087l.536.078c.617 0 1.921-.157 2.77-.157 1.578 0 .176 1.86.627 2.64.58 1.01 2.104.487 2.95.855.242.103.264 1.317.625 1.63.107.091.251.12.415.12.253 0 .547-.07.794-.07.08 0 .155.008.22.028.265.075.214.713.538.853.2.088.42.122.655.122 1.032 0 2.335-.686 3.344-.686.27 0 .52.049.737.175.128.075-.13.72 0 .778 1.421.616 2.363 1.253 3.934 1.707.316.093.67.129 1.036.129.918 0 1.92-.234 2.629-.44.265-.076.55-.102.844-.102.647 0 1.342.128 1.987.128.29 0 .572-.027.833-.104 2.344-.677 6.155-2.705 7.956-4.268.281-.245.597-.33.932-.33.758 0 1.607.436 2.35.436.195 0 .383-.03.562-.106 1.782-.775 4.562-1.398 6.703-1.398.764 0-.788-.73-1.43-1.008a1.476 1.476 0 0 0-.589-.099c-.533 0-1.177.148-1.702.148-.304 0-.568-.05-.747-.205-.152-.132 0-.963 0-1.164 0-.183-.188-.463 0-.545.535-.232 1.197-.298 1.905-.298.908 0 1.893.107 2.79.107.293 0 .577-.01.846-.041l.446.155c1.07 0 2.607.87 3.93.87.314 0 .617-.049.898-.171.688-.3.094-.547.625-.854.255-.148.576-.2.934-.2.912 0 2.065.34 2.98.34.307 0 .587-.038.824-.14.612-.267 1.638-.62 2.681-.62.296 0 10.783.557 8.492 1.551-.493.214-1.548.258-2.854.258-.914 0-1.954-.021-3.008-.021-4.655 0-9.63.42-5.758 4.965h.536c.502-.727.58-1.716 1.48-1.716.243 0 .546.074.933.241 2.77 1.203.565 2.12 1.61 3.027a.957.957 0 0 0 .653.244c.63 0 1.316-.498 1.878-.498.582 0 1.028.538 1.133 2.739v.387c1.774 0-1.057 4.129.179 5.201a.534.534 0 0 0 .362.145c1.169 0 2.749-3.877 3.266-3.877a.08.08 0 0 1 .036.008c.587.253-.566 3.013.18 3.336a.677.677 0 0 0 .271.068c1.082 0-.203-4.095.89-4.57a.777.777 0 0 1 .305-.076c.511 0 .324.905.679 1.008.122.034.233.05.337.05.565 0 .918-.433 1.386-.433.105 0 .215.02.332.071.302.132.292.863.537.933.067.019.164.025.275.025.178 0 .394-.016.59-.016.306 0 .566.038.566.223 0 .55-1.207 1.981-.805 2.33a.169.169 0 0 0 .118.046c.352 0 .842-1.059 1.29-1.059.068 0 .135.024.2.081.236.204-.151 1.055 0 1.319.078.136.152.195.219.195.484 0 .737-3.032 1.123-3.144a.679.679 0 0 1 .192-.026c.529 0 1.05.57 1.588.57.265 0 .534-.138.811-.544l.448.232c1.836.32 2.078 2.495 3.486 3.105.144.064.318.088.508.088.571 0 1.294-.21 1.862-.21.224 0 .423.032.578.122 2.146 1.243 3.776.5 5.186 2.95.606 1.056-4.476 1.73-4.738 2.642-.563 1.956 2.768 3.49 4.112 4.657.295.256.051 1.054.446 1.397.111.097.295.119.504.119.175 0 .368-.016.553-.016.42 0 .797.08.82.596l.179.388c0 1.173.12 1.495.319 1.495.242 0 .602-.483 1.01-.483.119 0 .243.044.37.153.212.182-.25.86.089 1.008a.97.97 0 0 0 .396.074c1.271 0 3.576-1.686 4.927-1.686.264 0 .49.062.667.215 1.015.882 2.998 1.207 4.111 2.173.232.202.638.933.893.933 2.99 0-3.307 3.031-3.664 3.959-.26.68-1.83 1.221-2.413 1.475-.44.19-.703.71-1.162 1.009-.643.419-1.787.18-2.503.387-1.908.554-.82 1.114-1.608 2.486-.078.134-.291.15-.516.15l-.198-.001c-.375 0-.687.042-.36.628l.09.464a12.95 12.95 0 0 0-1.162.854c-.394.342 3.017 6.892 3.576 7.376.045.039.13.055.234.055.312 0 .798-.133.927-.133.041 0 .52-1.463 1.074-1.463.116 0 .237.064.356.221.501.652.474.443-.357 1.165-.604.524-.83 1.332-1.699 1.708a.796.796 0 0 1-.304.048c-.309 0-.71-.09-1.036-.09-.184 0-.343.029-.447.118-.493.43-.07 1.39-.804 1.71-.213.09-.414.129-.607.129-1.096 0-1.941-1.252-2.977-1.252-.17 0-.346.033-.528.113-.457.197-.492.738-.894.853-.865.251-2.934-.028-3.397.777-.182.318-.32 1.365-.536 1.553-1.069.927-1.867.242-.18 1.708.335.29-.82.45-.625.62.248.216.563.263.877.263.243 0 .484-.028.694-.028.494 0 .817.151.575 1.163l.09.388c-.615 2.665-4.595 3.163-4.203 6.21v.389c.55.794.6 1.287 1.788 1.631.288.081.339 1.787.894 2.173.931.647 3.378 1.597 3.934 2.562.6 1.043 1.811 2.117 2.77 2.95.776.673 2.07.211 3.039 1.475.959 1.248-2.307 4.224-3.308 4.659-1.72.746-2.508 3.03-3.754 3.57-.182.08-.357.113-.526.113-.917 0-1.654-.995-2.551-.996-.16 0-.325.031-.498.107-.796.346-.82 1.443-1.43 1.708-.24.103-.56.12-.9.12-.164 0-.331-.003-.497-.003-.469 0-.919.032-1.195.271-.5.434.113 1.421-.447 1.786-2.11 1.374-6.19 1.714-8.848 2.173l-.537-.155c-.453 0-2.247-.111-3.843-.111-1.303 0-2.475.073-2.683.344-.485.631-.877 1.43-1.698 1.785a.676.676 0 0 1-.268.042c-.36 0-.888-.128-1.256-.128-.154 0-.28.022-.352.086-.238.207-.293 4.932-.805 5.823-.108.188-1.032.353-1.252.544a.388.388 0 0 1-.26.094c-1.063 0-3.326-3.531-3.584-3.976-.2-.348-1.37-.65-1.698-.933-.08-.067-8.627-.806-10.6-.806-.223 0-.362.01-.394.03-.14.094-.768.863-1.03.863a.112.112 0 0 1-.043-.008c-.603-.262-.885-2.71-1.608-3.339-.23-.198-.643-.264-1.147-.264-1.004 0-2.367.263-3.329.263a2.64 2.64 0 0 1-.71-.076c-1.605-.465-3.187-1.74-4.826-2.097a1.892 1.892 0 0 0-.398-.042c-.483 0-.91.185-1.3.354-2.614 1.135.846 3.484 2.055 4.812l.27.389c0 2.522 1.78 1.807 3.753 2.95 1.133.656 1.88 1.476 2.771 2.251.707.615-.41 1.289-.715 1.552-.601.523.988.842.805 1.32-.382.991-.476 2.647-.09 3.649.18.472.63.585 1.073.775.225.1-.255 1.334.09 1.632.602.524 2.323 1.549 2.323 3.106 0 1.057-.675 1.25-1.162 2.095-.825 1.432 3.342 2.805 4.112 3.029.12.033.237.05.351.05.955 0 1.748-1.09 3.31-1.09.505 0 1.092.114 1.791.418.628.273 3.025 1.641 1.788 2.718-.983.853-7.805 2.263-9.743 3.104-1.1.478-1.558 5.546-2.86 6.676a.435.435 0 0 1-.296.096c-.687 0-2-.932-2.934-.932-.446 0-.806.212-.971.836l.09.388c-2.09 0-3.109 2.048-4.649 2.718a.462.462 0 0 1-.185.04c-.507 0-.84-.925-1.264-.925a.384.384 0 0 0-.25.109c-.188.162-3.18 2.468-3.396 2.561a.458.458 0 0 1-.19.034c-.314 0-.788-.168-1.178-.168a.819.819 0 0 0-.33.057c-.918.398.254 2.258-.805 2.717-.568.246-2.293.128-2.681.466-.312.271-.774 1.504-1.295 1.504a.357.357 0 0 1-.136-.028c-.534-.232.242-1.122-.09-1.553-.248-.326-1.798-1.387-2.762-1.387a.937.937 0 0 0-.366.066c-1.088.473-2.55.72-3.753 1.242-1.526.663-3.514 2.828-5.9 2.828a3.991 3.991 0 0 1-1.61-.343c-.114-.05.073-.571 0-.699-.706-1.227-2.953-1.026-3.932-2.019l-.626-.388c-4.339-3.767-5.225-10.426-7.419-15.603l-.268-.7c-.73-3.174-4.643-6.67-7.508-9.16-.795-.69-2.886-.201-3.307-.932-.282-.49 6.025-4.594 6.435-4.813l.358-.388c3.576-3.106-.698-3.904-1.162-6.443l-.357-.31c-.842-1.827-3.303-1.825-3.665-3.649l-.268-.311c-1.973-4.281-2.316-8.918-1.788-13.896v-.31c0-1.256-.378-4.643.715-5.592.474-.41 1.473-.347 1.966-.775.596-.517-.346-3.134 0-4.038.624-1.624 2.401-1.31 3.755-2.095.495-.288.245-1.153.178-1.475l-.178-.465c-1.178-2.558-3.41-4.018-6.061-4.018-1.084 0-2.235.244-3.414.756-.247.108-.533.147-.842.147-.842 0-1.855-.293-2.697-.293-.31 0-.595.04-.841.146-.26.113-.335.46-.626.544a3.35 3.35 0 0 1-.924.112c-1.052 0-2.295-.314-3.35-.314-.433 0-.835.053-1.179.202-.43.188.086.856-.268 1.009a.602.602 0 0 1-.245.05c-.632 0-1.362-.864-1.632-.981a1.137 1.137 0 0 0-.446-.078c-.447 0-.984.155-1.432.155-.163 0-.314-.02-.446-.077-.567-.247-1.363-.76-2.148-.76-.148 0-.297.018-.444.061-1.085.314-2.205.905-2.86 1.476a.625.625 0 0 1-.417.171c-.501 0-.971-.661-1.481-.661a.597.597 0 0 0-.158.023c-.316.091-.584.72-1.176.72-.129 0-.27-.028-.434-.099-.216-.094.3-1.388-.268-1.553-1.472-.426-4.146-3.165-4.916-4.503-.982-1.706-3.235-1.936-3.664-3.958.036-.161-.237-.675-.403-.747-.066-.03-.514-.73-.703-.894-.03-.025-.087-.03-.15-.03-.051 0-.105.003-.151.003a.35.35 0 0 1-.1-.01c-.132-.046-.207-.15-.314-.205-.2-.104-.478-.11-.693-.184-.344-.12-.466-.483-.972-.495-.307 0-.753.025-1.23.025-.702 0-1.475-.055-1.988-.336l-.627-.233c-2.374-.825-3.86-1.222-5.206-1.222-1.67 0-3.123.608-5.787 1.766-.213.092-.435.13-.67.13-1.375 0-3.127-1.363-5.233-1.363-.261 0-.53.02-.801.069-.964.167-5.15.966-6.397.966a.934.934 0 0 1-.307-.035c-1.156-.501-3.584-1.998-2.86-3.881.065-.17.672-.152.446-.544-1.064-1.849-3.717-.899-5.184-2.173-.32-.279.42-.265.537-.467.23-.4.016-.948-.268-1.32-.17-.22-1.076-.079-1.34-.31-1.072-.93 3.395-5.728 3.395-7.375 0-.97-1.196-3.2-2.324-3.881l-.448-.079c-.26-.57-.35-1.355-.981-1.63-.172-.074-1.252-.31-1.342-.466-.133-.23.206-.986 0-1.164-.217-.189-.705-.293-.893-.621-.434-.752-.34-3.51-.805-4.115-.178-.231-.805-.185-.805-.466 0-.617.814-.05.447-1.008-.59-1.534-4.2.384-4.2-3.494 0-.114-.07-.161-.187-.161-.718 0-3.312 1.773-4.168 1.773-.088 0-.156-.018-.204-.06-.867-.753 2.776-3.48 3.218-3.96 2.174-2.361 2.512-6.163 3.306-8.927.242-.84-.111-1.728.18-2.484.283-.739.516-1.364.982-2.174.114-.197 1.006-.281 1.163-.62.337-.732.612-1.576.803-2.252l.493-.621c.975-1.483.914-3.658 2.95-4.542.165-.072.51-.085.878-.085.22 0 .447.005.652.005.324 0 .588-.013.659-.076.388-.336 1.147-.322 1.654-.542.608-.264.905-.708 1.34-1.088 1.607-1.393 1.647-3.952 2.727-4.89.126-.108.831-1.172 1.007-1.172" mask="url(#b)"/>
        </g>
        <path fill="#626262" d="M59.02 63c-1.483 0-4.45.805-5.913 2.115a3.658 3.658 0 0 0-.166.155c-2.692.998-3.56 3.142-3.84 4.483-.033.073-.07.15-.105.23-1.312 2.906-1.326 5.31-.052 7.165.231.82.714 2.033 1.868 3.067C52.022 81.3 53.88 82 55.547 82a5.8 5.8 0 0 0 2.668-.64c.283-.094.887-.252 1.263-.351 1.72-.45 3.207-.838 4.461-1.963 2.317-2.078 2.404-5.203 1.606-7.846.164-1.338.245-3.937-1.818-5.907l-.005-.007c-.378-.406-1.164-1.252-2.388-1.8A5.598 5.598 0 0 0 59.021 63m0 5.53a.38.38 0 0 1 .154.023c.325.145.65.582.856.766.551.494-.196 2.145.089 2.782.206.463.792 2.316.27 2.783-.553.496-3.665.98-4.59 1.531a.498.498 0 0 1-.253.056c-.4 0-1.007-.257-1.187-.42-.41-.367-.206-1.352-.899-1.973-.45-.404.9-2.407.9-3.105.03-.826 1.377-.463 1.8-.969.19-.226.238-.495.495-.725.215-.194 1.79-.75 2.365-.75"/>
    </g>
</svg>
