<svg id="Capa_1" data-name="Capa 1" xmlns="http://www.w3.org/2000/svg" viewBox="0 0 271 236">
  <defs>
    <style>
      .cls-1{fill:#626262}
    </style>
  </defs>
  <path class="cls-1" d="M267.08 174.55q-10.85-10.94-21.79-21.79v-.12a4.09 4.09 0 00-.57-1.67 6.2 6.2 0 01.22-.78 8 8 0 00.23-4.5v-.11l.06-.09c1.12-1.63 3.45-5 1.39-8.78-.37-.68-.61-1.17-.79-1.53a5.54 5.54 0 00-2.44-2.8l-.85-.54-1.91-2.61a2.67 2.67 0 00-.62-.61l-1.65-1.16a8.06 8.06 0 00-3.83-3.58c-1.64-.78-1.73-.87-2.11-1.28l-.39-.4a14 14 0 00-4.25-2.8 4.26 4.26 0 00-2.28-1 5.48 5.48 0 00-.77-.46l-.19-.17a12.44 12.44 0 00-3.61-2.06l-.69-.3a6.26 6.26 0 00-4-1.36 8.82 8.82 0 00-3.22.68 5.7 5.7 0 00-1.93-1.57 5.78 5.78 0 001.22-1.95 5.66 5.66 0 00-.38-4.84 9.32 9.32 0 00-6.28-4.64 3.9 3.9 0 01-.83-.27 6.18 6.18 0 00-2.11-.74c9.72-20.44 9.34-41.59-1.3-63.58h10.8c2.67 0 4.17-1.2 4.2-3.3s-1.5-3.38-4.11-3.38c-4.46 0-8.92-.05-13.38 0a3.14 3.14 0 01-2.92-1.41C175.32 1 138.58-7.79 107.6 8c-4.31 2.2-8.22 5.2-12.22 8a3.31 3.31 0 00-.82 4.93c1.23 1.53 3.19 1.65 5 .3.45-.33.88-.69 1.32-1a63.24 63.24 0 0179.35 1.68c2.94 2.48 5.55 5.36 8.31 8.05l-.32.56h-28.13c-2.62 0-3.88 1.24-3.91 3.79q-.05 4.6 0 9.2c0 2.28 1.39 3.73 3.36 3.72s3.28-1.47 3.32-3.76V37.2c10.05 0 19.8 0 29.55.07.65 0 1.51.84 1.9 1.51a61.76 61.76 0 018.14 40.18A64.51 64.51 0 01197 97.71a4.94 4.94 0 00-2.79-.2 6.13 6.13 0 00-1.3-.14 6 6 0 00-1.14.11 5.66 5.66 0 00-1-.57 6.24 6.24 0 00-.8-.26 55.41 55.41 0 005.31-36.46c-1-4.73-2.81-9.29-4.45-13.86-.82-2.3-2.79-3-4.64-2.16s-2.39 2.68-1.4 5c.11.26.23.51.35.76a50.27 50.27 0 012 36.55c-1.87-1.28-4.54-1.55-6.85-1.78-2.16-.21-4.53-.35-5-.35a11.79 11.79 0 00-3.88.7h-.23a14.07 14.07 0 00-2.35-.24 7.12 7.12 0 00-3.49.85 11.58 11.58 0 00-1.74-.41 5.34 5.34 0 00-2.18-.21h-.33c10.61-4.45 18.45-15.35 18.5-27 0-2.5-1.16-4-3.18-4.11s-3.42 1.42-3.51 4a23.37 23.37 0 01-18 22.12c-1.41.34-2.88.44-4.32.66a19.11 19.11 0 019.37-5.84c2.3-.72 3.4-2.44 2.8-4.33s-2.43-2.83-4.74-2a58.71 58.71 0 00-7.05 3.06 49 49 0 00-4.68 3.08 13.07 13.07 0 0110-13.58 46.35 46.35 0 016.64-.47 3.33 3.33 0 000-6.67c-1.18-.07-2.37 0-3.55 0a19.94 19.94 0 00-19.51 16.53c-.32 1.87-.36 3.79-.54 5.78-2.24-2.56-3.75-5.22-3.19-8.69a21.59 21.59 0 000-3.55 20 20 0 00-20-20.1h-15.89c-3.09 0-4.26 1.22-4.21 4.33.18 11.64 8.18 22.86 19.15 27.05 4.86 1.86 9.88 2.19 15 2.1a2.88 2.88 0 012.15.73A23.52 23.52 0 01136 94h-.13l-.17-.07a5.62 5.62 0 00-1.7-1.57 6.7 6.7 0 00-3.42-.9 9 9 0 00-2.12.27h-.08a5.31 5.31 0 00-2.14-1.76 5.8 5.8 0 00-1-1.77 6 6 0 00-4.8-2.22c-.66 0-1.37.05-2 .1h-.78c-.81-.07-1.64-.11-2.45-.11a31.2 31.2 0 00-8.79 1.34 16 16 0 01-1.74-.18 23.55 23.55 0 00-3.2-.28 9.65 9.65 0 00-3.59.63 36 36 0 01-6.15.64h-.45l-.32-.27a6.65 6.65 0 00-.14-4.65c-.38-1-.49-1.27-2.09-2.63A49.09 49.09 0 0188 64c2.49-19.26 13-32.87 30.84-40.46 12.11-5.15 24.52-5 36.87-.4 2.72 1 4.73.38 5.4-1.67s-.36-3.94-3.27-4.59c-5.28-1.18-10.59-2.65-15.95-2.94C107.37 12.14 79.68 42.4 83 75.87a7.75 7.75 0 00-4.63-1.23c-.6 0-1.21 0-1.72.06l-.48-.2-.17-.05c0-.8-.07-1.61-.08-2.41a63.34 63.34 0 0113.69-40.76 7.93 7.93 0 001.23-1.92 3.29 3.29 0 00-1.67-4.06c-1.6-.8-3.2-.33-4.52 1.43-10.9 14.55-16.22 30-15.5 46h-.09a10.57 10.57 0 00-1.79.16A10.53 10.53 0 0067 71.7a6.44 6.44 0 00-1.8-5.7 7.23 7.23 0 00-2.36-1.74 5.68 5.68 0 00-2.29-.47 10.86 10.86 0 00-5.85 2l-.16.15a5.73 5.73 0 00-3.8 4.33l-.1.22c-1 2.23-1.24 4.15-.65 5.75a6 6 0 00-1.39.4c-.83.36-1.78.69-2.79 1l-.66.23h-.27a8.3 8.3 0 00-4.91 1.57l-.7.16a13 13 0 00-4.17 1.46 6.29 6.29 0 00-1.16-1.37 6.11 6.11 0 00-.26-1.12c.54-2.59 0-4.63-1.74-6.11a5.4 5.4 0 00-3.53-1.33 6.08 6.08 0 00-5 3 10.13 10.13 0 00-2.09 3.74c-.1.28-.24.67-.34.88h-.05l-.55.16a7.19 7.19 0 00-3 .53 9.47 9.47 0 00-5.07 6c-.06.17-.14.38-.2.52l-.22.28a5.34 5.34 0 00-.94 1.85 5.44 5.44 0 00-1.45 1.65 18.54 18.54 0 00-1.3 2.85v.08a8 8 0 00-.45 3.39c-.18.67-.33 1.34-.48 2a13.3 13.3 0 01-1.41 4.25l-.25.21c-2 1.75-4.57 3.93-4.58 7.14a5.73 5.73 0 002 4.34 5.64 5.64 0 003.72 1.38 6.65 6.65 0 002.14-.37 7.68 7.68 0 001.39.75 5.42 5.42 0 00.51.72 9.12 9.12 0 001 3.7 6 6 0 00.38.58 5.5 5.5 0 00.51 1.21 5.41 5.41 0 002.32 2.29 5.33 5.33 0 001.29 1.45l-.2.31a28.69 28.69 0 00-1.77 3c-1.72 3.57-.52 6 .46 7.18a5.57 5.57 0 001.69 2.8 8.13 8.13 0 003.13 1.68 10.13 10.13 0 005.81 5.81 6 6 0 002.44.48 46 46 0 006.69-.94l.51-.09a9.77 9.77 0 011.15.41 10.56 10.56 0 004 1 7 7 0 002.8-.58 14.25 14.25 0 013.63-1.32 14.77 14.77 0 013.37.91l.33.13a9.78 9.78 0 004.09.76 9.67 9.67 0 003.58 3.82l.35.25a21 21 0 004.57 4.9 5.54 5.54 0 002.9 3.1 6.38 6.38 0 002.57.55 6.08 6.08 0 001.59-.21 5.94 5.94 0 005-1.24 6.42 6.42 0 002.51.49h.24a6.42 6.42 0 003.25.91 5.91 5.91 0 002.38-.5 5.53 5.53 0 001-.56 14 14 0 001.65.11 8.52 8.52 0 002.41-.33 5.75 5.75 0 00.88-.34 11.88 11.88 0 001.78.15 7.91 7.91 0 001.58-.16v.09a6.93 6.93 0 00-.43 2.66h-.06c-2.82 2.47-2.66 6.4-2.56 9v.62c-.63 6.35.11 11.72 2.27 16.43a5.35 5.35 0 00.36.66 8.59 8.59 0 003.76 4l.16.09.17.25a8.59 8.59 0 00.47.88l-1.35.92c-3.1 2.17-4.62 3.41-5.21 5.47a5.39 5.39 0 00.5 4.2 6.6 6.6 0 005.34 3.12c3.71 3.34 4.71 4.85 4.87 5.54a5.66 5.66 0 00.22.71l.27.7.07.17c.54 1.29 1 2.77 1.52 4.34 1.45 4.5 3.09 9.6 7.28 13.26a5.35 5.35 0 00.69.51l.27.17a8.64 8.64 0 002.73 1.42 5.46 5.46 0 002.28 1.89 9.29 9.29 0 003.74.79 12.58 12.58 0 007.28-2.78c.27-.18.62-.43.78-.52l.36-.13a5.72 5.72 0 008.83.34 7 7 0 001.8-.5 6 6 0 003-2.94c.44-.27 1-.65 1.54-1.05a5.9 5.9 0 00.67 0 5.76 5.76 0 002.32-.49 11.18 11.18 0 003-2.09l.28-.25a5.34 5.34 0 001.41-.43 6.48 6.48 0 001.57.2 5.78 5.78 0 003.81-1.41c1.85-1.62 2.5-3.94 3.13-6.19v-.17l1.82-.5c4.21-1.14 6.13-1.7 7.56-3a6.2 6.2 0 002.1-5.63c-.57-3.69-4.17-5.53-5.26-6a9.78 9.78 0 00-3.92-.87 8.48 8.48 0 00-1.33.11 8.29 8.29 0 00-2.38-4.54 5.24 5.24 0 00-1.06-2.35 5.87 5.87 0 00.08-2.1 5.92 5.92 0 00.19-1.33v-.58a5.68 5.68 0 001.86-.73c2 .12 5.31.39 7.09.56 2.26 3.39 4.69 5.11 7.24 5.11a5.74 5.74 0 002.69-.67 6 6 0 003.45-2.66 10.06 10.06 0 001.07-4.06 7.74 7.74 0 001.53-1.23c.87 0 1.81 0 2.52.08h.28a5.34 5.34 0 002.29.1l1.6-.25c2.93-.44 6.57-1 9.23-2.73a5.87 5.87 0 001.56-1.5 6.42 6.42 0 00.68-.25 6 6 0 00.95-.52 6.61 6.61 0 004-.41 9.27 9.27 0 003.66-3.18c.14-.18.33-.43.46-.59a14.19 14.19 0 005.58-5.81l.19-.05 1.5-.35 1.71 1.72-.39 1a2.68 2.68 0 00-.17 1.21v.37l-1.46 1.56a2.67 2.67 0 00-.75 2.33 3.55 3.55 0 003.56 2.92 9.72 9.72 0 001.12-.08 3.88 3.88 0 011.48 0l.57.14a4.25 4.25 0 000 2.61 2.82 2.82 0 001.19 1.36 3.61 3.61 0 00.61 1.34c.13.18.25.34.37.48a4.26 4.26 0 00-.65.77 4 4 0 00-.22.36 8.24 8.24 0 00-.74.79l-.12.15a2.74 2.74 0 00-2.71 2.94 3.24 3.24 0 001.09 2.48l-.3.54a15 15 0 00-2.19 6.62v.58c-1 1.28-.35 2.78.14 3.92a25.81 25.81 0 011.07 2.65l.13.38.06.18a4.45 4.45 0 00.08 1.12 4.06 4.06 0 001.7 2.58l.67.54v.39a3.82 3.82 0 00-.43 1.74v.26c-.15.75-.56 2.73 1.11 4a4.14 4.14 0 00.39.26 3.11 3.11 0 002.64 2.11 9.39 9.39 0 00.89 1.12 6.88 6.88 0 001.74 1.47v.06a6.07 6.07 0 002.14 2.52 8 8 0 003.54.92h.14a2.76 2.76 0 00.85 1 2.64 2.64 0 001.57.5 4 4 0 001-.16 3.28 3.28 0 002.93-1.87 1.86 1.86 0 01.24-.3 3.23 3.23 0 00.94-2.16 3.54 3.54 0 002.19-3.06l.06-.3a4.23 4.23 0 00.19-1 2.11 2.11 0 01.3-.5 2.54 2.54 0 00.58-2.42 1.13 1.13 0 010-.39 3 3 0 001.6-.62 4.12 4.12 0 001.37-3l.23-2.32a2.59 2.59 0 000-.27v-1.12a3.61 3.61 0 000-2.19l.07-.22c.06-.21.11-.41.16-.58a3.73 3.73 0 002.35-3.66 6.62 6.62 0 00-.73-3 3.44 3.44 0 000-.82 3.22 3.22 0 00-.21-.85 10 10 0 006.41-2.8q5.09-4.81 9.9-9.9a9.75 9.75 0 00.04-13.59zM129.32 65.09c-2.88-1.19-5.59-2.41-8.38-3.41a3.27 3.27 0 00-4.41 2c-.63 1.91.33 3.6 2.44 4.39a51.1 51.1 0 014.89 2.09c-9.93 0-20.56-10-20.72-19.52 4.86 0 9.74-.35 14.56.08a13 13 0 0111.62 14.37zm109.88 81.6l.62-.62c0 .25.08.47.12.67a4.13 4.13 0 01.11.79zM236.76 133l1.74 2.38a2.67 2.67 0 00.72.67l1.28.81.28.18c0 .09.11.21.17.34l-5.58 5.62a9.06 9.06 0 00-6.38-2.2zm-29.18 21.64v-.05a3 3 0 00.06-1.13 3 3 0 00-.13-.55l.05-.16 1 .95zm2.17 7.22a2.8 2.8 0 01-.26-.31 6.29 6.29 0 00-.54-.73l.7-.7a9.1 9.1 0 00.1 1.75zm18.79-35.58a10 10 0 003.67 2.4 3.6 3.6 0 01.81.52l-10.4 10.4L217 134a6.48 6.48 0 00.57-.33 7.39 7.39 0 001.1-.89 8.78 8.78 0 003.72-2.69l.85-.58c1.37-.92 3.32-2.23 4.25-4.13a6.73 6.73 0 01.71.6zm-27-20.33a1.15 1.15 0 01.58.12c2.14 1.25 3.76.5 5.17 3 .6 1.06-4.46 1.73-4.72 2.65-.56 2 2.76 3.5 4.1 4.67.29.26.05 1.06.45 1.4a.77.77 0 00.5.12h.55c.42 0 .79.08.82.6l.18.39c0 1.18.12 1.5.32 1.5s.6-.48 1-.48a.55.55 0 01.37.15c.21.18-.25.86.09 1a1 1 0 00.39.07c1.27 0 3.56-1.69 4.91-1.69a1 1 0 01.66.22c1 .88 3 1.21 4.1 2.18a4.35 4.35 0 01.41.5 3.22 3.22 0 00-.82.58 14.56 14.56 0 00-1.51 1.66 6.05 6.05 0 00-1.26.54l-.42.23a19.57 19.57 0 00-2.83 1.83 3.32 3.32 0 00-3.13.84c-.06.06-.12.15-.19.22L197 114c-.43-.43-.83-.91-1.21-1.32q2.2-3.24 4-6.51c.61-.05 1.21-.17 1.74-.17zM162 90.28l.45.16c1.06 0 2.6.87 3.91.87a2.21 2.21 0 00.9-.17c.69-.3.09-.55.62-.86a1.84 1.84 0 01.93-.2c.91 0 2.06.34 3 .34a2.06 2.06 0 00.82-.14 7 7 0 012.67-.62c.3 0 10.74.56 8.46 1.56a9.13 9.13 0 01-2.84.26h-3c-4.64 0-9.6.42-5.74 5h.53c.5-.73.58-1.72 1.48-1.72a2.39 2.39 0 01.93.24c2.76 1.21.56 2.13 1.6 3a1 1 0 00.65.24c.63 0 1.31-.5 1.87-.5s.91.42 1.08 2a51.92 51.92 0 01-6.86 7.79 49.49 49.49 0 01-30.54 13.22v-19.92h6.57v7.41c0 2.41 1.34 4.16 3.41 4.11s3.26-1.58 3.28-4V98.11c0-1.74-.46-2.85-1.44-3.46A19 19 0 01161 93.4c.76 0-.79-.73-1.42-1a1.48 1.48 0 00-.59-.1c-.53 0-1.17.15-1.7.15a1.11 1.11 0 01-.75-.21c-.15-.13 0-1 0-1.17s-.19-.46 0-.54a4.83 4.83 0 011.9-.3c.9 0 1.88.11 2.78.11a7.54 7.54 0 00.78-.06zm-32.47 10.58H136v20l-6.42-.84zm17.15-13.58c1.91 0 3.83 0 5.73-.21a5.49 5.49 0 00-1.13 2.06 6.64 6.64 0 00-4.37 1.65 19.65 19.65 0 01-3.72 2.27c.47-1.53.88-2.85 1.25-4.18a2 2 0 012.28-1.59zm-47 5.18a4.33 4.33 0 011.73-.3c1.55 0 3.4.46 4.94.46a4.83 4.83 0 001.34-.16 26.16 26.16 0 017.46-1.18c.64 0 1.3 0 2 .09l.53.08c.61 0 1.91-.16 2.76-.16 1.57 0 .18 1.86.62 2.65.56 1 2 .52 2.86.83-.91.7-1.18 2-1.18 4.29v18.7c-.73-.21-1.26-.35-1.77-.53a49.45 49.45 0 01-27.64-23.85 30.8 30.8 0 006.36-.92zM78.35 80a2.93 2.93 0 011.57.27c.38.33 2.84 2.32 4.45 3.64q.4 1.63.89 3.21c-.91 1-2.26 1.76-.71 3.11.2.18.41.88.53.93a.86.86 0 00.34.05h.76a1 1 0 01.41.07l.09.05A56.64 56.64 0 00155.84 125a55.84 55.84 0 0028.4-19.48.36.36 0 00.15.18.69.69 0 00.27.07c.42 0 .48-.61.47-1.39q.81-1.1 1.56-2.23h.18c.56 0 .91-.43 1.38-.43a.82.82 0 01.33.07c.3.13.29.86.53.93a1.07 1.07 0 00.27 0h.59c.3 0 .56 0 .56.22 0 .55-1.2 2-.8 2.34a.17.17 0 00.12 0c.35 0 .84-1.06 1.29-1.06a.3.3 0 01.2.08c.23.2-.15 1.06 0 1.32s.15.2.22.2c.48 0 .74-3 1.12-3.15h.19c.4 0 .79.32 1.18.48A63.57 63.57 0 0176.56 80h1.79zm-22.43-8.52c0-.8 1.36-.45 1.78-.93.19-.22.24-.48.49-.7a7.08 7.08 0 012.34-.72.4.4 0 01.15 0 4 4 0 01.85.74c.55.48-.19 2.07.09 2.69a6.06 6.06 0 01.47 2h-.65a5.37 5.37 0 00-2.82-.79 5.86 5.86 0 00-3.32 1.07 1.42 1.42 0 00-.27-.33c-.45-.42.89-2.35.89-3.03zM33.86 99.33l.57.61a7.46 7.46 0 00.87 2.56 7.22 7.22 0 001.19 1.5 7.32 7.32 0 00.57 2.77c-.25.15-.49.32-.72.49h-.89a5.52 5.52 0 00-1.8-3.17 5.15 5.15 0 00-2.17-1.15 5.87 5.87 0 00-.19-.63c.06-.15.11-.29.16-.43a15.89 15.89 0 001.49-1.72 6 6 0 00.92-.83zm173.5 74c-1.71.75-2.5 3-3.74 3.58a1.29 1.29 0 01-.52.11c-.91 0-1.65-1-2.54-1a1.22 1.22 0 00-.5.11c-.79.35-.82 1.45-1.43 1.71a2.35 2.35 0 01-.9.12h-.49a1.83 1.83 0 00-1.19.27c-.5.44.11 1.43-.45 1.79-2.1 1.38-6.17 1.72-8.82 2.18l-.53-.16c-.45 0-2.24-.11-3.83-.11-1.3 0-2.47.07-2.67.35-.48.63-.87 1.43-1.69 1.79a.69.69 0 01-.27 0c-.36 0-.88-.13-1.25-.13a.55.55 0 00-.35.09c-.24.21-.29 4.95-.8 5.84-.11.19-1 .35-1.25.54a.38.38 0 01-.26.1c-1.06 0-3.31-3.54-3.57-4s-1.37-.65-1.69-.93c-.08-.07-8.6-.81-10.56-.81a1.27 1.27 0 00-.39 0c-.14.09-.76.86-1 .86-.6-.26-.88-2.72-1.6-3.35a1.8 1.8 0 00-1.14-.27c-1 0-2.36.27-3.32.27a2.6 2.6 0 01-.71-.08c-1.6-.47-3.18-1.74-4.81-2.1a1.85 1.85 0 00-.4 0 3.22 3.22 0 00-1.3.35c-2.6 1.14.84 3.49 2 4.83l.27.39c0 2.53 1.77 1.81 3.74 3a17.39 17.39 0 012.76 2.26c.71.62-.41 1.29-.71 1.56-.6.52 1 .84.8 1.32a6 6 0 00-.09 3.66c.18.47.63.59 1.07.78.22.1-.25 1.34.09 1.63.6.52 2.32 1.55 2.32 3.11 0 1.06-.67 1.25-1.16 2.1-.82 1.44 3.33 2.81 4.1 3a1.24 1.24 0 00.35.05c1 0 1.74-1.09 3.3-1.09a4.44 4.44 0 011.79.42c.63.27 3 1.65 1.78 2.72-1 .86-7.78 2.27-9.71 3.11-1.1.48-1.55 5.56-2.85 6.69a.43.43 0 01-.3.09c-.68 0-2-.93-2.92-.93a1 1 0 00-1 .84l.09.39c-2.08 0-3.1 2.05-4.63 2.72a.46.46 0 01-.18 0c-.51 0-.84-.93-1.26-.93a.38.38 0 00-.25.11c-.19.16-3.17 2.47-3.38 2.57a.48.48 0 01-.19 0c-.31 0-.78-.17-1.17-.17a.82.82 0 00-.33.06c-.91.4.25 2.26-.8 2.72-.57.25-2.28.13-2.67.47s-.77 1.51-1.29 1.51a.34.34 0 01-.14 0c-.53-.23.24-1.12-.09-1.56a5.23 5.23 0 00-2.73-1.28.91.91 0 00-.36.07c-1.09.47-2.54.72-3.74 1.25-1.52.66-3.5 2.83-5.88 2.83a4 4 0 01-1.6-.34c-.11-.05.07-.57 0-.7-.7-1.23-2.94-1-3.92-2l-.62-.39c-4.32-3.78-5.21-10.45-7.39-15.65l-.27-.7c-.73-3.18-4.63-6.69-7.48-9.19-.79-.69-2.88-.2-3.3-.93-.28-.49 6-4.61 6.41-4.83l.36-.39c3.56-3.11-.7-3.92-1.16-6.46l-.36-.31c-.86-1.86-3.31-1.86-3.69-3.68l-.27-.31c-2-4.29-2.31-8.94-1.78-13.93v-.31c0-1.26-.38-4.65.71-5.6.47-.41 1.47-.35 2-.78s-.35-3.14 0-4c.62-1.63 2.39-1.32 3.74-2.1.49-.29.24-1.16.18-1.48l-.18-.47a6.51 6.51 0 00-6-4 8.5 8.5 0 00-3.4.76 2.09 2.09 0 01-.84.15c-.84 0-1.85-.29-2.69-.29a2.09 2.09 0 00-.84.15c-.26.11-.33.46-.62.54a3.3 3.3 0 01-.92.11c-1 0-2.29-.32-3.34-.32a2.93 2.93 0 00-1.17.2c-.43.19.09.86-.27 1a.6.6 0 01-.24 0c-.63 0-1.36-.87-1.63-1a1.11 1.11 0 00-.44-.08c-.45 0-1 .16-1.43.16a1.11 1.11 0 01-.44-.08 5.68 5.68 0 00-2.14-.76 1.57 1.57 0 00-.44.06 8.15 8.15 0 00-2.85 1.48.62.62 0 01-.42.17c-.5 0-1-.66-1.48-.66h-.16c-.31.09-.58.72-1.17.72a1.07 1.07 0 01-.43-.1c-.22-.09.3-1.39-.27-1.56-1.47-.43-4.13-3.17-4.9-4.52-1-1.71-3.22-1.94-3.65-4a1.14 1.14 0 00-.4-.75c-.07 0-.51-.73-.7-.9a.25.25 0 00-.15 0h-.25c-.13 0-.2-.15-.31-.2a5.28 5.28 0 00-.69-.18c-.34-.12-.46-.48-1-.5h-1.23a4.41 4.41 0 01-2-.34l-.62-.23a16.28 16.28 0 00-5.19-1.23c-1.66 0-3.11.61-5.77 1.77a1.64 1.64 0 01-.67.13c-1.37 0-3.12-1.37-5.21-1.37a4.62 4.62 0 00-.8.07c-1 .17-5.13 1-6.37 1a.89.89 0 01-.31 0c-1.15-.5-3.57-2-2.85-3.89.07-.17.67-.15.45-.54-1.06-1.85-3.7-.9-5.17-2.18-.32-.28.42-.27.53-.47a1.29 1.29 0 00-.27-1.32c-.17-.22-1.07-.08-1.34-.31-1.07-.93 3.38-5.74 3.38-7.4a6.33 6.33 0 00-2.28-3.91l-.45-.08c-.26-.57-.35-1.36-1-1.63a6.45 6.45 0 01-1.34-.47c-.13-.23.2-1 0-1.17s-.7-.29-.89-.62c-.43-.75-.34-3.52-.8-4.13-.18-.23-.8-.19-.8-.47 0-.62.81-.05.45-1-.59-1.54-4.19.39-4.19-3.5 0-.11-.07-.16-.19-.16-.72 0-3.3 1.78-4.15 1.78a.3.3 0 01-.2-.06c-.86-.75 2.77-3.49 3.21-4 2.17-2.37 2.5-6.18 3.3-9 .24-.84-.11-1.73.18-2.49a13.89 13.89 0 011-2.18c.11-.2 1-.28 1.16-.62a16.3 16.3 0 00.8-2.26l.49-.62c1-1.49.91-3.67 2.94-4.55a2.76 2.76 0 01.88-.09h.6a1.51 1.51 0 00.66-.07c.39-.34 1.14-.32 1.65-.54a5.05 5.05 0 001.34-1.09c1.6-1.4 1.64-4 2.72-4.9.12-.11.83-1.18 1-1.18.42.36-.22 1.89-.36 2.26-.25.66.38 1.08.53 1.48s-.18 1.12 0 1.6.86.62.91 1.32c0 .29.69.39.87.54.67.58.62 2.65.94 3.46.2.51.67.65.67 1.36 0 .25.18.74.13.82-.24.43-.41 1-.62 1.48l-.13.19a2.11 2.11 0 00.13.39c.27.24 2.24.37 1.69 1.32-.15.26-.62.21-.85.51s0 .76-.27.9-1.67.35-1.78.54-.1.69-.31 1-.72.36-.85.58a9.74 9.74 0 01-1.83 2.18c-.17.15-.66.26-.76.43-.25.44 0 1.06-.22 1.48s-1.31.38-1.56.82.67 1.69.67 2.22a2 2 0 000 .39c.36.16.95 0 .89.58v.23c0 2.65.72.94.83 2.8.07 1.21.21 2.63.66 2.63.19 0 .43-.24.74-.84.14-.27-.07-1 .09-1.17a.7.7 0 01.33 0 5.81 5.81 0 011.18.12c.28.25-.53.59-.53.93 0 1-.15 3.14.62 3.81a.59.59 0 00.38.09c.37 0 .88-.11 1.26-.11a.64.64 0 01.41.1c.17.15.47.79.74.79h.07a17.07 17.07 0 012.23-1.09.94.94 0 01.25 0c.68 0 2 .39 2.5.39.1 0 .16 0 .18-.05a4.94 4.94 0 012.4-1.95c1-.29 2.43-3.64 2.23-4.52s-1.47-1.77-.89-3.11l-.09-.7c-.3-.39-.12-.94-.36-1.25-.49-.65-1.24-.92-1.6-1.56-.45-.79-.12-2.21-.89-2.88a23 23 0 01-4.19-5.37c-.19-.33.92-1.06.71-1.25s-1.29-.82-1.16-.93c1.09-1 2-2.51 3.12-3.5 1.36-1.19 4.77-.92 5.79-2.26.31-.4 2.6-.36 3.12-.54 1.45-.51 2.9-1 4.27-1.56a1 1 0 01.38-.06c.64 0 1.69.29 2.39.29a.94.94 0 00.61-.15l.17-.13a7.47 7.47 0 002.83.62 5.87 5.87 0 002.64-.62c.28-.09.88-.24 1.25-.34a10 10 0 004.41-1.89l.14-.15c.67-.26 1.27-.51 1.65-.68a4.65 4.65 0 011.88-.36h.56a75.74 75.74 0 005.75 20.46c9.88 22.88 27.89 36.45 52.47 41.07 2.62.49 5.29.76 7.92 1.11h.29c1.9.24 4.88-.2 6.79.15v-.19l5.65-.59 1-.11 6.7-1.31a70.11 70.11 0 0035.13-20.77L208 134.79l11.38 11.48-4.46 4.5-1.72-1.77-.86-.86-.26-.25-2.9-2.88-2.26-2.24q-6.57-6.57-13.14-13.15c-1.84-1.85-3.79-2.1-5.27-.6s-1.23 3.43.62 5.27l12.19 12.17a1.47 1.47 0 01-.24.59c-1.06.93-1.86.24-.18 1.71.33.29-.82.45-.62.62a1.26 1.26 0 00.86.26 2.66 2.66 0 00.21.6l.08.16a2.63 2.63 0 00-.66 1.13 2.51 2.51 0 00.18 1.87c-1.17 1-2.54 1.83-2.64 3.41a2.64 2.64 0 00.29 3l9.5 10.89a2.68 2.68 0 001.41.83 8.43 8.43 0 01-2.14 1.81zm19.73 22.89v-.32a4.22 4.22 0 00-.15-1.12 6.86 6.86 0 00.6-.65 2.78 2.78 0 01.35-.38 5.15 5.15 0 00.7-.71 5.58 5.58 0 001.83-2.68 4.44 4.44 0 00.16-1.88v-.24a3.18 3.18 0 00-.15-.94l1.09-1.09 3.67 3.65-8.56 8.47a3.89 3.89 0 00.46-2.09zm-.31 15.35a5 5 0 00-.43-.33l-.45-.36a5.87 5.87 0 00-.33-1.57l-.12-.36c-.16-.5-.26-.77-.52-1.42l14-13.89 2.87 2.86zm13.89 8.43a5.83 5.83 0 00-.81 2.22v.19l-.05.21a4.14 4.14 0 00-2.45 2.43 2.49 2.49 0 00-1-.2 2.23 2.23 0 00-.71.12h-.17l-.51-.05 5.73-5.85a6.58 6.58 0 00-.03.93zm4.82-14.63a4.22 4.22 0 00-1.18 2.35l-13.17 13.43a2.65 2.65 0 00-2.27-2.33 2.73 2.73 0 00-.88-1l16.13-16.13a3.19 3.19 0 00.41.89 3.09 3.09 0 00.95.91 2.66 2.66 0 00.62 1.18l.07.1a3.34 3.34 0 00-.68.62zM262.11 184q-4.51 4.64-9.17 9.14a13 13 0 01-2.56 1.5l-.56-.31v-.25a7.91 7.91 0 01-1.93-1.21c-2.62-2.61-5.22-5.23-7.84-7.85l-.16.15-3.68-3.68.16-.16-3.77-3.77-.16.16-4.13-4.13.16-.15-3.77-3.78-.16.15-4.26-4.26.16-.16-2.81-2.81a5.19 5.19 0 01-.84-1.09l-.14.14c-.71-1.32-.44-2.65.84-4q4.44-4.57 9-9c1.73-1.69 3.45-1.72 5.14 0q15.29 15.18 30.47 30.37c1.63 1.68 1.61 3.38.01 5zM227.08 47.18h38.91c2.73 0 3.94-1.22 4-3.95v-5.85a3.34 3.34 0 10-6.67-.08v3h-33.44V27.11h36.19c2.32 0 3.78-1.28 3.84-3.23s-1.44-3.44-3.84-3.44H227c-2.7 0-3.89 1.25-3.9 4v18.81c0 2.75 1.24 3.91 3.98 3.93z"/>
  <path class="cls-1" d="M253.18 57.17c0-2-1.51-3.28-4-3.29h-22.12c-2.47 0-4 1.26-4 3.28s1.46 3.39 3.88 3.39h22.32c2.46 0 3.95-1.34 3.92-3.38zM227 70.6c-2.41 0-3.9 1.37-3.86 3.41s1.5 3.23 3.8 3.26H242.57c2.57 0 3.94-1.28 4-3.31s-1.47-3.36-3.9-3.37q-7.9-.02-15.67.01z"/>
</svg>
