<?xml version="1.0" encoding="UTF-8" standalone="no"?>
<svg
   xmlns:dc="http://purl.org/dc/elements/1.1/"
   xmlns:cc="http://creativecommons.org/ns#"
   xmlns:rdf="http://www.w3.org/1999/02/22-rdf-syntax-ns#"
   xmlns:svg="http://www.w3.org/2000/svg"
   xmlns="http://www.w3.org/2000/svg"
   xmlns:sodipodi="http://sodipodi.sourceforge.net/DTD/sodipodi-0.dtd"
   xmlns:inkscape="http://www.inkscape.org/namespaces/inkscape"
   enable-background="new 0 0 1024 1023.998"
   height="44"
   id="Facebook_1_"
   version="1.1"
   viewBox="0 0 44 44"
   width="44"
   xml:space="preserve"
   inkscape:version="0.91 r13725"
   sodipodi:docname="facebook.svg"><metadata
     id="metadata21"><rdf:RDF><cc:Work
         rdf:about=""><dc:format>image/svg+xml</dc:format><dc:type
           rdf:resource="http://purl.org/dc/dcmitype/StillImage" /><dc:title></dc:title></cc:Work></rdf:RDF></metadata><defs
     id="defs19" /><sodipodi:namedview
     pagecolor="#ffffff"
     bordercolor="#666666"
     borderopacity="1"
     objecttolerance="10"
     gridtolerance="10"
     guidetolerance="10"
     inkscape:pageopacity="0"
     inkscape:pageshadow="2"
     inkscape:window-width="1688"
     inkscape:window-height="893"
     id="namedview17"
     showgrid="false"
     fit-margin-top="0"
     fit-margin-left="0"
     fit-margin-right="0"
     fit-margin-bottom="0"
     inkscape:zoom="5.2149228"
     inkscape:cx="21.999028"
     inkscape:cy="21.999993"
     inkscape:window-x="332"
     inkscape:window-y="72"
     inkscape:window-maximized="0"
     inkscape:current-layer="Facebook_1_" /><g
     id="Background"
     transform="matrix(0.04296875,0,0,0.04296875,-4.196167e-5,4.3272972e-5)"><linearGradient
       gradientTransform="matrix(0.9397,0.3421,0.3421,-0.9397,275.7368,766.0569)"
       gradientUnits="userSpaceOnUse"
       id="bg_1_"
       x1="464.29541"
       x2="-194.1044"
       y1="-72.753899"
       y2="711.8382"><stop
         offset="0"
         style="stop-color:#091435"
         id="stop5" /><stop
         offset="0.1677"
         style="stop-color:#0E1A3E"
         id="stop7" /><stop
         offset="0.4413"
         style="stop-color:#1B2C56"
         id="stop9" /><stop
         offset="0.7844"
         style="stop-color:#30497E"
         id="stop11" /><stop
         offset="1"
         style="stop-color:#3F5D9A"
         id="stop13" /></linearGradient><circle
       cx="512.00098"
       cy="511.99899"
       id="bg"
       r="512"
       style="fill:url(#bg_1_)" /></g><path
     d="m 28.907187,13.133015 0,-4.3720694 c -0.16053,0 -0.321103,-3.08e-4 -0.481633,3.5e-5 -0.386549,8.63e-4 -0.773142,-8.8e-4 -1.159726,4.4e-5 -0.471451,8.8e-4 -0.942823,-0.0018 -1.414318,4.4e-5 -0.415378,0.0018 -0.830888,-0.0044 -1.246221,1.32e-4 -0.627,0.0062 -1.222162,0.03731 -1.82351,0.230956 -0.579779,0.186745 -1.12398,0.513692 -1.587608,0.905828 -0.268471,0.2270404 -0.516956,0.4702024 -0.742025,0.7405204 -0.09114,0.11228 -0.176044,0.22902 -0.255323,0.349765 -0.237961,0.36227 -0.425947,0.760716 -0.582956,1.183143 -0.03529,0.09509 -0.06996,0.190441 -0.102996,0.286264 -0.242088,0.701422 -0.250078,1.467074 -0.250078,2.204162 0,0.0923 0,0.187476 0,0.284839 0,1.460254 0,3.407035 0,3.407035 l -4.167971,0 0,4.8125 4.017579,0 0.107422,0 0,12.074226 4.76953,0 0,-12.181647 4.329019,0.05843 0.583643,-4.731937 -4.891261,-0.01003 0,-3.652344 c 0,0 -0.01074,-1.557617 1.31054,-1.579107 l 3.587893,-0.01074 z"
     id="Facebook"
     inkscape:connector-curvature="0"
     style="fill:#ffffff" /></svg>