<svg width="600" height="284" xmlns="http://www.w3.org/2000/svg">
  <g fill="#FFF" fill-rule="evenodd">
    <path d="M265.631 79.39l-6.279 22.096h-74.11v-3.022c4.128 0 7.09-1.297 8.894-3.884 1.803-2.59 2.701-6.934 2.701-13.031V17.857c0-5.638-.885-9.493-2.657-11.567-1.775-2.07-4.753-3.106-8.937-3.106V.164h36.62v3.02c-4.184 0-7.136 1.253-8.851 3.756-1.715 2.503-2.57 6.57-2.57 12.21v67.66c0 2.593.359 4.59 1.09 6 .726 1.412 1.9 2.391 3.53 2.933 1.628.55 3.95.821 6.974.821h20.315c4.36 0 7.687-.43 9.986-1.294 2.293-.864 4.21-2.53 5.752-5.003 1.542-2.475 3.037-6.1 4.49-10.876h3.052z"/>
    <path d="M299.417 101.486h-34.951V98.46c4.26-.402 7.211-1.267 8.846-2.59 1.635-1.325 2.455-4.35 2.455-9.07V48.446c0-4.718-.849-7.728-2.543-9.025-1.692-1.297-4.611-2.147-8.758-2.549v-2.935h34.951v2.935c-4.149.402-7.068 1.252-8.76 2.549-1.695 1.297-2.538 4.307-2.538 9.025V86.8c0 4.721.815 7.746 2.45 9.071 1.634 1.323 4.582 2.188 8.848 2.59v3.025zM352.762 83.607c0-3.916-.953-7.043-2.863-9.374-1.907-2.33-4.223-3.974-6.94-4.923-2.721-.952-5.263-1.428-7.635-1.428h-9.371v20.474c0 2.477.216 4.437.65 5.875.435 1.44 1.3 2.505 2.604 3.194 1.3.693 3.166 1.039 5.598 1.039 5.898 0 10.365-1.382 13.403-4.146 3.035-2.766 4.554-6.333 4.554-10.711m-1.994-33.256c0-2.764-.65-5.154-1.954-7.173-1.3-2.013-3.253-3.567-5.854-4.662-2.604-1.095-5.786-1.643-9.546-1.643h-7.461V64.17h6.333c12.321 0 18.482-4.606 18.482-13.818m16.222 32.91c0 12.15-10.787 18.225-32.363 18.225h-32.88v-3.022c4.627-.29 7.796-1.108 9.502-2.462 1.704-1.354 2.558-4.42 2.558-9.202V48.45c0-4.721-.838-7.73-2.517-9.028-1.678-1.295-4.57-2.144-8.676-2.549v-2.935h33.578c6.822 0 12.26.865 16.308 2.592 4.05 1.725 6.914 3.8 8.59 6.219 1.678 2.42 2.518 4.723 2.518 6.909 0 7.835-6.104 13.13-18.307 15.896 6.189 1.207 11.35 3.009 15.485 5.399 4.135 2.387 6.204 6.492 6.204 12.308M417.715 52.165c0-4.78-1.17-8.52-3.505-11.23-2.337-2.705-5.96-4.062-10.867-4.062h-10.648v30.84h8.92c10.733 0 16.1-5.182 16.1-15.548zm33.159 49.32h-20.261a217.85 217.85 0 01-2.683-2.98c-.636-.72-1.528-1.825-2.682-3.322a549.336 549.336 0 01-3.942-5.184l-5.58-7.429c-3.696-5.125-6.712-8.321-9.049-9.588-2.339-1.264-5.037-1.899-8.094-1.899h-5.888V86.8c0 4.724.78 7.746 2.336 9.071 1.562 1.326 4.447 2.19 8.658 2.593v3.022H369.32v-3.022c4.212-.402 7.1-1.267 8.659-2.593 1.556-1.325 2.336-4.347 2.336-9.07V48.45c0-4.721-.808-7.73-2.424-9.025-1.615-1.298-4.472-2.147-8.57-2.552v-2.935h33.678a55.345 55.345 0 0118.568 3.196c6.033 2.132 9.046 6.94 9.046 14.427 0 3.568-1.285 6.881-3.852 9.932-2.57 3.052-6.478 5.355-11.73 6.911 3.405 1.553 6.29 3.644 8.657 6.262 2.368 2.62 6.117 7.441 11.257 14.468 2.885 3.859 5.324 6.307 7.314 7.341 1.993 1.04 4.863 1.7 8.615 1.989v3.022zM513.52 67.175c0-11.623-2.74-19.922-8.217-24.894-5.48-4.975-11.655-7.463-18.53-7.463-8.569 0-15.094 3.079-19.582 9.24-4.488 6.157-6.73 13.977-6.73 23.463 0 9.773 2.39 17.55 7.168 23.332 4.777 5.784 11.158 8.675 19.144 8.675 4.485 0 8.74-1.028 12.76-3.078 4.02-2.053 7.355-5.522 10.01-10.41 2.65-4.89 3.977-11.177 3.977-18.865m14.247.17c0 4.573-.992 8.98-2.973 13.23-1.98 4.25-4.821 8.04-8.522 11.363-3.7 3.327-8.087 5.94-13.154 7.847-5.07 1.912-10.578 2.865-16.519 2.865-5.829 0-11.248-.969-16.262-2.906-5.01-1.935-9.309-4.569-12.89-7.891-3.587-3.325-6.352-7.144-8.305-11.453-1.955-4.306-2.928-8.716-2.928-13.225 0-4.744 1.004-9.256 3.014-13.534 2.01-4.279 4.806-8.066 8.392-11.36 3.584-3.297 7.823-5.9 12.717-7.81 4.897-1.906 10.14-2.862 15.734-2.862 5.71 0 11.104.884 16.174 2.647 5.07 1.762 9.527 4.25 13.375 7.46 3.845 3.209 6.828 7.009 8.96 11.406 2.125 4.394 3.187 9.137 3.187 14.222M242.791 134.706c0-4.12-.99-7.804-2.966-11.046-1.98-3.242-4.796-5.773-8.455-7.595-3.657-1.821-7.898-2.73-12.72-2.73h-9.998v43.067h11.704c7.478 0 13.089-2.102 16.825-6.31 3.74-4.2 5.61-9.329 5.61-15.386zm33.326 69.265h-19.508c-3.577-4.338-7.654-10.126-12.233-17.356-4.58-7.232-7.802-12.239-9.673-15.026-1.87-2.784-4.375-5.354-7.517-7.715-3.145-2.355-6.747-3.533-10.812-3.533h-7.722v25.873c0 5.68.814 9.588 2.437 11.733 1.626 2.141 4.445 3.214 8.456 3.214v2.81h-34.302v-2.81c3.902 0 6.677-1.006 8.331-3.014 1.654-2.01 2.478-5.988 2.478-11.933v-59.06c0-5.944-.798-9.88-2.398-11.812-1.597-1.928-4.403-2.894-8.411-2.894v-2.81h39.095c6.773 0 12.575 1.155 17.397 3.454 4.822 2.304 8.426 5.36 10.809 9.16 2.383 3.804 3.576 7.848 3.576 12.135 0 5.518-1.57 10.244-4.713 14.183-3.145 3.936-8.13 6.923-14.957 8.959 3.956 2.519 7.357 5.732 10.202 9.64 2.845 3.912 6.218 9.054 10.12 15.43 3.902 6.374 7.204 10.983 9.915 13.82 2.71 2.842 5.853 4.42 9.43 4.742v2.81zM361.726 157.165c0-9.539-1.579-17.812-4.74-24.81-3.157-6.994-7.44-12.314-12.84-15.96-5.401-3.646-11.37-5.469-17.904-5.469-7.4 0-13.871 1.89-19.407 5.67-5.538 3.78-9.803 9.113-12.8 16.005-2.997 6.888-4.497 14.862-4.497 23.922 0 13.67 3.308 24.781 9.925 33.33 6.615 8.555 15.244 12.83 25.885 12.83 5.672 0 10.844-1.258 15.517-3.781a33.77 33.77 0 0011.627-10.255c3.075-4.313 5.386-9.153 6.926-14.511 1.538-5.364 2.308-11.022 2.308-16.971m14.585-.803c0 6.916-1.296 13.428-3.89 19.54-2.591 6.113-6.197 11.434-10.816 15.964-4.618 4.53-10.033 8.068-16.246 10.615-6.21 2.546-12.827 3.82-19.849 3.82-9.291 0-17.812-2.212-25.56-6.635-7.753-4.423-13.855-10.456-18.312-18.096-4.456-7.636-6.687-16.042-6.687-25.208 0-9.165 2.231-17.518 6.687-25.05 4.457-7.531 10.574-13.416 18.35-17.653 7.78-4.233 16.419-6.35 25.929-6.35 9.18 0 17.647 2.17 25.398 6.511 7.75 4.344 13.855 10.268 18.311 17.771 4.457 7.509 6.685 15.764 6.685 24.771M420.583 112.463c-4.048 0-6.868 1.094-8.458 3.272-1.592 2.183-2.387 6.128-2.387 11.838v87.489c0 6.084-1.148 11.098-3.44 15.03-2.293 3.927-5.218 6.773-8.782 8.522-3.56 1.749-7.363 2.625-11.408 2.625-6.852 0-12.06-2.828-15.623-8.484l2.347-1.615c2.159 2.853 5.02 4.281 8.58 4.281 2.373 0 4.76-.698 7.164-2.098 2.398-1.402 4.435-3.837 6.11-7.312 1.67-3.475 2.506-8.119 2.506-13.939v-84.5c0-5.763-.782-9.72-2.346-11.875-1.565-2.155-4.426-3.234-8.578-3.234v-2.825h34.315v2.825zM514.348 157.165c0-9.539-1.58-17.812-4.74-24.81-3.158-6.994-7.441-12.314-12.84-15.96-5.402-3.646-11.37-5.469-17.905-5.469-7.4 0-13.871 1.89-19.406 5.67-5.539 3.78-9.804 9.113-12.8 16.005-2.998 6.888-4.497 14.862-4.497 23.922 0 13.67 3.307 24.781 9.924 33.33 6.615 8.555 15.244 12.83 25.885 12.83 5.672 0 10.844-1.258 15.517-3.781a33.77 33.77 0 0011.627-10.255c3.076-4.313 5.386-9.153 6.927-14.511 1.537-5.364 2.308-11.022 2.308-16.971m14.584-.803c0 6.916-1.296 13.428-3.89 19.54-2.59 6.113-6.197 11.434-10.815 15.964-4.619 4.53-10.033 8.068-16.246 10.615-6.21 2.546-12.828 3.82-19.85 3.82-9.29 0-17.812-2.212-25.56-6.635-7.753-4.423-13.855-10.456-18.311-18.096-4.457-7.636-6.687-16.042-6.687-25.208 0-9.165 2.23-17.518 6.687-25.05 4.456-7.531 10.574-13.416 18.35-17.653 7.779-4.233 16.418-6.35 25.928-6.35 9.18 0 17.647 2.17 25.398 6.511 7.75 4.344 13.856 10.268 18.312 17.771 4.456 7.509 6.684 15.764 6.684 24.771M15.863 233.67c0-3.148-.912-5.543-2.741-7.192-1.83-1.646-4.501-2.47-8.008-2.47h-2.34v19.325h2.052c3.795 0 6.585-.787 8.368-2.36 1.78-1.575 2.67-4.008 2.67-7.303m2.777.033c0 4.023-1.178 7.063-3.527 9.114-2.353 2.053-5.813 3.08-10.386 3.08H0V221.44h4.888c4.434 0 7.832 1.065 10.202 3.194 2.366 2.13 3.55 5.152 3.55 9.069M36.117 245.897H23.3V221.44h12.816v2.567h-9.998v7.427h9.998v2.552h-9.998v9.347h9.998zM64.078 245.897h-9.32V221.44h2.748v21.956h6.572zM88.148 233.086c0-2.883-.967-5.307-2.899-7.273-1.932-1.97-4.33-2.952-7.19-2.952-3.032 0-5.47 1-7.32 2.997-1.847 2-2.77 4.412-2.77 7.228 0 2.883.958 5.306 2.88 7.274 1.922 1.969 4.325 2.952 7.21 2.952 2.85 0 5.246-.986 7.183-2.96 1.937-1.97 2.906-4.393 2.906-7.266m2.726 0c0 3.604-1.237 6.643-3.708 9.11-2.47 2.468-5.505 3.701-9.106 3.701-3.614 0-6.652-1.238-9.12-3.71-2.463-2.471-3.697-5.507-3.697-9.1 0-3.65 1.224-6.696 3.67-9.141 2.44-2.448 5.49-3.67 9.147-3.67 3.641 0 6.689 1.222 9.14 3.67 2.45 2.445 3.674 5.49 3.674 9.14M109.515 238.83c0 2.19-.654 3.914-1.963 5.177-1.307 1.258-3.094 1.89-5.365 1.89-1.564 0-2.93-.372-4.1-1.118-1.17-.744-2.022-1.775-2.553-3.094l1.887-1.676c.355 1.034.972 1.841 1.846 2.427.873.583 1.882.876 3.027.876 1.432 0 2.553-.385 3.366-1.149.812-.766 1.219-1.846 1.219-3.24a4.252 4.252 0 00-1.126-2.94c-.754-.834-2.012-1.705-3.78-2.611-2.097-1.073-3.556-2.122-4.378-3.143-.823-1.019-1.234-2.313-1.234-3.874 0-1.818.593-3.285 1.78-4.403 1.184-1.116 2.753-1.676 4.704-1.676 1.187 0 2.23.244 3.13.726.899.483 1.657 1.21 2.282 2.177l-1.792 1.74a3.698 3.698 0 00-1.51-1.516c-.661-.361-1.405-.542-2.23-.542-1.155 0-2.066.303-2.732.909-.663.604-.996 1.424-.996 2.458 0 .934.255 1.724.762 2.36.504.637 1.502 1.379 2.995 2.219l.137.064c4.418 2.468 6.624 5.119 6.624 7.959M139.806 245.897H126.99V221.44h12.816v2.567h-9.998v7.427h9.998v2.552h-9.998v9.347h9.998zM165.437 243.806c-.906.583-2.126 1.08-3.662 1.485-1.534.402-2.93.606-4.185.606-3.784 0-6.918-1.21-9.4-3.63-2.481-2.419-3.724-5.493-3.724-9.214 0-3.616 1.26-6.65 3.79-9.102 2.523-2.45 5.644-3.675 9.365-3.675 1.544 0 2.998.188 4.36.565 1.369.38 2.52.907 3.456 1.587v3.079c-1.01-.818-2.187-1.464-3.524-1.936-1.337-.476-2.657-.71-3.958-.71-3.047 0-5.599.97-7.656 2.91-2.056 1.942-3.085 4.369-3.085 7.282 0 2.937.988 5.38 2.966 7.333 1.977 1.95 4.424 2.926 7.344 2.926 1.439 0 2.868-.237 4.292-.71 1.424-.474 2.628-1.119 3.62-1.936v3.14zM190.672 233.086c0-2.883-.966-5.307-2.898-7.273-1.932-1.97-4.33-2.952-7.19-2.952-3.032 0-5.47 1-7.322 2.997-1.846 2-2.769 4.412-2.769 7.228 0 2.883.959 5.306 2.88 7.274 1.923 1.969 4.325 2.952 7.21 2.952 2.85 0 5.246-.986 7.183-2.96 1.937-1.97 2.906-4.393 2.906-7.266m2.726 0c0 3.604-1.237 6.643-3.707 9.11-2.471 2.468-5.506 3.701-9.107 3.701-3.614 0-6.651-1.238-9.12-3.71-2.463-2.471-3.697-5.507-3.697-9.1 0-3.65 1.224-6.696 3.67-9.141 2.44-2.448 5.49-3.67 9.147-3.67 3.641 0 6.689 1.222 9.14 3.67 2.45 2.445 3.674 5.49 3.674 9.14M212.039 238.83c0 2.19-.654 3.914-1.963 5.177-1.307 1.258-3.094 1.89-5.365 1.89-1.564 0-2.93-.372-4.1-1.118-1.17-.744-2.022-1.775-2.553-3.094l1.887-1.676c.355 1.034.972 1.841 1.846 2.427.874.583 1.882.876 3.027.876 1.432 0 2.553-.385 3.366-1.149.812-.766 1.219-1.846 1.219-3.24a4.252 4.252 0 00-1.126-2.94c-.754-.834-2.012-1.705-3.78-2.611-2.097-1.073-3.555-2.122-4.378-3.143-.822-1.019-1.233-2.313-1.233-3.874 0-1.818.592-3.285 1.779-4.403 1.185-1.116 2.753-1.676 4.704-1.676 1.187 0 2.23.244 3.13.726.899.483 1.658 1.21 2.282 2.177l-1.792 1.74a3.698 3.698 0 00-1.51-1.516c-.66-.361-1.405-.542-2.23-.542-1.155 0-2.066.303-2.731.909-.664.604-.996 1.424-.996 2.458 0 .934.254 1.724.76 2.36.505.637 1.504 1.379 2.997 2.219l.137.064c4.418 2.468 6.623 5.119 6.623 7.959M217.864 245.897h2.33V221.44h-2.33zM240 238.83c0 2.19-.654 3.914-1.963 5.177-1.307 1.258-3.094 1.89-5.365 1.89-1.564 0-2.93-.372-4.1-1.118-1.17-.744-2.021-1.775-2.553-3.094l1.888-1.676c.354 1.034.971 1.841 1.845 2.427.874.583 1.882.876 3.028.876 1.431 0 2.552-.385 3.365-1.149.813-.766 1.219-1.846 1.219-3.24a4.252 4.252 0 00-1.126-2.94c-.754-.834-2.012-1.705-3.779-2.611-2.098-1.073-3.556-2.122-4.379-3.143-.822-1.019-1.233-2.313-1.233-3.874 0-1.818.592-3.285 1.78-4.403 1.184-1.116 2.753-1.676 4.703-1.676 1.187 0 2.23.244 3.13.726.9.483 1.658 1.21 2.282 2.177l-1.792 1.74a3.698 3.698 0 00-1.51-1.516c-.66-.361-1.405-.542-2.23-.542-1.155 0-2.065.303-2.731.909-.663.604-.996 1.424-.996 2.458 0 .934.254 1.724.76 2.36.505.637 1.504 1.379 2.997 2.219l.137.064c4.418 2.468 6.623 5.119 6.623 7.959M258.64 223.898h-5.662v22h-2.668v-22h-5.65v-2.458h13.98zM276.117 245.897H263.3V221.44h12.816v2.567h-9.998v7.427h9.998v2.552h-9.998v9.347h9.998zM306.408 246.353h-2.81l-2.391-17.306-8.187 18.015-8.171-18.015-2.393 17.306h-2.844l4.007-26.077 9.465 20.754 9.384-20.754zM325.76 235.984l-4.199-9.62-4.196 9.62h8.395zm7.444 9.913h-3.118l-3.292-7.54h-10.512l-3.262 7.54h-3.117l11.658-25.621 11.643 25.621zM349.515 238.83c0 2.19-.654 3.914-1.963 5.177-1.307 1.258-3.094 1.89-5.365 1.89-1.564 0-2.93-.372-4.1-1.118-1.17-.744-2.022-1.775-2.553-3.094l1.887-1.676c.355 1.034.972 1.841 1.846 2.427.873.583 1.882.876 3.027.876 1.432 0 2.553-.385 3.366-1.149.812-.766 1.219-1.846 1.219-3.24a4.252 4.252 0 00-1.126-2.94c-.754-.834-2.012-1.705-3.78-2.611-2.097-1.073-3.556-2.122-4.378-3.143-.823-1.019-1.234-2.313-1.234-3.874 0-1.818.593-3.285 1.78-4.403 1.184-1.116 2.753-1.676 4.704-1.676 1.187 0 2.23.244 3.13.726.899.483 1.657 1.21 2.282 2.177l-1.792 1.74a3.698 3.698 0 00-1.51-1.516c-.661-.361-1.405-.542-2.23-.542-1.155 0-2.066.303-2.732.909-.663.604-.996 1.424-.996 2.458 0 .934.255 1.724.762 2.36.504.637 1.502 1.379 2.995 2.219l.137.064c4.418 2.468 6.624 5.119 6.624 7.959M435.728 223.898h-5.662v22h-2.668v-22h-5.65v-2.458h13.98zM453.204 245.897h-12.816V221.44h12.816v2.567h-9.998v7.427h9.998v2.552h-9.998v9.347h9.998zM469.148 228.127c0-1.427-.437-2.471-1.312-3.129-.876-.66-2.24-.99-4.092-.99h-2.056v8h2.056c1.892 0 3.268-.305 4.121-.917.856-.612 1.283-1.601 1.283-2.964zm3.862 17.77h-3.228l-7.305-11.547h-.79v11.547h-2.658V221.44h4.96c2.542 0 4.483.57 5.817 1.702 1.334 1.138 2 2.767 2 4.891 0 1.89-.57 3.386-1.706 4.489-1.14 1.102-2.718 1.682-4.735 1.735l7.645 11.64zM487.789 228.127c0-1.427-.437-2.471-1.312-3.129-.876-.66-2.24-.99-4.092-.99h-2.057v8h2.057c1.892 0 3.268-.305 4.121-.917.856-.612 1.283-1.601 1.283-2.964zm3.861 17.77h-3.228l-7.304-11.547h-.79v11.547h-2.658V221.44h4.96c2.542 0 4.483.57 5.817 1.702 1.334 1.138 2 2.767 2 4.891 0 1.89-.57 3.386-1.707 4.489-1.139 1.102-2.717 1.682-4.735 1.735l7.645 11.64zM509.126 245.897h-12.815V221.44h12.815v2.567h-9.997v7.427h9.997v2.552h-9.997v9.347h9.997zM527.767 238.83c0 2.19-.654 3.914-1.963 5.177-1.307 1.258-3.094 1.89-5.365 1.89-1.564 0-2.93-.372-4.1-1.118-1.17-.744-2.021-1.775-2.553-3.094l1.887-1.676c.355 1.034.972 1.841 1.846 2.427.874.583 1.882.876 3.028.876 1.431 0 2.552-.385 3.365-1.149.813-.766 1.219-1.846 1.219-3.24a4.252 4.252 0 00-1.126-2.94c-.754-.834-2.012-1.705-3.779-2.611-2.098-1.073-3.556-2.122-4.379-3.143-.822-1.019-1.233-2.313-1.233-3.874 0-1.818.592-3.285 1.78-4.403 1.184-1.116 2.753-1.676 4.703-1.676 1.187 0 2.23.244 3.13.726.899.483 1.658 1.21 2.282 2.177l-1.792 1.74a3.698 3.698 0 00-1.51-1.516c-.66-.361-1.405-.542-2.23-.542-1.155 0-2.065.303-2.731.909-.663.604-.996 1.424-.996 2.458 0 .934.254 1.724.76 2.36.505.637 1.504 1.379 2.997 2.219l.137.064c4.418 2.468 6.623 5.119 6.623 7.959M545.243 223.898h-5.663v22h-2.668v-22h-5.65v-2.458h13.98zM560.022 228.127c0-1.427-.437-2.471-1.312-3.129-.876-.66-2.24-.99-4.092-.99h-2.057v8h2.057c1.892 0 3.268-.305 4.121-.917.856-.612 1.283-1.601 1.283-2.964zm3.861 17.77h-3.228l-7.304-11.547h-.79v11.547h-2.658V221.44h4.96c2.542 0 4.483.57 5.817 1.702 1.334 1.138 2 2.767 2 4.891 0 1.89-.57 3.386-1.707 4.489-1.139 1.102-2.717 1.682-4.735 1.735l7.645 11.64zM581.36 245.897h-12.816V221.44h12.815v2.567h-9.997v7.427h9.997v2.552h-9.997v9.347h9.997zM600 238.83c0 2.19-.654 3.914-1.963 5.177-1.307 1.258-3.094 1.89-5.365 1.89-1.564 0-2.93-.372-4.1-1.118-1.17-.744-2.021-1.775-2.553-3.094l1.888-1.676c.354 1.034.971 1.841 1.845 2.427.874.583 1.882.876 3.028.876 1.431 0 2.552-.385 3.365-1.149.813-.766 1.219-1.846 1.219-3.24a4.252 4.252 0 00-1.126-2.94c-.754-.834-2.012-1.705-3.779-2.611-2.098-1.073-3.556-2.122-4.379-3.143-.822-1.019-1.233-2.313-1.233-3.874 0-1.818.592-3.285 1.78-4.403 1.184-1.116 2.753-1.676 4.703-1.676 1.187 0 2.23.244 3.13.726.9.483 1.658 1.21 2.282 2.177l-1.792 1.74a3.698 3.698 0 00-1.51-1.516c-.66-.361-1.405-.542-2.23-.542-1.155 0-2.065.303-2.731.909-.663.604-.996 1.424-.996 2.458 0 .934.254 1.724.76 2.36.505.637 1.504 1.379 2.997 2.219l.137.064c4.418 2.468 6.623 5.119 6.623 7.959M190.017 277.848h.782c2.812 0 4.873-.708 6.184-2.126 1.311-1.413 1.964-3.4 1.964-5.952 0-5.383-2.716-8.075-8.148-8.075h-.782v16.153zm-4.774-20.305h6.822c1.729 0 3.326.304 4.786.908a10.802 10.802 0 013.767 2.579c1.053 1.115 1.858 2.425 2.423 3.924.562 1.504.842 3.122.842 4.85 0 1.708-.288 3.304-.86 4.785a11.706 11.706 0 01-2.45 3.892 11.195 11.195 0 01-3.785 2.594c-1.46.617-3.048.925-4.756.925h-6.79v-24.457zM221.53 261.697v5.383h7.69v4.152h-7.69v6.619h7.985V282h-12.816v-24.457h12.816v4.154zM273.386 274.361h.065l5.577-16.818h5.244l-9.724 25.622h-2.854l-9.558-25.622h5.246zM300.753 261.697v5.383h7.69v4.152h-7.69v6.619h7.985V282h-12.816v-24.457h12.816v4.154zM323.883 257.543h3.41l12.77 17.113h.065v-16.465h4.726v24.974h-3.407l-12.77-17.113h-.065v16.627h-4.729zM363.666 261.697v5.383h7.69v4.152h-7.69v6.619h7.984V282h-12.815v-24.457h12.815v4.154zM401.348 277.848V282H383.3l10.953-20.305h-9.268v-4.152h16.956l-10.92 20.305zM414.757 257.543h4.894v13.97c0 .972.042 1.86.132 2.665.089.805.278 1.571.566 2.299a3.948 3.948 0 001.35 1.77c.606.454 1.4.678 2.379.678.975 0 1.767-.224 2.38-.678a3.96 3.96 0 001.346-1.77c.29-.728.477-1.494.565-2.3.089-.804.135-1.692.135-2.665v-13.969h4.894v14.93c0 1.565-.179 3-.532 4.3-.355 1.303-.905 2.431-1.648 3.378-.744.95-1.71 1.687-2.895 2.216-1.189.532-2.603.798-4.245.798-1.643 0-3.06-.266-4.245-.798-1.189-.529-2.151-1.272-2.896-2.232-.742-.96-1.292-2.087-1.648-3.377-.355-1.29-.532-2.72-.532-4.286v-14.929zM452.21 261.697v5.383h7.69v4.152h-7.69v6.619h7.984V282H447.38v-24.457h12.815v4.154zM479.481 277.848h7.51V282h-12.816v-24.457h5.306zM507.862 264.856h-.068l-2.788 9.073h6.01l-3.154-9.073zm-4.267 13.044l-2.08 5.265h-5.204l9.87-25.622h3.827l9.604 25.622h-5.27l-1.95-5.265h-8.797z"/>
  </g>
</svg>
