<svg id="Capa_1" data-name="Capa 1" xmlns="http://www.w3.org/2000/svg" viewBox="0 0 298 237">
  <defs>
    <style>
      .cls-1{fill:#626262}
    </style>
  </defs>
  <path class="cls-1" d="M99 118h3.67v-3.66H99zM159.88 106.72h-3.66v3.67h3.66zM165.57 99.11h-3.67v3.66h3.67zM156.07 99.08h-3.68v3.66h3.68zM140.81 106.72h-3.7v3.68h3.7zM127.5 106.73h-3.7v3.64h3.71zM182.88 110.36h3.66v-3.66h-3.66zM175.24 110.38h3.71v-3.65h-3.71z"/>
  <path class="cls-1" d="M297.89 228.09a26 26 0 00-2.5-6.19q-29.82-52.46-59.75-104.9a8 8 0 00-7.17-4.37 8.92 8.92 0 00-2.21.24l-.57-.24-.71-.3a6.42 6.42 0 00-4.07-1.4 9.05 9.05 0 00-3.31.69 5.85 5.85 0 00-2-1.61 5.93 5.93 0 001.25-2 5.81 5.81 0 00-.39-5 9.56 9.56 0 00-6.46-4.69 4 4 0 01-.86-.28 6.56 6.56 0 00-3.35-.87h-.12a8.11 8.11 0 00-3.88-2.73 5.47 5.47 0 00-3.57-.46 6.3 6.3 0 00-1.33-.14 6.19 6.19 0 00-1.17.11 5.82 5.82 0 00-1-.58 6.3 6.3 0 00-2.33-.53 5.93 5.93 0 00-2-.61 5.66 5.66 0 002.88-6.15c-.87-4.17-5-4.84-8.56-5.21v-2.64a1.29 1.29 0 01.37-.91 14.06 14.06 0 004.84-7 2.55 2.55 0 01.42 0 13.26 13.26 0 0015.28-13.21c0-.9.45-1.09 1.09-1.39C213.4 52.56 217 47.29 217 39.93s-3.67-12.63-10.37-15.7a1.45 1.45 0 01-1-1.56A13.11 13.11 0 00195.71 10a42.43 42.43 0 00-5.81-.61c-2-5.58-6-9.12-12.26-9.34-6.77-.24-11.15 3.36-13.47 9.58a1 1 0 01-.25 0c-6.66-.79-12.11 2.4-14.56 8.58a1.07 1.07 0 01-1.21.79h-9.17a15.44 15.44 0 00-8.28 2.22c-1.79 1.11-3.4 2.52-5.1 3.8 0-.23-.12-.58-.17-.92-1-6.29-6.22-11.77-12.56-12.43-4.52-.47-9.11-.2-13.67-.25-.06 0-.12.1-.34.3a50.52 50.52 0 00.49 6.6 15.16 15.16 0 0014.93 12.11h7.48v8.82c-.23-.19-.35-.28-.46-.39a15.36 15.36 0 00-11.47-4.63h-9.64c-.38 0-.76 0-1.2.05v3.91a14.92 14.92 0 0011.62 14.56c3.14.63 6.46.39 9.71.53h1.51v8.89l-.92-.86a15.12 15.12 0 00-10.44-4.22h-10.36c-.34 0-.69 0-1.12.07v4a15 15 0 008.24 13.28 14.4 14.4 0 007.21 1.73h7.33v6l-1.2.08h-.8c-.84-.07-1.68-.11-2.51-.11a32 32 0 00-9 1.38 16.45 16.45 0 01-1.79-.19 24.17 24.17 0 00-3.28-.29 9.9 9.9 0 00-3.69.65 37 37 0 01-6.31.66h-.46L92.3 84a6.82 6.82 0 00-.14-4.77c-.54-1.42-.54-1.42-4.92-5-1-.82-2.38-1.94-2.63-2.15a7.59 7.59 0 00-5.21-1.58c-.62 0-1.24 0-1.77.06l-.49-.2a19.24 19.24 0 00-7.27-1.8 10.85 10.85 0 00-1.83.16 10.79 10.79 0 00-.3-1.24 6.6 6.6 0 00-1.85-5.85 7.42 7.42 0 00-2.42-1.78 5.83 5.83 0 00-2.35-.48 11.15 11.15 0 00-6 2.1l-.17.15A5.88 5.88 0 0051 66.05l-.11.23c-1.06 2.29-1.27 4.26-.67 5.89a6.12 6.12 0 00-1.42.42c-.8.41-1.8.7-2.8 1.05l-.68.23h-.28a8.51 8.51 0 00-5 1.61l-.72.16A13.33 13.33 0 0035 77.17a6.45 6.45 0 00-1.19-1.41 6.29 6.29 0 00-.26-1.15c.56-2.65 0-4.75-1.79-6.27A5.54 5.54 0 0028.12 67 6.24 6.24 0 0023 70a10.4 10.4 0 00-2.14 3.84c-.1.28-.25.69-.35.9l-.05.05-.56.17a7.38 7.38 0 00-3.08.55 9.72 9.72 0 00-5.2 6.12c-.06.17-.14.39-.2.53l-.23.29a5.48 5.48 0 00-1 1.9 5.58 5.58 0 00-1.48 1.69A19 19 0 007.38 89v.08a8.23 8.23 0 00-.46 3.48c-.18.69-.34 1.38-.49 2.05A13.65 13.65 0 015 99l-.25.22c-2.09 1.8-4.69 4-4.7 7.33A5.88 5.88 0 002 111a5.79 5.79 0 003.81 1.41A6.82 6.82 0 008 112a7.88 7.88 0 001.42.77 5.58 5.58 0 00.52.74 9.36 9.36 0 001 3.8 6.12 6.12 0 00.39.59 5.64 5.64 0 00.53 1.24 5.55 5.55 0 002.44 2.27 5.47 5.47 0 001.32 1.49l-.21.32a29.43 29.43 0 00-1.82 3.07c-1.77 3.66-.53 6.14.47 7.37a5.71 5.71 0 001.77 2.86 8.34 8.34 0 003.22 1.73 10.4 10.4 0 006 6 6.14 6.14 0 002.51.49 47.21 47.21 0 006.87-1l.53-.1a10 10 0 011.18.42 10.84 10.84 0 004.14 1 7.14 7.14 0 002.88-.59 14.62 14.62 0 013.72-1.36 15.16 15.16 0 013.46.93l.34.13a10 10 0 004.19.78 9.93 9.93 0 003.6 4l.36.26a21.55 21.55 0 004.69 5 5.69 5.69 0 003 3.18 6.55 6.55 0 002.64.56 6.24 6.24 0 001.63-.21 6.09 6.09 0 005.21-1.26 6.59 6.59 0 002.58.51h.25a6.59 6.59 0 003.34.93 6.07 6.07 0 002.44-.51 5.68 5.68 0 001-.58 14.33 14.33 0 001.7.11 8.74 8.74 0 002.48-.33 5.89 5.89 0 00.9-.34 12.2 12.2 0 001.83.15 8.13 8.13 0 001.63-.16v.09a7.11 7.11 0 00-.44 2.73l-.06.05c-2.89 2.53-2.73 6.57-2.62 9.24v.63c-.65 6.51.11 12 2.32 16.86a5.49 5.49 0 00.37.68 8.81 8.81 0 003.88 4l.16.1.18.26a8.83 8.83 0 00.48.9l-1.38.95c-3.18 2.22-4.74 3.5-5.35 5.62a5.53 5.53 0 00.51 4.31 6.77 6.77 0 005.48 3.2c3.81 3.42 4.83 5 5 5.69a5.82 5.82 0 00.22.73l.27.72.07.17c.56 1.32 1 2.84 1.56 4.45 1.49 4.62 3.17 9.85 7.47 13.61a5.49 5.49 0 00.7.52l.27.17a8.87 8.87 0 002.75 1.45 5.6 5.6 0 002.34 1.94 9.53 9.53 0 003.84.81 12.91 12.91 0 007.47-2.85c.27-.19.64-.44.81-.54l.37-.13a5.87 5.87 0 009.06.35 7.19 7.19 0 001.85-.51 6.17 6.17 0 003.12-3c.46-.27 1-.66 1.58-1.08a6.06 6.06 0 00.69 0 5.91 5.91 0 002.38-.5 11.47 11.47 0 003.12-2.15l.29-.26a5.47 5.47 0 001.45-.44 6.65 6.65 0 001.61.2 5.93 5.93 0 003.91-1.45 7.21 7.21 0 001.08-1.2 23.15 23.15 0 00-1.4 3c-2.17 5.76.13 10 6.14 11.36a10.81 10.81 0 002.37.2h120.8a11 11 0 005.85-1.67 6.48 6.48 0 003.17-7.38zM121.71 49.59a88.35 88.35 0 01-9.9-.43c-5.19-.78-9.37-6.18-8.92-11.22a87.36 87.36 0 019.9.43c5.21.79 9.38 6.19 8.92 11.22zm-9.8-23.29c-5.21-.7-9.17-5.75-9.09-10.92.06-.05.11-.15.17-.15a79.86 79.86 0 019.71.26 11 11 0 019.09 10.88c-3.35.01-6.67.36-9.88-.07zm20.72 57.48c9.28 0 15.88-6.61 15.88-15.89V65c-4.79 0-9.47-.17-14.12.06-3 .15-5.34 1.73-8.74 4.78v-8.93h7.41a14.48 14.48 0 008.43-2.46 50.7 50.7 0 004.24-3.58A18.14 18.14 0 01148 56a1.56 1.56 0 01.48 1.15 13.38 13.38 0 0013.93 13.33c.55 0 1.1-.09 1.75-.15.15.36.32.75.47 1.14a13.46 13.46 0 004.09 5.53 1.81 1.81 0 01.7 1.1v7.78a5.69 5.69 0 01-1-4.22 11.18 11.18 0 00-1.58-.36 5.48 5.48 0 00-2.24-.21h-1.36c-.53 0-1.12-.06-1.75-.06a10.25 10.25 0 00-4.14.77 5.69 5.69 0 00-3.14 3.6 6.82 6.82 0 00-4.48 1.69 22.47 22.47 0 01-5.65 3.13h-.22c-.42 0-.95-.09-1.54-.09a8.45 8.45 0 00-2.4.32 6.4 6.4 0 01-1 .22 7.85 7.85 0 01-.76-.32 5.77 5.77 0 00-1.73-1.61 6.88 6.88 0 00-3.51-.93 9.23 9.23 0 00-2.18.28h-.08a5.45 5.45 0 00-2.2-1.8 6 6 0 00-1-1.82 6 6 0 00-.58-.61zM125.68 80a11.24 11.24 0 0110-11.3 84.29 84.29 0 019-.06 11.33 11.33 0 01-4.43 8.94 10.9 10.9 0 01-6.79 2.42h-7.78zm63.87-45.06l2.21 4.39-2.76 1.82a17.1 17.1 0 00-8.11 15.12v37.79a10.15 10.15 0 00-7.62-2.67V90 66a17.7 17.7 0 00-5.48-13.23c-4-3.91-7.86-7.85-11.79-11.78-.3-.3-.59-.62-.9-.95l2.9-2.78 14.82 14.83.35-.2V29.68c1.3.64 2.42 1.14 3.45 1.76a1.48 1.48 0 01.4 1.1v8.58zm-4.85 63.49v-.53a1.75 1.75 0 010 .53zm-59-7.37a1.94 1.94 0 01.54.13c.25.11.27 1.35.64 1.68a.62.62 0 00.42.12c.26 0 .56-.07.81-.07a.81.81 0 01.23 0c.27.08.22.73.55.88a1.66 1.66 0 00.67.13c1.06 0 2.39-.71 3.42-.71a1.47 1.47 0 01.76.18c.13.08-.13.74 0 .8l.88.41a11 11 0 00-1.62 2.57c-.64 1.41-1.39 2.08-3 1.88a35.65 35.65 0 00-4.33 0zm37-2.35a1.52 1.52 0 00-.6-.1c-.54 0-1.2.15-1.74.15a1.14 1.14 0 01-.76-.21c-.15-.14 0-1 0-1.2s-.19-.48 0-.56a5 5 0 012-.31c.93 0 1.93.11 2.85.11a7.74 7.74 0 00.86 0l.46.16c1 0 2.44.76 3.72.87v3.81h-16.35l.26-.21a1.38 1.38 0 011-.34c.77 0 1.64.45 2.4.45a1.42 1.42 0 00.58-.11 19.28 19.28 0 016.85-1.44c.77-.03-.85-.78-1.51-1.07zm-39.3 14.12h15.95a5.1 5.1 0 014.91 2.8c1.3 2.74 2.27 5.63 3.42 8.57H115.1c.27-.74.52-1.43.77-2.11.69-1.85 1.37-3.72 2.1-5.56a5.63 5.63 0 015.43-3.7zM138.72 99h-2.24a5.84 5.84 0 012.22-2.91h.13a10.17 10.17 0 002.69-.45 3.09 3.09 0 01.86-.11c.66 0 1.37.13 2 .13a3.05 3.05 0 00.85-.1c.33-.1.69-.22 1.07-.37h28.11c2.44 0 4.14 1.34 5.24 3.78h-2.55a9.61 9.61 0 00-9.58 6.62c-1 2.55-1.94 5.11-2.86 7.68a1.2 1.2 0 01-1.35 1c-3.53 0-7.07-.05-10.6 0a1.26 1.26 0 01-1.42-1c-.89-2.5-1.85-5-2.79-7.46-1.68-4.57-4.91-6.81-9.78-6.81zm33 6.79a5.06 5.06 0 014.81-3h7.86a.54.54 0 00.3.11.76.76 0 00.35-.11h7.91a5 5 0 014.75 2.87c1.26 2.71 2.22 5.57 3.35 8.48H168.4c1.11-2.82 2.05-5.64 3.28-8.33zm17.73-8.07a.79.79 0 01.31-.08c.52 0 .33.93.69 1a1.23 1.23 0 00.34.05c.58 0 .94-.45 1.42-.45a.84.84 0 01.34.07c.19.08.26.41.34.65h-3.93c.04-.57.11-1.07.45-1.22zM188 98.94a.21.21 0 01.08.07h-.26a.26.26 0 01.14-.08zm-.46-11.42a9.21 9.21 0 01-2.87.26v-1.39c2.25.27 4.01.61 2.91 1.13zm-34.7-61c-1.18-4.24-.63-8.1 2.87-11s7.43-2.75 11.53-.78c.11-.76.23-1.36.28-2a9.54 9.54 0 0119.06 0c0 .59.14 1.17.23 1.95 4-1.86 7.93-2.19 11.47.73s4.2 6.73 2.95 11.05c7.61 1.75 12.27 6.19 11.92 14.19-.32 7.23-4.87 11.2-11.9 12.69 1.19 4.27.62 8.11-2.89 11s-7.44 2.7-11.51.78c-.39 2.4-.38 4.81-2.18 7v-1.27-14.64a13.39 13.39 0 016.23-11.76c1.87-1.26 3.75-2.51 5.75-3.84l-5.41-10.82-10.35 5.2v-4.93a1.36 1.36 0 00-.53-1c-3.49-1.79-7-3.52-10.52-5.27h-.36V43L158.2 31.66l-8.42 8.42c.18.18.46.5.76.79q7.36 7.37 14.74 14.73a13.5 13.5 0 014.2 10.14v6.48c-1.72-2.2-1.86-4.52-2.13-7-4 1.86-7.93 2.2-11.46-.71s-4.21-6.72-3-11.07c-7.75-1.79-12.41-6.36-11.89-14.51.45-7.07 5-10.93 11.88-12.38zM129.3 27a12.94 12.94 0 019.52-4.17h9.55c.26.65.13 1-.54 1.27a17 17 0 00-9.52 9.45c-.12.29-.51.67-.78.67h-11.72A12.59 12.59 0 01129.3 27zm-3.59 11.15h11.35v3.68a15.83 15.83 0 00-11.35 5.11zm.4 15.77a11.43 11.43 0 0111-8.26 1.3 1.3 0 011.32.84c1.15 2.06 2.44 4 3.81 6.25a10.69 10.69 0 01-7.91 4.25c-2.84.19-5.7 0-8.79 0 .2-1 .3-2.08.58-3.08zM112 72a11 11 0 01-9.21-10.94c.05-.05.11-.15.17-.15a81.44 81.44 0 019.6.24 11.06 11.06 0 019.21 10.92c-3.29.05-6.56.39-9.77-.07zm-55.62-4.74c0-.82 1.4-.46 1.83-1 .19-.22.24-.49.5-.72a7.27 7.27 0 012.4-.74.41.41 0 01.16 0 4.1 4.1 0 01.87.76c.56.49-.2 2.12.09 2.76a6.22 6.22 0 01.48 2.06l-.71.02a5.51 5.51 0 00-2.89-.81 6 6 0 00-3.41 1.1 1.46 1.46 0 00-.28-.34c-.42-.41.96-2.35.96-3.09zM33.75 95.85l.58.63a7.65 7.65 0 00.89 2.63 7.41 7.41 0 001.22 1.58 7.51 7.51 0 00.58 2.84c-.25.16-.5.32-.74.5h-.91a5.66 5.66 0 00-1.84-3.25 5.28 5.28 0 00-2.23-1.18 6 6 0 00-.2-.65q.09-.22.16-.44a16.32 16.32 0 001.53-1.76 6.15 6.15 0 00.96-.9zm125.41 117c-1.12.49-1.59 5.71-2.92 6.87a.44.44 0 01-.3.1c-.7 0-2-1-3-1a1 1 0 00-1 .86l.09.4c-2.14 0-3.18 2.11-4.75 2.8a.47.47 0 01-.19 0c-.52 0-.86-1-1.29-1a.39.39 0 00-.25.11c-.19.17-3.25 2.54-3.47 2.64a.49.49 0 01-.19 0c-.32 0-.81-.17-1.2-.17a.84.84 0 00-.34.06c-.94.41.26 2.32-.82 2.8-.58.25-2.34.13-2.74.48s-.79 1.55-1.32 1.55a.34.34 0 01-.14 0c-.55-.24.25-1.15-.09-1.6a5.36 5.36 0 00-2.83-1.43.93.93 0 00-.37.07c-1.11.49-2.61.74-3.84 1.28-1.56.68-3.59 2.91-6 2.91a4.06 4.06 0 01-1.64-.35c-.12-.05.07-.59 0-.72-.72-1.26-3-1.05-4-2.08l-.64-.4c-4.44-3.88-5.34-10.73-7.59-16.06l-.27-.72c-.75-3.27-4.75-6.87-7.68-9.43-.81-.71-3-.21-3.38-1-.29-.51 6.16-4.73 6.58-5l.37-.4c3.66-3.2-.71-4-1.19-6.63l-.37-.32c-.86-1.88-3.38-1.88-3.75-3.75l-.27-.32c-2-4.41-2.37-9.18-1.83-14.3v-.1c0-1.29-.39-4.78.73-5.75.48-.42 1.51-.36 2-.8s-.35-3.23 0-4.15c.64-1.67 2.45-1.35 3.84-2.16.51-.3.25-1.19.18-1.52l-.18-.48a6.68 6.68 0 00-6.2-4.13 8.73 8.73 0 00-3.49.78 2.14 2.14 0 01-.86.15c-.86 0-1.9-.3-2.76-.3a2.15 2.15 0 00-.86.15c-.27.12-.34.47-.64.56a3.39 3.39 0 01-.94.12c-1.08 0-2.35-.32-3.43-.32a3 3 0 00-1.21.21c-.44.19.09.88-.27 1a.62.62 0 01-.25.05c-.65 0-1.39-.89-1.67-1a1.14 1.14 0 00-.46-.08c-.46 0-1 .16-1.46.16a1.14 1.14 0 01-.46-.08 5.83 5.83 0 00-2.2-.78 1.62 1.62 0 00-.45.06 8.36 8.36 0 00-2.92 1.52.63.63 0 01-.43.18c-.51 0-1-.68-1.51-.68h-.16c-.32.09-.6.74-1.2.74a1.1 1.1 0 01-.44-.1c-.22-.1.31-1.43-.27-1.6-1.51-.44-4.24-3.26-5-4.63-1-1.76-3.31-2-3.75-4.07a1.17 1.17 0 00-.41-.77c-.07 0-.53-.75-.72-.92a.25.25 0 00-.15 0h-.26c-.13 0-.21-.15-.32-.21a5.42 5.42 0 00-.71-.19c-.35-.12-.48-.5-1-.51h-1.26a4.53 4.53 0 01-2-.35l-.64-.24a16.71 16.71 0 00-5.33-1.26c-1.71 0-3.19.63-5.92 1.82a1.68 1.68 0 01-.68.14c-1.41 0-3.2-1.4-5.35-1.4a4.75 4.75 0 00-.82.07c-1 .17-5.27 1-6.54 1a.91.91 0 01-.31 0c-1.18-.52-3.66-2.06-2.92-4 .07-.18.69-.16.46-.56-1.09-1.9-3.8-.93-5.3-2.24-.33-.29.43-.27.55-.48a1.32 1.32 0 00-.27-1.36c-.17-.23-1.1-.08-1.37-.32-1.09-1 3.47-5.89 3.47-7.59a6.5 6.5 0 00-2.38-4l-.46-.08c-.27-.59-.36-1.4-1-1.68a6.63 6.63 0 01-1.37-.48c-.14-.24.21-1 0-1.2s-.72-.3-.91-.64c-.44-.77-.35-3.61-.82-4.23-.18-.24-.82-.19-.82-.48 0-.64.83-.05.46-1-.6-1.58-4.3.4-4.3-3.59 0-.12-.07-.17-.19-.17-.73 0-3.39 1.83-4.26 1.83a.31.31 0 01-.21-.06c-.89-.77 2.84-3.58 3.29-4.07 2.22-2.43 2.57-6.34 3.38-9.19.25-.87-.11-1.78.18-2.56a14.26 14.26 0 011-2.24c.12-.2 1-.29 1.19-.64a16.71 16.71 0 00.82-2.32l.5-.64c1-1.53.93-3.76 3-4.67a2.83 2.83 0 01.9-.09h.67a1.55 1.55 0 00.67-.08c.4-.35 1.17-.33 1.69-.56a5.19 5.19 0 001.37-1.12c1.64-1.43 1.68-4.07 2.79-5 .13-.11.85-1.21 1-1.21.43.37-.22 1.94-.37 2.32-.26.67.39 1.11.55 1.52s-.19 1.15 0 1.64.89.63.94 1.36c0 .3.71.4.89.56.68.6.64 2.72 1 3.56.2.53.69.67.69 1.4 0 .26.18.76.14.84-.25.44-.42 1-.64 1.52l-.14.2a2.19 2.19 0 00.14.4c.28.25 2.3.38 1.74 1.36-.15.27-.64.22-.87.52s.05.78-.27.92-1.71.35-1.83.56-.1.71-.32 1-.73.37-.87.6A10 10 0 0127 94.95c-.17.15-.68.27-.78.44-.26.45 0 1.08-.23 1.52s-1.34.39-1.6.84.69 1.74.69 2.28a2 2 0 000 .4c.37.16 1 0 .91.6v.24c0 2.72.74 1 .85 2.88.07 1.24.22 2.7.68 2.7.19 0 .44-.25.76-.86.14-.27-.07-1.05.09-1.2a.72.72 0 01.34 0 6 6 0 011.22.13c.29.25-.55.6-.55 1 0 1-.15 3.22.64 3.91a.61.61 0 00.39.09c.38 0 .91-.11 1.29-.11a.66.66 0 01.42.1c.18.16.48.81.76.81h.07a17.53 17.53 0 012.28-1.12 1 1 0 01.26 0c.7 0 2.07.4 2.57.4.1 0 .16 0 .19-.05a5.06 5.06 0 012.47-2c1-.29 2.49-3.74 2.28-4.63s-1.51-1.81-.91-3.2l-.09-.86c-.31-.4-.12-1-.37-1.28-.51-.66-1.27-.95-1.65-1.6-.46-.81-.13-2.27-.91-3a23.61 23.61 0 01-4.3-5.51c-.2-.34.94-1.09.73-1.28s-1.32-.84-1.19-1c1.12-1 2-2.58 3.2-3.6 1.4-1.22 4.9-.95 5.94-2.32.32-.42 2.66-.37 3.2-.56 1.49-.52 3-1 4.39-1.6a1 1 0 01.39-.06c.66 0 1.73.3 2.46.3a1 1 0 00.63-.16l.16-.12a7.69 7.69 0 002.92.62 6 6 0 002.71-.63c.29-.09.9-.25 1.28-.35a10.27 10.27 0 004.53-1.94l.14-.15c.69-.26 1.3-.53 1.69-.7a4.77 4.77 0 011.92-.32c2.43 0 5.06 1.42 6.48 1.89l.37.16c.53 0 1.69-.11 2.68-.11a3 3 0 011.62.27c.59.51 6 4.87 6 5 .94 2.46-3.74 3.12-1.28 5.27.21.18.43.9.55 1a.88.88 0 00.35.05h.78a1.07 1.07 0 01.42.07c.57.25 1.35 1.35 2.83 2a7 7 0 002.38.28 35.36 35.36 0 008.22-1 4.45 4.45 0 011.78-.3c1.6 0 3.49.47 5.07.47a5 5 0 001.38-.17 26.84 26.84 0 017.66-1.21c.66 0 1.34 0 2 .09l.55.08c.45 0 1.25-.08 2-.13v11.38c-4.25 1.16-6.2 3-7.74 7.06-.9 2.41-1.83 4.82-2.68 7.24a1.11 1.11 0 01-1.29.87c-1.13-.06-2.27 0-3.4 0V118h102.78v-3.74c-1.11 0-2.15-.05-3.17 0a1.3 1.3 0 01-1.54-1c-1.06-2.95-2.06-5.92-3.37-8.76a8.87 8.87 0 00-4.82-4.72c.08-.24.15-.41.24-.43h.2c.54 0 1.07.59 1.62.59a1 1 0 00.83-.56l.46.24c1.88.33 2.12 2.57 3.56 3.2a1.31 1.31 0 00.52.09c.58 0 1.32-.22 1.9-.22a1.17 1.17 0 01.59.13c2.19 1.28 3.86.51 5.3 3 .62 1.08-4.58 1.78-4.84 2.72-.58 2 2.83 3.59 4.2 4.79.3.26.05 1.08.46 1.44a.79.79 0 00.51.12h.57a.82.82 0 01.73.27V118h2a.2.2 0 00.1.11 1 1 0 00.41.08 3 3 0 00.89-.19h.27v-.08c1.28-.49 2.86-1.46 3.89-1.46a1.08 1.08 0 01.51.13c-.09.14-.18.27-.27.42l-36.3 63.67a2.44 2.44 0 00-1.38.32c-.5.65-.9 1.47-1.74 1.84a.71.71 0 01-.27 0c-.37 0-.91-.13-1.28-.13a.56.56 0 00-.36.09c-.24.21-.3 5.08-.82 6-.11.19-1.06.36-1.28.56a.39.39 0 01-.27.1c-1.09 0-3.4-3.63-3.66-4.09s-1.4-.67-1.74-1c-.08-.07-8.82-.83-10.84-.83a1.3 1.3 0 00-.4 0c-.14.09-.78.89-1.05.89-.62-.27-.91-2.79-1.65-3.44a1.85 1.85 0 00-1.17-.27c-1 0-2.42.27-3.41.27a2.68 2.68 0 01-.72-.08c-1.64-.48-3.26-1.79-4.94-2.16a1.9 1.9 0 00-.41 0 3.31 3.31 0 00-1.33.36c-2.67 1.17.87 3.59 2.1 5l.27.4c0 2.6 1.82 1.86 3.84 3a17.85 17.85 0 012.83 2.32c.72.63-.42 1.33-.73 1.6-.61.54 1 .87.82 1.36a6.15 6.15 0 00-.09 3.75c.19.49.64.6 1.1.8.23.1-.26 1.37.09 1.68.62.54 2.38 1.59 2.38 3.2 0 1.09-.69 1.29-1.19 2.16-.84 1.47 3.42 2.89 4.2 3.12a1.27 1.27 0 00.36.05c1 0 1.79-1.12 3.38-1.12a4.56 4.56 0 011.83.43 5.72 5.72 0 011.85 1.34l-1.14 2c-2.32.86-7.24 1.96-8.85 2.66zm12.77-9.54a11.57 11.57 0 00-2.45-1.47 10 10 0 00-4-.89 8.69 8.69 0 00-1.37.11 8.51 8.51 0 00-2.44-4.66 5.38 5.38 0 00-1.08-2.41 6 6 0 00.08-2.16 6.07 6.07 0 00.19-1.36v-.59a5.82 5.82 0 001.91-.75c2.09.13 5.45.4 7.28.57 2.11 3.17 4.37 4.89 6.72 5.18zm-8.88 14.18v-.17l1-.28-2.05 3.79a25.88 25.88 0 001.05-3.33zm117 13.12c-9.23.05-18.46 0-27.68 0h-75a10.47 10.47 0 01-2.2-.13c-5.37-1.17-7.37-5-5.31-10.05a23.65 23.65 0 011.4-2.83q25.31-44.42 50.64-88.83a7 7 0 016.36-4c3 0 5 1.51 6.46 4.06q25 43.94 50.09 87.87a30.84 30.84 0 012 3.94c2.12 5.44-.92 9.95-6.74 9.98z"/>
  <path class="cls-1" d="M222.87 152.36a10.5 10.5 0 00-1.25 6.49l3.26 35.29c.25 2.65.48 5.3.79 7.94a2.26 2.26 0 001.91 2.14 2.64 2.64 0 002.9-1.23 4.37 4.37 0 00.58-1.83c.84-9 1.64-18 2.46-26.93.5-5.44 1-10.88 1.61-17.28a20.18 20.18 0 00-1.41-4.54 6.11 6.11 0 00-10.85-.05zM228.36 208.54a4.58 4.58 0 104.55 4.6 4.65 4.65 0 00-4.55-4.6z"/>
</svg>
