<?xml version="1.0" encoding="UTF-8" standalone="no"?>
<svg
   xmlns:dc="http://purl.org/dc/elements/1.1/"
   xmlns:cc="http://creativecommons.org/ns#"
   xmlns:rdf="http://www.w3.org/1999/02/22-rdf-syntax-ns#"
   xmlns:svg="http://www.w3.org/2000/svg"
   xmlns="http://www.w3.org/2000/svg"
   xmlns:sodipodi="http://sodipodi.sourceforge.net/DTD/sodipodi-0.dtd"
   xmlns:inkscape="http://www.inkscape.org/namespaces/inkscape"
   enable-background="new 0 0 1024 1024"
   height="44"
   id="Twitter_1_"
   version="1.1"
   viewBox="0 0 44 44"
   width="44"
   xml:space="preserve"
   inkscape:version="0.91 r13725"
   sodipodi:docname="twitter.svg"><metadata
     id="metadata23"><rdf:RDF><cc:Work
         rdf:about=""><dc:format>image/svg+xml</dc:format><dc:type
           rdf:resource="http://purl.org/dc/dcmitype/StillImage" /><dc:title></dc:title></cc:Work></rdf:RDF></metadata><defs
     id="defs21" /><sodipodi:namedview
     pagecolor="#ffffff"
     bordercolor="#666666"
     borderopacity="1"
     objecttolerance="10"
     gridtolerance="10"
     guidetolerance="10"
     inkscape:pageopacity="0"
     inkscape:pageshadow="2"
     inkscape:window-width="1480"
     inkscape:window-height="889"
     id="namedview19"
     showgrid="false"
     fit-margin-top="0"
     fit-margin-left="0"
     fit-margin-right="0"
     fit-margin-bottom="0"
     inkscape:zoom="0.23046875"
     inkscape:cx="21.999028"
     inkscape:cy="22"
     inkscape:window-x="0"
     inkscape:window-y="0"
     inkscape:window-maximized="0"
     inkscape:current-layer="Twitter_1_" /><g
     id="Background"
     transform="matrix(0.04296875,0,0,0.04296875,-4.196167e-5,0)"><linearGradient
       gradientTransform="matrix(0.9397,0.3421,0.3421,-0.9397,275.9532,765.9631)"
       gradientUnits="userSpaceOnUse"
       id="bg_1_"
       x1="464.13229"
       x2="-194.28391"
       y1="-72.910599"
       y2="711.66772"><stop
         offset="0"
         style="stop-color:#002137"
         id="stop5" /><stop
         offset="0.1202"
         style="stop-color:#042840"
         id="stop7" /><stop
         offset="0.3161"
         style="stop-color:#0E3B58"
         id="stop9" /><stop
         offset="0.5635"
         style="stop-color:#1E5980"
         id="stop11" /><stop
         offset="0.8499"
         style="stop-color:#3583B7"
         id="stop13" /><stop
         offset="1"
         style="stop-color:#429BD6"
         id="stop15" /></linearGradient><circle
       cx="512.00098"
       cy="512"
       id="bg"
       r="512"
       style="fill:url(#bg_1_)" /></g><path
     d="m 31.925228,14.97517 c 0,0 2.26364,-1.90515 2.19192,-2.75533 0,0 -2.61185,1.14718 -3.18549,1.1984 0,0 -0.18163,-0.18275 -0.47893,-0.42303 -0.0991,-0.0801 -0.21106,-0.16659 -0.33352,-0.2548 -0.22675,-0.16556 -0.46548,-0.30783 -0.71337,-0.42836 -0.12392,-0.0602 -0.25007,-0.11511 -0.37799,-0.165 -0.83269,-0.36489 -1.74496,-0.45426 -2.64043,-0.3563 -0.12796,0.014 -0.25549,0.0318 -0.38247,0.0532 -1.48521,0.2325 -2.75537,1.13386 -3.55467,2.36281 -0.0718,0.1121 -0.13828,0.22717 -0.19891,0.34517 -0.12108,0.23598 -0.21866,0.48365 -0.28728,0.74202 -0.0269,0.0954 -0.0564,0.20647 -0.0842,0.32506 -0.0279,0.1186 -0.0541,0.24471 -0.0746,0.37018 -0.0819,0.50192 0,2.13052 0,2.13052 0,0 -6.60657,0.20487 -10.84711,-5.28529 0,0 -2.08949,3.95373 1.51593,6.71928 0,0 -0.73322,0.32777 -2.11814,-0.49165 0,0 -0.68836,3.01134 3.77747,5.08037 l -2.17139,0 c 0,0 0.75797,3.33915 4.79368,3.64642 0,0 -1.90514,2.56068 -7.4363,2.17142 0,0 4.99039,3.46994 11.41964,1.85952 0.11477,-0.0288 0.23005,-0.0592 0.34577,-0.0912 1.01758,-0.31389 2.04187,-0.6826 2.97219,-1.17709 0.0812,-0.0421 0.16238,-0.0852 0.24367,-0.12925 0.24394,-0.132 0.48886,-0.27255 0.73473,-0.42178 0,0 6.75984,-3.6627 7.31289,-13.12648 0,0 1.42068,-0.83364 2.33222,-2.43147 0,4e-5 -2.56068,0.59408 -2.75529,0.53264 z"
     id="Twitter"
     inkscape:connector-curvature="0"
     style="fill:#ffffff" /></svg>