<svg id="Capa_1" data-name="Capa 1" xmlns="http://www.w3.org/2000/svg" viewBox="0 0 254 235">
  <defs>
    <style>
      .cls-1{fill:#626262}
    </style>
  </defs>
  <path class="cls-1" d="M252.82 199.54a3.38 3.38 0 000-.8 3.18 3.18 0 00-1.14-2.16 3.71 3.71 0 00.11-2.8 7.44 7.44 0 00-.51-1.17v-.09a3.47 3.47 0 000-2.9 2.85 2.85 0 00-1.24-1.22l-.13-.19a4.28 4.28 0 000-2.05 7.26 7.26 0 01-.13-.8 4.92 4.92 0 00-.66-2.2 2.85 2.85 0 00-.68-.72l.11-.42a7.56 7.56 0 00.17-4.67 5.52 5.52 0 00-2.16-2.74 4.1 4.1 0 00-1.44-1l-.15-.07A2.89 2.89 0 00244 172a3 3 0 00-.41-.3 13.39 13.39 0 01-.33-1.82.83.83 0 010-.29 5.07 5.07 0 000-2.79 5.78 5.78 0 01-.11-.63v-.21c1.53-.36 3.36-1.24 3.36-3.84a15.55 15.55 0 01.16-1.94 5.66 5.66 0 00.73-2.42c.37-3.1.35-4 .17-4.69a25.07 25.07 0 01-.51-2.61 4 4 0 00-.56-1.64 6.11 6.11 0 01.21-.77 7.84 7.84 0 00.23-4.41v-.1l.06-.09c1.1-1.6 3.38-4.92 1.36-8.62-.36-.67-.6-1.14-.77-1.5a5.43 5.43 0 00-2.39-2.75l-.83-.53-1.87-2.56a2.62 2.62 0 00-.61-.6l-1.62-1.14a7.91 7.91 0 00-3.76-3.52c-1.6-.76-1.7-.86-2.07-1.25l-.38-.39a13.7 13.7 0 00-4.06-2.79 5.38 5.38 0 00-1-.61 5.63 5.63 0 00-2.45-2.08l-.19-.17a12.59 12.59 0 00-3.66-2.08l-.7-.3a6.34 6.34 0 00-4-1.38 8.93 8.93 0 00-3.26.69 5.77 5.77 0 00-2-1.59 5.85 5.85 0 001.23-2 5.73 5.73 0 00-.39-4.9 9.43 9.43 0 00-6.36-4.7 4 4 0 01-.84-.28 6.47 6.47 0 00-3.31-.86h-.12a8 8 0 00-3.83-2.7 5.39 5.39 0 00-3.52-.45 6.21 6.21 0 00-1.31-.14 6.1 6.1 0 00-1.15.11 5.74 5.74 0 00-1-.58 6.21 6.21 0 00-2.3-.52 5.85 5.85 0 00-2-.6 5.59 5.59 0 002.84-6.06c-.68-3.45-3.68-4.46-6.68-4.92v-3.45a1.29 1.29 0 01.37-.91 14.06 14.06 0 004.84-7 2.55 2.55 0 01.42 0 13.26 13.26 0 0015.28-13.21c0-.9.45-1.09 1.09-1.39 6.67-3.12 10.32-8.39 10.31-15.75S212.6 27.3 205.9 24.23a1.45 1.45 0 01-1-1.56A13.11 13.11 0 00194.95 10a42.43 42.43 0 00-5.81-.61c-2-5.58-6-9.12-12.26-9.34-6.77-.24-11.15 3.36-13.47 9.58a1 1 0 01-.25 0c-6.66-.79-12.11 2.4-14.56 8.58a1.07 1.07 0 01-1.21.79h-9.17a15.44 15.44 0 00-8.28 2.22c-1.79 1.11-3.4 2.52-5.1 3.8 0-.23-.12-.58-.17-.92-1-6.29-6.22-11.77-12.56-12.43-4.52-.47-9.11-.2-13.67-.25-.06 0-.12.1-.34.3a50.52 50.52 0 00.49 6.6 15.16 15.16 0 0014.91 12.11h7.5v8.82c-.23-.19-.35-.28-.46-.39A15.36 15.36 0 00109 34.23h-9.64c-.38 0-.76 0-1.2.05v3.91a14.92 14.92 0 0011.62 14.56c3.14.63 6.46.39 9.71.53H121v8.89l-.92-.86a15.12 15.12 0 00-10.44-4.22H99.28c-.34 0-.69 0-1.12.07v4a15 15 0 008.24 13.28 14.4 14.4 0 007.21 1.73h7.33v6.53c-.67 0-1.39.06-2 .1h-.8c-.82-.07-1.66-.11-2.48-.11a31.58 31.58 0 00-8.9 1.36 16.23 16.23 0 01-1.76-.18 23.83 23.83 0 00-3.24-.28 9.77 9.77 0 00-3.64.64 36.49 36.49 0 01-6.22.65h-.45l-.32-.28a6.73 6.73 0 00-.14-4.71c-.53-1.4-.53-1.4-4.86-4.91-1-.81-2.35-1.91-2.59-2.12a7.49 7.49 0 00-5.14-1.6c-.61 0-1.22 0-1.74.06l-.48-.2a19 19 0 00-7.17-1.77 10.71 10.71 0 00-1.81.16 10.64 10.64 0 00-.29-1.22 6.52 6.52 0 00-1.91-5.8 7.32 7.32 0 00-2.39-1.76 5.75 5.75 0 00-2.32-.48 11 11 0 00-5.93 2.07l-.17.15a5.8 5.8 0 00-3.85 4.38l-.11.23c-1 2.26-1.25 4.2-.66 5.81a6 6 0 00-1.4.41c-.84.37-1.8.69-2.82 1l-.67.23h-.27a8.4 8.4 0 00-5 1.59l-.71.16a13.15 13.15 0 00-4.22 1.48 6.36 6.36 0 00-1.17-1.39 6.2 6.2 0 00-.26-1.14c.55-2.62 0-4.69-1.77-6.19a5.47 5.47 0 00-3.58-1.34 6.15 6.15 0 00-5.05 3 10.26 10.26 0 00-2.11 3.79c-.1.28-.25.68-.35.89l-.05.05-.55.17a7.28 7.28 0 00-3 .54 9.59 9.59 0 00-5.13 6c-.06.17-.14.38-.2.53L11 83a5.41 5.41 0 00-1 1.87 5.5 5.5 0 00-1.4 1.73 18.77 18.77 0 00-1.32 2.88v.08A8.12 8.12 0 006.8 93c-.18.68-.33 1.36-.48 2a13.46 13.46 0 01-1.43 4.31l-.25.22c-2.06 1.77-4.62 4-4.63 7.23a5.8 5.8 0 002 4.39 5.71 5.71 0 003.76 1.4 6.73 6.73 0 002.16-.37 7.77 7.77 0 001.41.76 5.51 5.51 0 00.52.73 9.23 9.23 0 001 3.75 6.07 6.07 0 00.38.59 5.58 5.58 0 00.52 1.23 5.48 5.48 0 002.41 2.24 5.4 5.4 0 001.3 1.52l-.21.32a29 29 0 00-1.79 3c-1.75 3.61-.52 6.06.47 7.27a5.64 5.64 0 001.75 2.82 8.23 8.23 0 003.17 1.7 10.26 10.26 0 005.88 5.89 6.06 6.06 0 002.47.49 46.58 46.58 0 006.78-1l.52-.09a9.87 9.87 0 011.16.42 10.7 10.7 0 004.08 1 7 7 0 002.84-.59 14.42 14.42 0 013.67-1.34 15 15 0 013.41.92l.34.13a9.91 9.91 0 004.14.77 9.79 9.79 0 003.56 3.92l.36.25a21.26 21.26 0 004.62 5 5.61 5.61 0 002.99 3.12 6.46 6.46 0 002.6.55 6.16 6.16 0 001.61-.21 6 6 0 005.11-1.28 6.5 6.5 0 002.54.5h.24a6.5 6.5 0 003.3.92 6 6 0 002.41-.5 5.6 5.6 0 001-.57 14.14 14.14 0 001.67.11 8.62 8.62 0 002.44-.33 5.81 5.81 0 00.89-.34 12 12 0 001.8.15 8 8 0 001.6-.16v.09a7 7 0 00-.43 2.69h-.06c-2.86 2.5-2.7 6.48-2.59 9.12v.63c-.64 6.43.11 11.87 2.29 16.63a5.44 5.44 0 00.37.67 8.69 8.69 0 003.83 4l.16.1.18.25a8.71 8.71 0 00.47.89l-1.36.93c-3.13 2.19-4.68 3.45-5.28 5.54a5.46 5.46 0 00.51 4.25 6.68 6.68 0 005.4 3.16c3.76 3.38 4.77 4.91 4.93 5.61a5.73 5.73 0 00.22.72l.27.71.07.17c.55 1.3 1 2.8 1.54 4.39 1.47 4.56 3.13 9.72 7.37 13.42a5.41 5.41 0 00.69.52l.27.17a8.75 8.75 0 002.72 1.43 5.53 5.53 0 002.31 1.92 9.41 9.41 0 003.79.8 12.74 12.74 0 007.37-2.81c.27-.19.63-.44.79-.53l.36-.13a5.79 5.79 0 008.94.34 7.09 7.09 0 001.82-.5 6.09 6.09 0 003.08-3c.45-.27 1-.66 1.56-1.06a6 6 0 00.68 0 5.84 5.84 0 002.35-.49 11.32 11.32 0 003.08-2.12l.29-.25a5.41 5.41 0 001.43-.43 6.56 6.56 0 001.59.2 5.85 5.85 0 003.86-1.43c1.87-1.64 2.53-4 3.17-6.27V216l1.84-.51c4.26-1.16 6.2-1.72 7.65-3a6.28 6.28 0 002.13-5.7c-.58-3.74-4.22-5.6-5.32-6.08a9.9 9.9 0 00-4-.88 8.58 8.58 0 00-1.35.11 8.4 8.4 0 00-2.41-4.6 5.31 5.31 0 00-1.07-2.38 6 6 0 00.08-2.13 6 6 0 00.19-1.34 5.86 5.86 0 000-.59 5.75 5.75 0 001.88-.74c2.06.12 5.38.4 7.18.56 2.29 3.43 4.75 5.17 7.33 5.17a5.81 5.81 0 002.72-.68 6 6 0 003.5-2.69 10.18 10.18 0 001.08-4.11 7.84 7.84 0 001.55-1.24c.88 0 1.84 0 2.55.08h.28a5.4 5.4 0 002.32.1l1.62-.25c3-.44 6.65-1 9.35-2.76a5.94 5.94 0 001.58-1.52 6.48 6.48 0 00.69-.25 6.07 6.07 0 001-.53 6.7 6.7 0 004.09-.42 9.38 9.38 0 003.7-3.22c.14-.18.34-.44.47-.59a14.2 14.2 0 005.77-6.15 6.85 6.85 0 00.79-.19l2.33-.54a4.18 4.18 0 00.46.55 6.64 6.64 0 00.6.52v.21l-.62 1.59a2.63 2.63 0 00-.17 1.19v.36l-1.44 1.65a2.62 2.62 0 00-.73 2.28 3.49 3.49 0 003.49 2.87 9.54 9.54 0 001.1-.08 3.81 3.81 0 011.45 0l.56.13a4.17 4.17 0 000 2.56 2.77 2.77 0 001.17 1.34 3.55 3.55 0 00.59 1.31c.13.18.25.33.36.47a4.18 4.18 0 00-.64.76 4 4 0 00-.21.36 8.1 8.1 0 00-.72.78l-.12.15a2.69 2.69 0 00-2.66 2.89 3.18 3.18 0 001.07 2.44l-.29.53a14.67 14.67 0 00-2.15 6.49v.57c-1 1.26-.34 2.73.13 3.85a25.34 25.34 0 011 2.6l.13.38.06.18A4.36 4.36 0 00223 209a4 4 0 001.67 2.53l.66.53v.38a3.75 3.75 0 00-.43 1.71v.25a3.66 3.66 0 001.09 3.9 4.08 4.08 0 00.38.25 3.05 3.05 0 002.59 2.08 9.23 9.23 0 00.87 1.1 6.76 6.76 0 001.7 1.44v.06a6 6 0 002.1 2.47 7.86 7.86 0 003.47.9h.14a2.71 2.71 0 00.83 1 2.59 2.59 0 001.54.49 4 4 0 001-.15 3.21 3.21 0 002.87-1.84 1.84 1.84 0 01.23-.3 3.17 3.17 0 00.92-2.12 3.47 3.47 0 002.15-3l.06-.3a4.15 4.15 0 00.18-1 2.07 2.07 0 01.29-.49 2.49 2.49 0 00.57-2.37 1.1 1.1 0 010-.38 2.92 2.92 0 001.57-.61 4 4 0 001.35-3l.23-2.27a2.52 2.52 0 000-.26v-1a3.55 3.55 0 000-2.15l.07-.21c.06-.21.11-.4.15-.57a3.66 3.66 0 002.31-3.59 6.49 6.49 0 00-.74-2.94zM121 49.59a88.35 88.35 0 01-9.9-.43c-5.19-.78-9.37-6.18-8.92-11.22a87.34 87.34 0 019.9.43c5.15.79 9.33 6.19 8.92 11.22zm-9.8-23.29c-5.21-.7-9.17-5.75-9.09-10.92.06-.05.11-.15.17-.15a79.86 79.86 0 019.71.26A11 11 0 01121 26.38c-3.32 0-6.64.35-9.85-.08zm132.33 152.57c.23.16.23.16.26.23a5.93 5.93 0 01-.29 1.54l-.06.22-14.59 14.44a3.81 3.81 0 00.46-2.09v-.31a4.14 4.14 0 00-.14-1.1 6.74 6.74 0 00.59-.64 2.72 2.72 0 01.35-.37 5.05 5.05 0 00.69-.69 5.48 5.48 0 001.79-2.63 4.36 4.36 0 00.15-1.84v-.24a3.12 3.12 0 00-.15-.92l8-8c.1.14.21.29.3.41l.13.16a33.11 33.11 0 012.5 1.85zM241.19 161l.24-.23v.2h-.19zm-10.77-36.72l.31.31a9.8 9.8 0 003.6 2.36 3.53 3.53 0 01.79.51l-12.68 12.68a2.61 2.61 0 00.17-.88v-1.59a2.62 2.62 0 00-1.42-2.33 7.14 7.14 0 00-.54-.8l-.08-.1a5.88 5.88 0 00-3.55-2.23l.15-.25a6.77 6.77 0 002.16-.92 7.47 7.47 0 001.12-.9 9.21 9.21 0 003.54-2.46 5.29 5.29 0 00.86-.7l.23-.15c.42-.28.89-.6 1.38-1a2.61 2.61 0 001.59-1.16l.39-.64a7.36 7.36 0 00.62-.83 9.16 9.16 0 011.36 1.05zm-23.61 31.33l.49-.42h.1l-.52.52zm3.35-3.19a2.9 2.9 0 00.05-1.11 3 3 0 00-.85-1.68 5.2 5.2 0 00.08-1.78 6.83 6.83 0 004.3-.41 6.13 6.13 0 002.26-1.74l.38-.15a7.34 7.34 0 001.62-1zm-13.46-52.7l.45.24c1.85.32 2.1 2.53 3.52 3.15a1.29 1.29 0 00.51.09c.57 0 1.3-.21 1.88-.21a1.16 1.16 0 01.58.13c2.16 1.26 3.81.51 5.23 3 .61 1.07-4.51 1.76-4.78 2.68-.57 2 2.79 3.54 4.15 4.73.17.15.16.46.2.77h-3a1.3 1.3 0 01-1.54-1c-1.06-2.95-2.06-5.92-3.37-8.76a9 9 0 00-4.17-4.43 1.55 1.55 0 00.35-.42zm-74.07 3.14h15.95a5.1 5.1 0 014.91 2.8c1.3 2.74 2.27 5.63 3.42 8.57h-32.58c.27-.74.52-1.43.77-2.11.69-1.85 1.37-3.72 2.1-5.56a5.63 5.63 0 015.44-3.73zM138 99h-2.24a5.43 5.43 0 015.1-3.79h32.86c2.44 0 4.14 1.34 5.24 3.78h-2.55a9.61 9.61 0 00-9.58 6.62c-1 2.55-1.94 5.11-2.86 7.68a1.2 1.2 0 01-1.35 1c-3.53 0-7.07-.05-10.6 0a1.26 1.26 0 01-1.42-1c-.89-2.5-1.85-5-2.79-7.46-1.75-4.59-4.99-6.83-9.81-6.83zm29-46.26c-4-3.91-7.86-7.85-11.79-11.78-.3-.3-.59-.62-.9-.95l2.92-2.75 14.82 14.83.35-.2V29.68c1.3.64 2.42 1.14 3.45 1.76a1.48 1.48 0 01.4 1.1v8.58l12.48-6.21 2.27 4.38-2.77 1.86a17.1 17.1 0 00-8.11 15.12v37.79a10.15 10.15 0 00-7.62-2.67V90 66a17.7 17.7 0 00-5.5-13.26zm3.88 53.08a5.07 5.07 0 014.81-3h5.9a.83.83 0 00.19.26.54.54 0 00.36.15 1.17 1.17 0 00.74-.41h9.22a5 5 0 014.75 2.87c1.26 2.71 2.22 5.57 3.35 8.48h-32.56c1.11-2.85 2.05-5.67 3.28-8.36zm19-7.07a.45.45 0 01.2.25h-1.44a2.48 2.48 0 01.9-.32.82.82 0 01.4.07zm-3.07-.63a.78.78 0 01.31-.08c.47 0 .36.74.6 1h-1.35c.11-.47.24-.81.51-.92zM185.07 88a3.87 3.87 0 01-1.12.21v-1.06c1.23.26 1.89.54 1.12.85zm-33-61.48c-1.18-4.24-.63-8.1 2.87-11s7.43-2.75 11.53-.78c.11-.76.23-1.36.28-2a9.54 9.54 0 0119.06 0c0 .59.14 1.17.23 1.95 4-1.86 7.93-2.19 11.47.73s4.2 6.73 2.95 11.05c7.61 1.75 12.27 6.19 11.92 14.19-.32 7.23-4.87 11.2-11.9 12.69 1.19 4.27.62 8.11-2.89 11s-7.44 2.7-11.51.78c-.39 2.4-.38 4.81-2.18 7v-1.27-14.64a13.39 13.39 0 016.23-11.76c1.87-1.26 3.75-2.51 5.75-3.84l-5.41-10.82-10.34 5.2v-4.93a1.36 1.36 0 00-.53-1c-3.49-1.79-7-3.52-10.52-5.27h-.36V43l-11.28-11.34-8.44 8.42c.18.18.46.5.76.79q7.36 7.37 14.74 14.73a13.5 13.5 0 014.2 10.14v6.48c-1.72-2.2-1.86-4.52-2.13-7-4 1.86-7.93 2.2-11.46-.71s-4.21-6.72-3-11.07c-7.75-1.79-12.41-6.36-11.89-14.51.47-7.07 5-10.93 11.9-12.38zm-23.53.48a12.94 12.94 0 019.52-4.17h9.55c.26.65.13 1-.54 1.27a17 17 0 00-9.52 9.45c-.13.29-.51.67-.78.67h-11.72a12.59 12.59 0 013.49-7.22zm-3.59 11.15h11.35v3.68a15.83 15.83 0 00-11.35 5.11zm.4 15.77a11.43 11.43 0 0111-8.26 1.3 1.3 0 011.32.84c1.15 2.06 2.44 4 3.81 6.25a10.69 10.69 0 01-7.91 4.25c-2.84.19-5.7 0-8.79 0 .22-1 .29-2.08.57-3.08zM111.27 72a11 11 0 01-9.21-10.94c.05-.05.11-.15.17-.15a81.43 81.43 0 019.6.24A11.06 11.06 0 01121 72.12c-3.28 0-6.55.34-9.73-.12zm13.68 11.73h6.91c9.28 0 15.88-6.61 15.88-15.89V65c-4.79 0-9.47-.17-14.12.06-3 .15-5.34 1.73-8.74 4.78v-8.93h7.41a14.48 14.48 0 008.43-2.46 50.7 50.7 0 004.28-3.58 18.14 18.14 0 012.24 1.13 1.56 1.56 0 01.48 1.15 13.38 13.38 0 0013.93 13.33c.55 0 1.1-.09 1.75-.15.15.36.32.75.47 1.14A13.46 13.46 0 00168 77a1.81 1.81 0 01.7 1.1v13.27h-27.12c-4.33 0-7.49 1.85-9.28 5.79-.64 1.41-1.39 2.08-3 1.88a35.65 35.65 0 00-4.33 0V84.07zm0-3.81a11.24 11.24 0 0110-11.3 84.29 84.29 0 019-.06 11.33 11.33 0 01-4.43 8.94 10.9 10.9 0 01-6.83 2.5h-7.77zM55.63 68c0-.81 1.38-.45 1.8-.95.19-.22.24-.48.5-.71a7.17 7.17 0 012.37-.73.4.4 0 01.15 0 4 4 0 01.86.75c.55.48-.19 2.1.09 2.72a6.14 6.14 0 01.48 2l-.66-.05a5.44 5.44 0 00-2.85-.8A5.93 5.93 0 0055 71.42a1.43 1.43 0 00-.28-.34c-.44-.39.91-2.35.91-3.08zM33.3 96.25l.58.62a7.55 7.55 0 00.88 2.59A7.31 7.31 0 0036 101a7.41 7.41 0 00.57 2.8c-.25.15-.49.32-.73.49H34.9a5.58 5.58 0 00-1.82-3.21 5.21 5.21 0 00-2.2-1.17 6 6 0 00-.2-.64q.09-.22.16-.44a16.06 16.06 0 001.51-1.74 6.05 6.05 0 00.95-.84zM209 171.18c-1.73.76-2.53 3.08-3.79 3.63a1.31 1.31 0 01-.53.11c-.93 0-1.67-1-2.57-1a1.24 1.24 0 00-.5.11c-.8.35-.83 1.47-1.44 1.73a2.38 2.38 0 01-.91.12h-.5a1.86 1.86 0 00-1.21.28c-.51.44.11 1.44-.45 1.81-2.13 1.4-6.24 1.74-8.93 2.21l-.54-.16c-.46 0-2.27-.11-3.88-.11-1.31 0-2.5.08-2.71.35-.49.64-.88 1.45-1.71 1.81a.7.7 0 01-.27 0c-.36 0-.9-.13-1.27-.13a.55.55 0 00-.36.09c-.24.21-.3 5-.81 5.91-.11.19-1 .36-1.26.55a.39.39 0 01-.26.1c-1.07 0-3.36-3.58-3.61-4s-1.38-.66-1.71-.95c-.08-.07-8.7-.82-10.69-.82a1.29 1.29 0 00-.4 0c-.14.09-.77.88-1 .88-.61-.27-.89-2.75-1.62-3.39a1.83 1.83 0 00-1.16-.27c-1 0-2.39.27-3.36.27a2.64 2.64 0 01-.71-.08c-1.62-.47-3.22-1.77-4.87-2.13a1.87 1.87 0 00-.4 0 3.27 3.27 0 00-1.31.36c-2.64 1.15.85 3.54 2.07 4.89l.27.39c0 2.56 1.8 1.84 3.79 3a17.61 17.61 0 012.8 2.29c.71.62-.41 1.31-.72 1.58-.61.53 1 .85.81 1.34a6.07 6.07 0 00-.09 3.7c.18.48.64.59 1.08.79.23.1-.26 1.35.09 1.66.61.53 2.34 1.57 2.34 3.15 0 1.07-.68 1.27-1.17 2.13-.83 1.45 3.37 2.85 4.15 3.07a1.26 1.26 0 00.35.05c1 0 1.76-1.11 3.34-1.11a4.5 4.5 0 011.81.42c.63.28 3.05 1.67 1.8 2.76-1 .87-7.87 2.3-9.83 3.15-1.11.48-1.57 5.63-2.89 6.78a.44.44 0 01-.3.1c-.69 0-2-.95-3-.95a1 1 0 00-1 .85l.09.39c-2.11 0-3.14 2.08-4.69 2.76a.46.46 0 01-.19 0c-.51 0-.85-.94-1.28-.94a.38.38 0 00-.25.11c-.19.17-3.21 2.51-3.43 2.6a.48.48 0 01-.19 0c-.32 0-.79-.17-1.19-.17a.83.83 0 00-.33.06c-.93.4.26 2.29-.81 2.76-.57.25-2.31.13-2.71.47s-.78 1.53-1.31 1.53a.34.34 0 01-.14 0c-.54-.24.24-1.14-.09-1.58a5.29 5.29 0 00-2.79-1.41.92.92 0 00-.37.07c-1.1.48-2.57.73-3.79 1.26-1.54.67-3.54 2.87-6 2.87a4 4 0 01-1.62-.35c-.12-.05.07-.58 0-.71-.71-1.25-3-1-4-2l-.63-.39C109.91 222 109 215.22 106.8 210l-.27-.71c-.74-3.22-4.68-6.77-7.57-9.3-.8-.7-2.91-.2-3.34-.95-.28-.5 6.08-4.66 6.49-4.89l.36-.39c3.61-3.15-.7-4-1.17-6.54l-.36-.32c-.85-1.85-3.33-1.85-3.7-3.7l-.27-.32c-2-4.35-2.34-9.05-1.8-14.11v-.32c0-1.27-.38-4.71.72-5.67.48-.42 1.49-.35 2-.79s-.35-3.18 0-4.1c.63-1.65 2.42-1.33 3.79-2.13.5-.29.25-1.17.18-1.5l-.18-.47a6.59 6.59 0 00-6.11-4.08 8.61 8.61 0 00-3.44.77 2.12 2.12 0 01-.85.15c-.85 0-1.87-.3-2.72-.3a2.12 2.12 0 00-.85.15c-.26.11-.34.47-.63.55a3.34 3.34 0 01-.93.11c-1.06 0-2.32-.32-3.38-.32a3 3 0 00-1.19.21c-.44.19.09.87-.27 1a.61.61 0 01-.25.05c-.64 0-1.37-.88-1.65-1a1.12 1.12 0 00-.45-.08c-.45 0-1 .16-1.44.16a1.13 1.13 0 01-.45-.08 5.75 5.75 0 00-2.17-.77 1.6 1.6 0 00-.45.06 8.25 8.25 0 00-2.89 1.5.63.63 0 01-.42.17c-.51 0-1-.67-1.49-.67h-.16c-.32.09-.59.73-1.19.73a1.09 1.09 0 01-.44-.1c-.22-.1.3-1.41-.27-1.58-1.49-.43-4.18-3.21-5-4.57-1-1.73-3.26-2-3.7-4a1.15 1.15 0 00-.41-.76c-.07 0-.52-.74-.71-.91a.25.25 0 00-.15 0h-.22c-.13 0-.21-.15-.32-.21a5.34 5.34 0 00-.7-.19c-.35-.12-.47-.49-1-.5h-1.24a4.46 4.46 0 01-2-.34l-.63-.24a16.48 16.48 0 00-5.25-1.24c-1.68 0-3.15.62-5.84 1.79a1.66 1.66 0 01-.67.13c-1.39 0-3.16-1.39-5.28-1.39a4.69 4.69 0 00-.81.07c-1 .17-5.19 1-6.45 1a.9.9 0 01-.31 0c-1.17-.51-3.61-2-2.89-3.94.07-.17.68-.15.45-.55-1.07-1.88-3.75-.91-5.23-2.21-.32-.28.42-.27.54-.47a1.3 1.3 0 00-.27-1.34c-.17-.22-1.08-.08-1.35-.32-1.08-.94 3.43-5.82 3.43-7.49a6.41 6.41 0 00-2.34-3.94l-.45-.08c-.26-.58-.35-1.38-1-1.66a6.54 6.54 0 01-1.35-.47c-.13-.23.21-1 0-1.18s-.71-.3-.9-.63c-.44-.76-.34-3.56-.81-4.18-.18-.24-.81-.19-.81-.47 0-.63.82-.05.45-1-.59-1.56-4.24.39-4.24-3.55 0-.11-.07-.16-.19-.16-.72 0-3.34 1.8-4.2 1.8a.31.31 0 01-.21-.06c-.87-.76 2.8-3.53 3.25-4 2.19-2.4 2.53-6.26 3.34-9.06.24-.85-.11-1.76.18-2.52a14.09 14.09 0 011-2.21c.12-.2 1-.29 1.17-.63a16.49 16.49 0 00.81-2.29l.5-.63c1-1.5.92-3.71 3-4.61a2.79 2.79 0 01.89-.09h.66A1.52 1.52 0 0021 81c.39-.34 1.16-.33 1.67-.55A5.12 5.12 0 0024 79.32c1.62-1.42 1.66-4 2.75-5 .13-.11.84-1.19 1-1.19.42.37-.22 1.92-.36 2.29-.25.66.39 1.1.54 1.5s-.18 1.13 0 1.62.87.63.92 1.34c0 .29.7.4.88.55.67.59.63 2.68.95 3.51.2.52.68.66.68 1.38 0 .26.18.75.14.83-.25.43-.41 1-.63 1.5l-.14.2a2.16 2.16 0 00.14.39c.28.24 2.27.37 1.71 1.34-.15.26-.63.21-.86.51s.05.77-.27.91-1.69.35-1.8.55-.1.7-.32 1-.72.36-.86.59a9.85 9.85 0 01-1.85 2.21c-.17.15-.67.26-.77.43-.25.45 0 1.07-.23 1.5s-1.33.39-1.58.83.68 1.71.68 2.25a2 2 0 000 .39c.36.16 1 0 .9.59v.24c0 2.68.73 1 .84 2.84.07 1.23.21 2.66.67 2.66.19 0 .43-.24.75-.85.14-.27-.07-1 .09-1.18a.71.71 0 01.33 0 5.88 5.88 0 011.2.12c.29.25-.54.59-.54.95 0 1-.15 3.18.63 3.86a.6.6 0 00.41.02c.37 0 .89-.11 1.27-.11a.65.65 0 01.42.1c.18.15.48.8.75.8h.07a17.29 17.29 0 012.25-1.1 1 1 0 01.26 0c.69 0 2 .4 2.54.4.1 0 .16 0 .18-.05a5 5 0 012.43-2c1-.29 2.46-3.69 2.25-4.57s-1.49-1.79-.9-3.15l-.09-.71c-.3-.4-.12-.95-.36-1.26-.5-.65-1.26-.93-1.62-1.58-.46-.8-.12-2.24-.9-2.92a23.3 23.3 0 01-4.24-5.44c-.19-.34.93-1.08.72-1.26s-1.31-.83-1.17-.95c1.11-1 2-2.54 3.16-3.55 1.38-1.21 4.83-.94 5.86-2.29.3-.36 2.62-.36 3.12-.53 1.47-.51 2.94-1 4.33-1.58a1 1 0 01.39-.06c.65 0 1.71.29 2.42.29a1 1 0 00.62-.15l.16-.12a7.59 7.59 0 002.88.61 6 6 0 002.67-.63c.28-.09.89-.25 1.27-.34a10.13 10.13 0 004.47-1.92l.14-.15c.68-.26 1.28-.52 1.67-.69a4.71 4.71 0 011.9-.37c2.39 0 5 1.41 6.39 1.87l.36.16c.52 0 1.66-.11 2.64-.11a3 3 0 011.59.27c.58.5 5.92 4.81 6 4.89.93 2.43-3.69 3.08-1.26 5.2.21.18.42.89.54.95a.87.87 0 00.34.05h.77a1.06 1.06 0 01.42.07c.56.25 1.34 1.33 2.8 2a6.91 6.91 0 002.35.27 34.88 34.88 0 008.11-1 4.39 4.39 0 011.75-.3c1.57 0 3.44.47 5 .47a4.89 4.89 0 001.36-.17 26.48 26.48 0 017.56-1.19c.65 0 1.32 0 2 .09l.54.08c.62 0 1.94-.16 2.8-.16v11c-4.25 1.16-6.2 3-7.74 7.06-.9 2.41-1.83 4.82-2.68 7.24a1.11 1.11 0 01-1.29.87c-1.13-.06-2.27 0-3.4 0V118h102.75v-3.19a.55.55 0 00.08.1.78.78 0 00.51.12h.56c.42 0 .8.08.83.6l.18.39c0 1.19.12 1.52.32 1.52s.61-.49 1-.49a.56.56 0 01.37.15c.21.19-.25.88.09 1a1 1 0 00.4.07 3.47 3.47 0 001.18-.29h2.09v-.94a4.72 4.72 0 011.7-.49 1 1 0 01.67.22c1 .9 3 1.23 4.15 2.21.23.2.64.95.9.95a1.72 1.72 0 01.57.08 3.74 3.74 0 000 .42 3.13 3.13 0 00-1.29.79c-.52.52-.94 1-1.26 1.35l-.67.43a8.07 8.07 0 00-.83.38l-.42.22a19.2 19.2 0 00-2.77 1.79 3.26 3.26 0 00-3.07.83 5.72 5.72 0 00-.68.86c-1.1.5-.34 1.09-1 2.31-.08.14-.29.15-.52.15h-.2c-.38 0-.69 0-.36.64l.09.47a13.25 13.25 0 00-1.17.87c-.13.11.15.89.6 1.9a2.91 2.91 0 00.76 1.61c.2.4.4.79.6 1.18a2.61 2.61 0 00.3 2l.91 1.48a2.65 2.65 0 00.3.4 3.72 3.72 0 00-1.55.74 2.86 2.86 0 00-3.4.58 1.59 1.59 0 00-.6-.14 1.32 1.32 0 00-.53.12.94.94 0 00-.39.35 2.61 2.61 0 00-1.87.66c-.86.05-1.78.13-2.07.64-.18.32-.32 1.39-.54 1.58-1.08.94-1.88.25-.18 1.73.34.29-.83.46-.63.63a1.29 1.29 0 00.89.27h.7a.9.9 0 01.42.08 2.61 2.61 0 00.22.77c0 .1 0 .21-.06.33v.08a2.51 2.51 0 00-.5.92 2.63 2.63 0 00-.09.73c-1.32 1.66-3.89 2.46-3.57 5v.39c.42.61.55 1 1.11 1.37a2.6 2.6 0 00.43.69l.66.76a1.92 1.92 0 00.51 1 8.92 8.92 0 00.83.49l7.33 8.4a2.62 2.62 0 00.93.67 9.39 9.39 0 01-2.59 2.25zm7-8.76a8 8 0 00-3.86-2.17 7.65 7.65 0 01-1-1c0-.08-.11-.16-.16-.24l27.84-27.84 1.71 2.33a2.63 2.63 0 00.71.66l1.25.8.27.18c0 .09.11.21.17.33zm9.59 4.19c-.35-.23-.76-.53-.92-.65s-.56-.87-.88-1.42a2.6 2.6 0 00-1.36-1.14l19.36-19.4c0 .24.08.46.11.65a2.71 2.71 0 01-.07 1.72c-.7 2.11-.68 3.49.14 4.91.07.5.16 1 .26 1.51l-15.8 14.89a2.61 2.61 0 00-.89-1.07zm1.39 8.64l-.71-.16 11.27-10.62a5.48 5.48 0 00.57 2.3c0 .27.09.62.19 1.1v.23a5.5 5.5 0 00-.21 2.15c0 .37.09.78.16 1.18L231 178.7a3.43 3.43 0 00-1.32-2.45 6.61 6.61 0 00-2.75-1zm2.08 33a4.93 4.93 0 00-.42-.32l-.44-.35a5.75 5.75 0 00-.32-1.54l-.12-.35a15.9 15.9 0 00-.51-1.39l17.48-17.3c0 .1 0 .19.06.29a1.92 1.92 0 01-.09.21 2.63 2.63 0 00.56 3.35 3.33 3.33 0 01.46.48l.1.17zm13.63 8.27a5.72 5.72 0 00-.79 2.18v.18l-.05.2a4.06 4.06 0 00-2.4 2.38 2.44 2.44 0 00-.94-.2 2.19 2.19 0 00-.69.11h-.16l-.5-.05 5.63-5.74a6.47 6.47 0 00-.16.97zm4.73-14.35a4.14 4.14 0 00-1.15 2.31l-12.92 13.18a2.6 2.6 0 00-2.22-2.29 2.68 2.68 0 00-.87-.94L246 198.66a3.13 3.13 0 00.4.87 3 3 0 00.93.89 2.61 2.61 0 00.6 1.16l.07.1a3.28 3.28 0 00-.64.51z"/>
  <path class="cls-1" d="M98.29 118H102v-3.66h-3.71zM159.12 106.72h-3.66v3.67h3.66zM164.81 99.11h-3.67v3.66h3.67zM155.31 99.08h-3.68v3.66h3.68zM140.05 106.72h-3.7v3.68h3.7zM126.74 106.73H123v3.64h3.71zM182.12 110.36h3.66v-3.66h-3.66zM174.47 110.38h3.71v-3.65h-3.71z"/>
</svg>
