<svg xmlns="http://www.w3.org/2000/svg" stroke-linejoin="round" stroke-width="28.222" fill-rule="evenodd" preserveAspectRatio="xMidYMid" viewBox="1278 8407 24787.999 25411" height="1695" width="1653" version="1.2">
  <defs class="ClipPathGroup">
    <clipPath clipPathUnits="userSpaceOnUse" id="a">
      <path d="M1278 8407h24788v25411H1278z"/>
    </clipPath>
  </defs>
  <g class="SlideGroup">
    <g clip-path="url(#a)" class="Slide">
      <g class="Page">
        <g class="Graphic">
          <path fill="none" class="BoundingBox" d="M15514 11970h2541v2541h-2541z"/>
          <path d="M18002 13238c0 225-51 416-164 612-113 195-253 335-448 448-193 111-383 163-607 163h-5c-225 0-417-51-612-163-195-113-335-253-448-448-111-192-162-380-164-602v-10c0-226 52-417 164-612 113-195 253-336 448-448 191-110 377-161 597-164h15c226 0 417 51 612 164 195 112 335 253 448 448 109 188 160 373 164 591z" stroke-opacity=".71" stroke="#FFF" fill-opacity=".71" fill="#DE6124"/>
          <path d="M18002 13238v0c0 225-51 416-164 612-113 195-253 335-448 448-193 111-383 163-607 163v0h-5c-225 0-417-51-612-163-195-113-335-253-448-448-111-192-162-380-164-602v-10c0-226 52-417 164-612 113-195 253-336 448-448 191-110 377-161 597-164v0h15c226 0 417 51 612 164 195 112 335 253 448 448 109 188 160 373 164 591" stroke-linecap="round" stroke-width="54" stroke="#DE6124" fill="none"/>
          <path d="M17835 13238v0c0 198-45 367-142 539-97 171-218 295-386 394s-331 144-524 145v0h-5c-194 0-360-46-528-145-169-99-290-223-387-394-95-170-140-335-141-530v-9c0-199 44-368 141-539 97-172 218-296 387-395 164-97 325-142 515-144v0h13c195 0 360 45 529 144 168 99 289 223 386 395 94 166 138 328 142 520" stroke-linecap="round" stroke-width="32" stroke="#DE6124" fill="none"/>
          <text class="TextShape">
            <tspan font-weight="700" font-size="865" font-family="Arial, sans-serif" class="TextParagraph"><tspan y="13542" x="16136" class="TextPosition"><tspan fill="#FFF">CR</tspan></tspan></tspan>
          </text>
        </g>
        <g class="Graphic">
          <path fill="none" class="BoundingBox" d="M15514 31278h2541v2541h-2541z"/>
          <path d="M18021 32548c0 228-52 421-166 619-113 197-255 339-452 452-196 113-388 165-614 166h-5c-228 0-421-52-619-166-197-113-339-255-452-452-112-194-164-384-166-609v-10c0-228 52-421 166-619 113-197 255-339 452-452 193-112 381-163 603-166h16c228 0 421 52 619 166 197 113 339 255 452 452 111 191 162 378 166 598z" stroke-opacity=".71" stroke="#FFF" fill-opacity=".71" fill="#0068B4"/>
          <path d="M18021 32548v0c0 228-52 421-166 619-113 197-255 339-452 452-196 113-388 165-614 166v0h-5c-228 0-421-52-619-166-197-113-339-255-452-452-112-194-164-384-166-609v-10c0-228 52-421 166-619 113-197 255-339 452-452 193-112 381-163 603-166v0h16c228 0 421 52 619 166 197 113 339 255 452 452 111 191 162 378 166 598" stroke-linecap="round" stroke-width="55" stroke="#0068B4" fill="none"/>
          <path d="M17852 32548v0c0 201-45 371-143 545s-221 298-391 399c-169 99-334 145-530 146v0h-4c-197 0-364-46-534-146-170-101-293-225-391-399-97-171-141-338-143-536v-9c0-201 45-371 143-545s221-298 391-399c166-98 329-143 521-146v0h13c197 0 364 46 534 146 170 101 293 225 391 399 95 168 140 333 143 527" stroke-linecap="round" stroke-width="33" stroke="#0068B4" fill="none"/>
          <text class="TextShape">
            <tspan font-weight="700" font-size="875" font-family="Arial, sans-serif" class="TextParagraph"><tspan y="32861" x="16165" class="TextPosition"><tspan fill="#FFF">NE</tspan></tspan></tspan>
          </text>
        </g>
        <g class="Graphic">
          <path fill="none" class="BoundingBox" d="M15514 28060h2541v2541h-2541z"/>
          <path d="M18021 29330c0 228-52 421-166 619-113 197-255 339-452 452-196 113-388 165-614 166h-5c-228 0-421-52-619-166-197-113-339-255-452-452-112-194-164-384-166-609v-10c0-228 52-421 166-619 113-197 255-339 452-452 193-112 381-163 603-166h16c228 0 421 52 619 166 197 113 339 255 452 452 111 191 162 378 166 598z" stroke-opacity=".71" stroke="#FFF" fill-opacity=".71" fill="#00BAF1"/>
          <path d="M18021 29330v0c0 228-52 421-166 619-113 197-255 339-452 452-196 113-388 165-614 166v0h-5c-228 0-421-52-619-166-197-113-339-255-452-452-112-194-164-384-166-609v-10c0-228 52-421 166-619 113-197 255-339 452-452 193-112 381-163 603-166v0h16c228 0 421 52 619 166 197 113 339 255 452 452 111 191 162 378 166 598" stroke-linecap="round" stroke-width="55" stroke="#00BAF1" fill="none"/>
          <path d="M17852 29330v0c0 201-45 371-143 545s-221 298-391 399c-169 99-334 145-530 146v0h-4c-197 0-364-46-534-146-170-101-293-225-391-399-97-171-141-338-143-536v-9c0-201 45-371 143-545s221-298 391-399c166-98 329-143 521-146v0h13c197 0 364 46 534 146 170 101 293 225 391 399 95 168 140 333 143 527" stroke-linecap="round" stroke-width="33" stroke="#00BAF1" fill="none"/>
          <text class="TextShape">
            <tspan font-weight="700" font-size="875" font-family="Arial, sans-serif" class="TextParagraph"><tspan y="29643" x="16142" class="TextPosition"><tspan fill="#FFF">DD</tspan></tspan></tspan>
          </text>
        </g>
        <g class="Graphic">
          <path fill="none" class="BoundingBox" d="M15514 24842h2541v2541h-2541z"/>
          <path d="M18021 26112c0 228-52 421-166 619-113 197-255 339-452 452-196 113-388 165-614 166h-5c-228 0-421-52-619-166-197-113-339-255-452-452-112-194-164-384-166-609v-10c0-228 52-421 166-619 113-197 255-339 452-452 193-112 381-163 603-166h16c228 0 421 52 619 166 197 113 339 255 452 452 111 191 162 378 166 598z" stroke-opacity=".71" stroke="#FFF" fill-opacity=".71" fill="#00B7B1"/>
          <path d="M18021 26112v0c0 228-52 421-166 619-113 197-255 339-452 452-196 113-388 165-614 166v0h-5c-228 0-421-52-619-166-197-113-339-255-452-452-112-194-164-384-166-609v-10c0-228 52-421 166-619 113-197 255-339 452-452 193-112 381-163 603-166v0h16c228 0 421 52 619 166 197 113 339 255 452 452 111 191 162 378 166 598" stroke-linecap="round" stroke-width="55" stroke="#00B7B1" fill="none"/>
          <path d="M17852 26112v0c0 201-45 371-143 545s-221 298-391 399c-169 99-334 145-530 146v0h-4c-197 0-364-46-534-146-170-101-293-225-391-399-97-171-141-338-143-536v-9c0-201 45-371 143-545s221-298 391-399c166-98 329-143 521-146v0h13c197 0 364 46 534 146 170 101 293 225 391 399 95 168 140 333 143 527" stroke-linecap="round" stroke-width="33" stroke="#00B7B1" fill="none"/>
          <text class="TextShape">
            <tspan font-weight="700" font-size="875" font-family="Arial, sans-serif" class="TextParagraph"><tspan y="26425" x="16190" class="TextPosition"><tspan fill="#FFF">LC</tspan></tspan></tspan>
          </text>
        </g>
        <g class="Graphic">
          <path fill="none" class="BoundingBox" d="M15514 21624h2541v2541h-2541z"/>
          <path d="M18021 22894c0 228-52 421-166 619-113 197-255 339-452 452-196 113-388 165-614 166h-5c-228 0-421-52-619-166-197-113-339-255-452-452-112-194-164-384-166-609v-10c0-228 52-421 166-619 113-197 255-339 452-452 193-112 381-163 603-166h16c228 0 421 52 619 166 197 113 339 255 452 452 111 191 162 378 166 598z" stroke-opacity=".71" stroke="#FFF" fill-opacity=".71" fill="#77C151"/>
          <path d="M18021 22894v0c0 228-52 421-166 619-113 197-255 339-452 452-196 113-388 165-614 166v0h-5c-228 0-421-52-619-166-197-113-339-255-452-452-112-194-164-384-166-609v-10c0-228 52-421 166-619 113-197 255-339 452-452 193-112 381-163 603-166v0h16c228 0 421 52 619 166 197 113 339 255 452 452 111 191 162 378 166 598" stroke-linecap="round" stroke-width="55" stroke="#77C151" fill="none"/>
          <path d="M17852 22894v0c0 201-45 371-143 545s-221 298-391 399c-169 99-334 145-530 146v0h-4c-197 0-364-46-534-146-170-101-293-225-391-399-97-171-141-338-143-536v-9c0-201 45-371 143-545s221-298 391-399c166-98 329-143 521-146v0h13c197 0 364 46 534 146 170 101 293 225 391 399 95 168 140 333 143 527" stroke-linecap="round" stroke-width="33" stroke="#77C151" fill="none"/>
          <text class="TextShape">
            <tspan font-weight="700" font-size="875" font-family="Arial, sans-serif" class="TextParagraph"><tspan y="23207" x="16177" class="TextPosition"><tspan fill="#FFF">NT</tspan></tspan></tspan>
          </text>
        </g>
        <g class="Graphic">
          <path fill="none" class="BoundingBox" d="M15514 8752h2541v2541h-2541z"/>
          <path d="M18021 10022c0 228-52 421-166 619-113 197-255 339-452 452-196 113-388 165-614 166h-5c-228 0-421-52-619-166-197-113-339-255-452-452-112-194-164-384-166-609v-10c0-228 52-421 166-619 113-197 255-339 452-452 193-112 381-163 603-166h16c228 0 421 52 619 166 197 113 339 255 452 452 111 191 162 378 166 598z" stroke-opacity=".71" stroke="#FFF" fill-opacity=".71" fill="#AD322A"/>
          <path d="M18021 10022v0c0 228-52 421-166 619-113 197-255 339-452 452-196 113-388 165-614 166v0h-5c-228 0-421-52-619-166-197-113-339-255-452-452-112-194-164-384-166-609v-10c0-228 52-421 166-619 113-197 255-339 452-452 193-112 381-163 603-166v0h16c228 0 421 52 619 166 197 113 339 255 452 452 111 191 162 378 166 598" stroke-linecap="round" stroke-width="55" stroke="#AD322A" fill="none"/>
          <path d="M17852 10022v0c0 201-45 371-143 545s-221 298-391 399c-169 99-334 145-530 146v0h-4c-197 0-364-46-534-146-170-101-293-225-391-399-97-171-141-338-143-536v-9c0-201 45-371 143-545s221-298 391-399c166-98 329-143 521-146v0h13c197 0 364 46 534 146 170 101 293 225 391 399 95 168 140 333 143 527" stroke-linecap="round" stroke-width="33" stroke="#AD322A" fill="none"/>
          <text class="TextShape">
            <tspan font-weight="700" font-size="875" font-family="Arial, sans-serif" class="TextParagraph"><tspan y="10335" x="16206" class="TextPosition"><tspan fill="#FFF">EL</tspan></tspan></tspan>
          </text>
        </g>
        <g class="Graphic">
          <path fill="none" class="BoundingBox" d="M15514 15188h2541v2541h-2541z"/>
          <path d="M18002 16468c0 225-52 417-164 612-113 195-253 335-448 448-194 112-384 163-607 164h-5c-226 0-417-51-612-164s-336-253-448-448c-111-192-162-380-164-602v-10c0-225 51-417 164-612 112-195 253-335 448-448 190-110 376-161 596-164h16c225 0 417 52 612 164 195 113 335 253 448 448 109 189 160 373 163 592z" stroke-opacity=".71" stroke="#FFF" fill-opacity=".71" fill="#F7941D"/>
          <path d="M18002 16468v0c0 225-52 417-164 612-113 195-253 335-448 448-194 112-384 163-607 164v0h-5c-226 0-417-51-612-164s-336-253-448-448c-111-192-162-380-164-602v-10c0-225 51-417 164-612 112-195 253-335 448-448 190-110 376-161 596-164v0h16c225 0 417 52 612 164 195 113 335 253 448 448 109 189 160 373 163 592" stroke-linecap="round" stroke-width="54" stroke="#F7941D" fill="none"/>
          <path d="M17834 16468v0c0 199-44 367-141 539s-219 295-387 395c-167 98-331 143-524 144v0h-4c-195 0-360-45-529-144-168-100-289-223-386-395-96-169-140-335-142-530v-9c0-198 44-367 142-539 97-172 218-295 386-394 165-97 326-142 515-145v0h14c194 0 360 45 528 145 168 99 290 222 387 394 94 166 138 329 141 521" stroke-linecap="round" stroke-width="32" stroke="#F7941D" fill="none"/>
          <text class="TextShape">
            <tspan font-weight="700" font-size="865" font-family="Arial, sans-serif" class="TextParagraph"><tspan y="16778" x="16179" class="TextPosition"><tspan fill="#FFF">EN</tspan></tspan></tspan>
          </text>
        </g>
        <g class="Graphic">
          <path fill="none" class="BoundingBox" d="M15514 18406h2541v2541h-2541z"/>
          <path d="M18002 19674c0 225-51 416-164 612-113 195-253 335-448 448-193 111-383 163-607 163h-5c-225 0-417-51-612-163-195-113-335-253-448-448-111-192-162-380-164-602v-10c0-226 52-417 164-612 113-195 253-336 448-448 191-110 377-161 597-164h15c226 0 417 51 612 164 195 112 335 253 448 448 109 188 160 373 164 591z" stroke-opacity=".71" stroke="#FFF" fill-opacity=".71" fill="#FEC52C"/>
          <path d="M18002 19674v0c0 225-51 416-164 612-113 195-253 335-448 448-193 111-383 163-607 163v0h-5c-225 0-417-51-612-163-195-113-335-253-448-448-111-192-162-380-164-602v-10c0-226 52-417 164-612 113-195 253-336 448-448 191-110 377-161 597-164v0h15c226 0 417 51 612 164 195 112 335 253 448 448 109 188 160 373 164 591" stroke-linecap="round" stroke-width="54" stroke="#FEC52C" fill="none"/>
          <path d="M17835 19674v0c0 198-45 367-142 539-97 171-218 295-386 394s-331 144-524 145v0h-5c-194 0-360-46-528-145-169-99-290-223-387-394-95-170-140-335-141-530v-9c0-199 44-368 141-539 97-172 218-296 387-395 164-97 325-142 515-144v0h13c195 0 360 45 529 144 168 99 289 223 386 395 94 166 138 328 142 520" stroke-linecap="round" stroke-width="32" stroke="#FEC52C" fill="none"/>
          <text class="TextShape">
            <tspan font-weight="700" font-size="865" font-family="Arial, sans-serif" class="TextParagraph"><tspan y="19978" x="16211" class="TextPosition"><tspan fill="#FFF">VU</tspan></tspan></tspan>
          </text>
        </g>
        <g class="com.sun.star.drawing.TextShape">
          <path fill="none" class="BoundingBox" d="M18121 8407h7946v3190h-7946z"/>
          <text class="TextShape">
            <tspan font-weight="700" font-size="282" font-family="Arial, sans-serif" class="TextParagraph"><tspan y="8790" x="20693" class="TextPosition"><tspan>ELIMINADO (Extinct)</tspan></tspan></tspan><tspan font-weight="400" font-size="282" font-family="Arial, sans-serif" class="TextParagraph"><tspan y="9108" x="18371" class="TextPosition"><tspan>Se refiere a ecosistemas que han experimentado una </tspan></tspan><tspan y="9426" x="18371" class="TextPosition"><tspan>transformación tan pronunciada que no es posible </tspan></tspan><tspan y="9744" x="18371" class="TextPosition"><tspan>distinguir elementos fundamentales de su composición o </tspan></tspan><tspan y="10062" x="18371" class="TextPosition"><tspan>estructura. Puede ocurrir por sustitución absoluta de la </tspan></tspan><tspan y="10380" x="18371" class="TextPosition"><tspan>cobertura o por la pérdida de una o más funciones </tspan></tspan><tspan y="10698" x="18371" class="TextPosition"><tspan>ecológicas clave en la totalidad de su distribución </tspan></tspan><tspan y="11016" x="18371" class="TextPosition"><tspan>conocida.</tspan></tspan></tspan>
          </text>
        </g>
        <g class="com.sun.star.drawing.TextShape">
          <path fill="none" class="BoundingBox" d="M18121 11494h7946v3190h-7946z"/>
          <text class="TextShape">
            <tspan font-weight="700" font-size="282" font-family="Arial, sans-serif" class="TextParagraph"><tspan y="11877" x="19003" class="TextPosition"><tspan>EN PELIGRO CRÍTICO (Critically Endangered)</tspan></tspan></tspan><tspan font-weight="400" font-size="282" font-family="Arial, sans-serif" class="TextParagraph"><tspan y="12195" x="18371" class="TextPosition"><tspan>Un ecosistema está En Peligro Crítico (CR), por ejemplo, </tspan></tspan><tspan y="12513" x="18371" class="TextPosition"><tspan>si ha experimentado una pérdida muy severa de su función </tspan></tspan><tspan y="12831" x="18371" class="TextPosition"><tspan>ecológica o eliminación total de su cobertura sobre una </tspan></tspan><tspan y="13149" x="18371" class="TextPosition"><tspan>gran proporción de su distribución (&gt; 80%), y con </tspan></tspan><tspan y="13467" x="18371" class="TextPosition"><tspan>amenazas actuando en el presente o que hayan actuado </tspan></tspan><tspan y="13785" x="18371" class="TextPosition"><tspan>en el pasado reciente o que se espera actúen en el futuro </tspan></tspan><tspan y="14103" x="18371" class="TextPosition"><tspan>(± 50 años). Esta categoría es asignada sobre la base de </tspan></tspan><tspan y="14421" x="18371" class="TextPosition"><tspan>criterios cuantitativos.</tspan></tspan></tspan>
          </text>
        </g>
        <g class="com.sun.star.drawing.TextShape">
          <path fill="none" class="BoundingBox" d="M18121 14742h7946v3190h-7946z"/>
          <text class="TextShape">
            <tspan font-weight="700" font-size="282" font-family="Arial, sans-serif" class="TextParagraph"><tspan y="15125" x="20265" class="TextPosition"><tspan>EN PELIGRO (Endangered)</tspan></tspan></tspan><tspan font-weight="400" font-size="282" font-family="Arial, sans-serif" class="TextParagraph"><tspan y="15443" x="18371" class="TextPosition"><tspan>Un ecosistema está En Peligro (EN) si ha experimentado </tspan></tspan><tspan y="15761" x="18371" class="TextPosition"><tspan>una pérdida muy severa de su función ecológica o </tspan></tspan><tspan y="16079" x="18371" class="TextPosition"><tspan>eliminaci[on total de su cobertura sobre una proporción </tspan></tspan><tspan y="16397" x="18371" class="TextPosition"><tspan>signifi cativa de su distribución (&gt; 50%), y con amenazas </tspan></tspan><tspan y="16715" x="18371" class="TextPosition"><tspan>actuando en el presente o que hayan actuado en el </tspan></tspan><tspan y="17033" x="18371" class="TextPosition"><tspan>pasado reciente o que se espera actúen en el futuro (± 50 </tspan></tspan><tspan y="17351" x="18371" class="TextPosition"><tspan>años). Esta categoría es asignada sobre la base de </tspan></tspan><tspan y="17669" x="18371" class="TextPosition"><tspan>criterios cuantitativos.</tspan></tspan></tspan>
          </text>
        </g>
        <g class="com.sun.star.drawing.TextShape">
          <path fill="none" class="BoundingBox" d="M18121 18043h7946v3190h-7946z"/>
          <text class="TextShape">
            <tspan font-weight="700" font-size="282" font-family="Arial, sans-serif" class="TextParagraph"><tspan y="18426" x="20273" class="TextPosition"><tspan>VULNERABLE (Vulnerable)</tspan></tspan></tspan><tspan font-weight="400" font-size="282" font-family="Arial, sans-serif" class="TextParagraph"><tspan y="18744" x="18371" class="TextPosition"><tspan>Un ecosistema es Vulnerable (VU), por ejemplo si ha </tspan></tspan><tspan y="19062" x="18371" class="TextPosition"><tspan>experimentado una pérdida muy severa de su función </tspan></tspan><tspan y="19380" x="18371" class="TextPosition"><tspan>ecológica o eliminación total de su cobertura sobre una </tspan></tspan><tspan y="19698" x="18371" class="TextPosition"><tspan>gran proporción moderada de su distribución (&gt; 30%), y </tspan></tspan><tspan y="20016" x="18371" class="TextPosition"><tspan>con amenazas actuando en el presente o que hayan </tspan></tspan><tspan y="20334" x="18371" class="TextPosition"><tspan>actuado en el pasado reciente o que se espera actúen en </tspan></tspan><tspan y="20652" x="18371" class="TextPosition"><tspan>el futuro (± 50 años). Esta categoría es asignada sobre la </tspan></tspan><tspan y="20970" x="18371" class="TextPosition"><tspan>base de criterios cuantitativos.</tspan></tspan></tspan>
          </text>
        </g>
        <g class="com.sun.star.drawing.TextShape">
          <path fill="none" class="BoundingBox" d="M18121 22004h7946v1906h-7946z"/>
          <text class="TextShape">
            <tspan font-weight="700" font-size="282" font-family="Arial, sans-serif" class="TextParagraph"><tspan y="22387" x="19554" class="TextPosition"><tspan>CASI AMENAZADO (Near Threatened)</tspan></tspan></tspan><tspan font-weight="400" font-size="282" font-family="Arial, sans-serif" class="TextParagraph"><tspan y="22705" x="18371" class="TextPosition"><tspan>Un ecosistema está Casi Amenazado (NT) en caso de que </tspan></tspan><tspan y="23023" x="18371" class="TextPosition"><tspan>no califique como amenazado en el presente, pero que </tspan></tspan><tspan y="23341" x="18371" class="TextPosition"><tspan>está muy cerca de los valores umbrales y podría calificar </tspan></tspan><tspan y="23659" x="18371" class="TextPosition"><tspan>en el futuro cercano.</tspan></tspan></tspan>
          </text>
        </g>
        <g class="com.sun.star.drawing.TextShape">
          <path fill="none" class="BoundingBox" d="M18121 25190h7946v1906h-7946z"/>
          <text class="TextShape">
            <tspan font-weight="700" font-size="282" font-family="Arial, sans-serif" class="TextParagraph"><tspan y="25573" x="19266" class="TextPosition"><tspan>PREOCUPACIÓN MENOR (Least Concern)</tspan></tspan></tspan><tspan font-weight="400" font-size="282" font-family="Arial, sans-serif" class="TextParagraph"><tspan y="25891" x="18371" class="TextPosition"><tspan>Un ecosistema se considera bajo la categoría </tspan></tspan><tspan y="26209" x="18371" class="TextPosition"><tspan>Preocupación Menor (LC) si no califica (ni está cerca de </tspan></tspan><tspan y="26527" x="18371" class="TextPosition"><tspan>calificar) como amenazado (CR, EN o VU) o casi </tspan></tspan><tspan y="26845" x="18371" class="TextPosition"><tspan>amenazado (NT).</tspan></tspan></tspan>
          </text>
        </g>
        <g class="com.sun.star.drawing.TextShape">
          <path fill="none" class="BoundingBox" d="M18121 27988h7946v2796h-7946z"/>
          <text class="TextShape">
            <tspan font-weight="700" font-size="282" font-family="Arial, sans-serif" class="TextParagraph"><tspan y="28371" x="19412" class="TextPosition"><tspan>DATOS INSUFICIENTES (Data Deficient)</tspan></tspan></tspan><tspan font-weight="400" font-size="282" font-family="Arial, sans-serif" class="TextParagraph"><tspan y="28689" x="18371" class="TextPosition"><tspan>Se refiere a ecosistemas de los que no se dispone de </tspan></tspan><tspan y="29007" x="18371" class="TextPosition"><tspan>suficiente información para hacer una evaluación del </tspan></tspan><tspan y="29325" x="18371" class="TextPosition"><tspan>riesgo de eliminación. Antes de clasificar un ecosistema </tspan></tspan><tspan y="29643" x="18371" class="TextPosition"><tspan>DD es preciso agotar todas las fuentes de información</tspan></tspan></tspan><tspan font-weight="400" font-size="282" font-family="Arial, sans-serif" class="TextParagraph"><tspan y="29961" x="18371" class="TextPosition"><tspan>existentes, para evitar que ecosistemas amenazados sean </tspan></tspan><tspan y="30279" x="18371" class="TextPosition"><tspan>ignorados o subestimados al definir acciones de </tspan></tspan><tspan y="30597" x="18371" class="TextPosition"><tspan>conservación.</tspan></tspan></tspan>
          </text>
        </g>
        <g class="com.sun.star.drawing.TextShape">
          <path fill="none" class="BoundingBox" d="M18121 31671h7946v1906h-7946z"/>
          <text class="TextShape">
            <tspan font-weight="700" font-size="282" font-family="Arial, sans-serif" class="TextParagraph"><tspan y="32054" x="19981" class="TextPosition"><tspan>NO EVALUADO (Not Evaluated)</tspan></tspan></tspan><tspan font-weight="400" font-size="282" font-family="Arial, sans-serif" class="TextParagraph"><tspan y="32372" x="18371" class="TextPosition"><tspan>Se refi ere a ecosistemas que no han sido sometidos al </tspan></tspan><tspan y="32690" x="18371" class="TextPosition"><tspan>proceso de evaluación con base en los criterios aquí </tspan></tspan><tspan y="33008" x="18371" class="TextPosition"><tspan>expuestos.</tspan></tspan></tspan>
          </text>
        </g>
        <g class="com.sun.star.drawing.CustomShape">
          <path fill="none" class="BoundingBox" d="M11117 16123h564v563h-564z"/>
          <path d="M11397 16176c129 0 228 98 228 227s-99 228-228 228-227-99-227-228 98-227 227-227zm-227 0zm457 456z" fill="#FFF"/>
          <path d="M11397 16176c129 0 228 98 228 227s-99 228-228 228-227-99-227-228 98-227 227-227z" stroke-width="106" stroke="#F96" fill="none"/>
        </g>
        <g class="com.sun.star.drawing.ConnectorShape">
          <path fill="none" class="BoundingBox" d="M8101 9856h7414v10017H8101z"/>
          <path d="M8154 19819c0-6532 2282-9561 6846-9785" stroke-width="106" stroke="#F96" fill="none"/>
          <path d="M15514 10022l-541-165 9 358z" fill="#F96"/>
        </g>
        <g class="com.sun.star.drawing.ConnectorShape">
          <path fill="none" class="BoundingBox" d="M11573 13106h3942v3353h-3942z"/>
          <path d="M11626 16405c2956 0 1253-2752 3369-3124" stroke-width="106" stroke="#F96" fill="none"/>
          <path d="M15514 13240l-550-134 30 357z" fill="#F96"/>
        </g>
        <g class="com.sun.star.drawing.ConnectorShape">
          <path fill="none" class="BoundingBox" d="M11573 16278h3942v360h-3942z"/>
          <path d="M11626 16405c2956 0 1263 46 3348 52" stroke-width="106" stroke="#F96" fill="none"/>
          <path d="M15514 16458l-537-180v358z" fill="#F96"/>
        </g>
        <g class="com.sun.star.drawing.ConnectorShape">
          <path fill="none" class="BoundingBox" d="M11573 16352h3942v3458h-3942z"/>
          <path d="M11626 16405c2956 0 1253 2845 3369 3228" stroke-width="106" stroke="#F96" fill="none"/>
          <path d="M15514 19676l-520-225-30 357z" fill="#F96"/>
        </g>
        <g class="com.sun.star.drawing.CustomShape">
          <path fill="none" class="BoundingBox" d="M7872 19765h565v563h-565z"/>
          <path d="M8153 19818c129 0 228 98 228 227s-99 228-228 228-227-99-227-228 98-227 227-227zm-227 0zm457 456z" fill="#FFF"/>
          <path d="M8153 19818c129 0 228 98 228 227s-99 228-228 228-227-99-227-228 98-227 227-227z" stroke-width="106" stroke="#F96" fill="none"/>
        </g>
        <g class="com.sun.star.drawing.ConnectorShape">
          <path fill="none" class="BoundingBox" d="M8329 19994h7186v3069H8329z"/>
          <path d="M8382 20047c5389 0 2076 2640 6578 2836" stroke-width="106" stroke="#F96" fill="none"/>
          <path d="M15514 22894l-533-191-8 358z" fill="#F96"/>
        </g>
        <g class="com.sun.star.drawing.ConnectorShape">
          <path fill="none" class="BoundingBox" d="M8329 16325h2842v3776H8329z"/>
          <path d="M8382 20047c2092 0 924-3007 2298-3556" stroke-width="106" stroke="#F96" fill="none"/>
          <path d="M11170 16405l-561-79 65 352z" fill="#F96"/>
        </g>
        <g class="com.sun.star.drawing.ConnectorShape">
          <path fill="none" class="BoundingBox" d="M8329 19994h7186v6275H8329z"/>
          <path d="M8382 20047c5389 0 2065 5644 6602 6043" stroke-width="106" stroke="#F96" fill="none"/>
          <path d="M15514 26112l-529-202-15 357z" fill="#F96"/>
        </g>
        <g class="com.sun.star.drawing.CustomShape">
          <path fill="none" class="BoundingBox" d="M5585 23821h564v563h-564z"/>
          <path d="M5865 23874c129 0 228 98 228 227s-99 228-228 228-227-99-227-228 98-227 227-227zm-227 0zm457 456z" fill="#FFF"/>
          <path d="M5865 23874c129 0 228 98 228 227s-99 228-228 228-227-99-227-228 98-227 227-227z" stroke-width="106" stroke="#F96" fill="none"/>
        </g>
        <g class="com.sun.star.drawing.ConnectorShape">
          <path fill="none" class="BoundingBox" d="M6041 20047h1886v4110H6041z"/>
          <path d="M6094 24103c1374 0 660-3057 1398-3863" stroke-width="106" stroke="#F96" fill="none"/>
          <path d="M7926 20047l-562 65 151 325z" fill="#F96"/>
        </g>
        <g class="com.sun.star.drawing.ConnectorShape">
          <path fill="none" class="BoundingBox" d="M6041 24050h9474v5449H6041z"/>
          <path d="M6094 24103c7105 0 2643 4947 8873 5216" stroke-width="106" stroke="#F96" fill="none"/>
          <path d="M15514 29330l-533-191-8 358z" fill="#F96"/>
        </g>
        <g class="com.sun.star.drawing.CustomShape">
          <path fill="none" class="BoundingBox" d="M2417 25815h564v564h-564z"/>
          <path d="M2697 25869c129 0 228 98 228 227s-99 228-228 228-227-99-227-228 98-227 227-227zm-227 0zm457 456z" fill="#FFF"/>
          <path d="M2697 25869c129 0 228 98 228 227s-99 228-228 228-227-99-227-228 98-227 227-227z" stroke-width="106" stroke="#F96" fill="none"/>
        </g>
        <g class="com.sun.star.drawing.ConnectorShape">
          <path fill="none" class="BoundingBox" d="M2873 23984h2766v2168H2873z"/>
          <path d="M2926 26098c2035 0 911-1627 2210-1942" stroke-width="106" stroke="#F96" fill="none"/>
          <path d="M5638 24103l-553-119 39 356z" fill="#F96"/>
        </g>
        <g class="com.sun.star.drawing.ConnectorShape">
          <path fill="none" class="BoundingBox" d="M2873 26045h12642v6679H2873z"/>
          <path d="M2926 26098c6198 0 84 6264 12047 6446" stroke-width="106" stroke="#F96" fill="none"/>
          <path d="M15514 32548l-536-183-2 358z" fill="#F96"/>
        </g>
        <g class="com.sun.star.drawing.TextShape">
          <path fill="none" class="BoundingBox" d="M3877 22981h2819v807H3877z"/>
          <text class="TextShape">
            <tspan font-weight="400" font-size="494" font-family="Arial, sans-serif" class="TextParagraph"><tspan y="23555" x="4127" class="TextPosition"><tspan fill="#EB613D">Evaluados</tspan></tspan></tspan>
          </text>
        </g>
        <g class="com.sun.star.drawing.TextShape">
          <path fill="none" class="BoundingBox" d="M4527 18923h3094v1362H4527z"/>
          <text class="TextShape">
            <tspan font-weight="400" font-size="494" font-family="Arial, sans-serif" class="TextParagraph"><tspan y="19497" x="4777" class="TextPosition"><tspan fill="#EB613D">Información</tspan></tspan></tspan><tspan font-weight="400" font-size="494" font-family="Arial, sans-serif" class="TextParagraph"><tspan y="20052" x="4985" class="TextPosition"><tspan fill="#EB613D">adecuada</tspan></tspan></tspan>
          </text>
        </g>
        <g class="com.sun.star.drawing.TextShape">
          <path fill="none" class="BoundingBox" d="M9829 14547h3394v1362H9829z"/>
          <text class="TextShape">
            <tspan font-weight="400" font-size="494" font-family="Arial, sans-serif" class="TextParagraph"><tspan y="15121" x="10117" class="TextPosition"><tspan fill="#EB613D">Ecosistemas</tspan></tspan></tspan><tspan font-weight="400" font-size="494" font-family="Arial, sans-serif" class="TextParagraph"><tspan y="15676" x="10079" class="TextPosition"><tspan fill="#EB613D">Amenazados</tspan></tspan></tspan>
          </text>
        </g>
        <g class="com.sun.star.drawing.TextShape">
          <path fill="none" class="BoundingBox" d="M1278 26368h2929v807H1278z"/>
          <text class="TextShape">
            <tspan font-weight="400" font-size="494" font-family="Arial, sans-serif" class="TextParagraph"><tspan y="26942" x="1528" class="TextPosition"><tspan fill="#EB613D">Categorías</tspan></tspan></tspan>
          </text>
        </g>
      </g>
    </g>
  </g>
</svg>
